<?xml version="1.0" encoding="utf-8" standalone="no"?>
<!DOCTYPE svg PUBLIC "-//W3C//DTD SVG 1.1//EN"
  "http://www.w3.org/Graphics/SVG/1.1/DTD/svg11.dtd">
<svg xmlns:xlink="http://www.w3.org/1999/xlink" width="576pt" height="432pt" viewBox="0 0 576 432" xmlns="http://www.w3.org/2000/svg" version="1.1">
 <metadata>
  <rdf:RDF xmlns:dc="http://purl.org/dc/elements/1.1/" xmlns:cc="http://creativecommons.org/ns#" xmlns:rdf="http://www.w3.org/1999/02/22-rdf-syntax-ns#">
   <cc:Work>
    <dc:type rdf:resource="http://purl.org/dc/dcmitype/StillImage"/>
    <dc:date>2023-02-04T22:02:17.149225</dc:date>
    <dc:format>image/svg+xml</dc:format>
    <dc:creator>
     <cc:Agent>
      <dc:title>Matplotlib v3.6.3, https://matplotlib.org/</dc:title>
     </cc:Agent>
    </dc:creator>
   </cc:Work>
  </rdf:RDF>
 </metadata>
 <defs>
  <style type="text/css">*{stroke-linejoin: round; stroke-linecap: butt}</style>
 </defs>
 <g id="figure_1">
  <g id="patch_1">
   <path d="M 0 432 
L 576 432 
L 576 0 
L 0 0 
z
" style="fill: #ffffff"/>
  </g>
  <g id="axes_1">
   <g id="patch_2">
    <path d="M 80.64 371.52 
L 495.36 371.52 
L 495.36 60.48 
L 80.64 60.48 
z
" style="fill: #ffffff"/>
   </g>
   <g id="matplotlib.axis_1">
    <g id="xtick_1">
     <g id="line2d_1">
      <defs>
       <path id="m78aec4ab2a" d="M 0 0 
L 0 3.5 
" style="stroke: #000000; stroke-width: 0.8"/>
      </defs>
      <g>
       <use xlink:href="#m78aec4ab2a" x="460.8" y="371.52" style="stroke: #000000; stroke-width: 0.8"/>
      </g>
     </g>
     <g id="line2d_2">
      <defs>
       <path id="ma1832ea2b4" d="M 0 0 
L 0 -3.5 
" style="stroke: #000000; stroke-width: 0.8"/>
      </defs>
      <g>
       <use xlink:href="#ma1832ea2b4" x="460.8" y="60.48" style="stroke: #000000; stroke-width: 0.8"/>
      </g>
     </g>
     <g id="text_1">
      <!-- 3000 -->
      <g transform="translate(442.8 390.813437) scale(0.18 -0.18)">
       <defs>
        <path id="FreeSerif-33" d="M 518 499 
C 371 499 275 410 275 275 
C 275 51 550 -90 998 -90 
C 1990 -90 2765 480 2765 1402 
C 2765 2099 2374 2381 1946 2566 
C 2387 2867 2547 3104 2547 3450 
C 2547 3968 2138 4326 1549 4326 
C 768 4326 461 3770 288 3290 
L 384 3264 
C 646 3731 934 3942 1338 3942 
C 1754 3942 2042 3661 2042 3258 
C 2042 2618 1459 2362 979 2195 
L 979 2112 
C 1523 2112 2304 1971 2304 1094 
C 2304 557 1939 141 1466 141 
C 1056 141 832 499 518 499 
z
" transform="scale(0.015625)"/>
        <path id="FreeSerif-30" d="M 1600 -90 
C 2483 -90 3046 832 3046 2112 
C 3046 3424 2464 4326 1626 4326 
C 691 4326 154 3341 154 2150 
C 154 858 717 -90 1600 -90 
z
M 1606 4160 
C 2144 4160 2432 3437 2432 2099 
C 2432 762 2150 77 1600 77 
C 1050 77 768 762 768 2093 
C 768 3450 1056 4160 1606 4160 
z
" transform="scale(0.015625)"/>
       </defs>
       <use xlink:href="#FreeSerif-33"/>
       <use xlink:href="#FreeSerif-30" x="49.999985"/>
       <use xlink:href="#FreeSerif-30" x="99.999969"/>
       <use xlink:href="#FreeSerif-30" x="149.999954"/>
      </g>
     </g>
    </g>
    <g id="xtick_2">
     <g id="line2d_3">
      <g>
       <use xlink:href="#m78aec4ab2a" x="391.68" y="371.52" style="stroke: #000000; stroke-width: 0.8"/>
      </g>
     </g>
     <g id="line2d_4">
      <g>
       <use xlink:href="#ma1832ea2b4" x="391.68" y="60.48" style="stroke: #000000; stroke-width: 0.8"/>
      </g>
     </g>
     <g id="text_2">
      <!-- 4000 -->
      <g transform="translate(373.68 390.813437) scale(0.18 -0.18)">
       <defs>
        <path id="FreeSerif-34" d="M 3021 1478 
L 2368 1478 
L 2368 4326 
L 2086 4326 
L 77 1478 
L 77 1069 
L 1875 1069 
L 1875 0 
L 2368 0 
L 2368 1069 
L 3021 1069 
L 3021 1478 
z
M 1869 1478 
L 333 1478 
L 1869 3674 
L 1869 1478 
z
" transform="scale(0.015625)"/>
       </defs>
       <use xlink:href="#FreeSerif-34"/>
       <use xlink:href="#FreeSerif-30" x="49.999985"/>
       <use xlink:href="#FreeSerif-30" x="99.999969"/>
       <use xlink:href="#FreeSerif-30" x="149.999954"/>
      </g>
     </g>
    </g>
    <g id="xtick_3">
     <g id="line2d_5">
      <g>
       <use xlink:href="#m78aec4ab2a" x="322.56" y="371.52" style="stroke: #000000; stroke-width: 0.8"/>
      </g>
     </g>
     <g id="line2d_6">
      <g>
       <use xlink:href="#ma1832ea2b4" x="322.56" y="60.48" style="stroke: #000000; stroke-width: 0.8"/>
      </g>
     </g>
     <g id="text_3">
      <!-- 5000 -->
      <g transform="translate(304.56 390.813437) scale(0.18 -0.18)">
       <defs>
        <path id="FreeSerif-35" d="M 2285 1242 
C 2285 627 1894 147 1395 147 
C 1056 147 838 544 480 544 
C 294 544 205 467 205 307 
C 205 64 506 -90 986 -90 
C 1664 -90 2733 237 2733 1549 
C 2733 2547 2080 2976 890 3187 
L 1158 3731 
L 2413 3731 
C 2515 3731 2541 3744 2560 3789 
L 2803 4358 
L 2746 4403 
C 2650 4269 2586 4237 2451 4237 
L 1114 4237 
L 416 2720 
C 410 2707 410 2701 410 2688 
C 410 2656 435 2637 486 2637 
C 883 2637 2285 2432 2285 1242 
z
" transform="scale(0.015625)"/>
       </defs>
       <use xlink:href="#FreeSerif-35"/>
       <use xlink:href="#FreeSerif-30" x="49.999985"/>
       <use xlink:href="#FreeSerif-30" x="99.999969"/>
       <use xlink:href="#FreeSerif-30" x="149.999954"/>
      </g>
     </g>
    </g>
    <g id="xtick_4">
     <g id="line2d_7">
      <g>
       <use xlink:href="#m78aec4ab2a" x="253.44" y="371.52" style="stroke: #000000; stroke-width: 0.8"/>
      </g>
     </g>
     <g id="line2d_8">
      <g>
       <use xlink:href="#ma1832ea2b4" x="253.44" y="60.48" style="stroke: #000000; stroke-width: 0.8"/>
      </g>
     </g>
     <g id="text_4">
      <!-- 6000 -->
      <g transform="translate(235.44 390.813437) scale(0.18 -0.18)">
       <defs>
        <path id="FreeSerif-36" d="M 1651 -90 
C 2445 -90 2995 518 2995 1402 
C 2995 2221 2528 2739 1792 2739 
C 1510 2739 1376 2694 973 2451 
C 1146 3418 1862 4109 2867 4275 
L 2854 4378 
C 582 4179 218 2534 218 1786 
C 218 659 794 -90 1651 -90 
z
M 1549 2445 
C 2099 2445 2419 1984 2419 1184 
C 2419 480 2170 90 1722 90 
C 1158 90 813 691 813 1683 
C 813 2131 922 2445 1549 2445 
z
" transform="scale(0.015625)"/>
       </defs>
       <use xlink:href="#FreeSerif-36"/>
       <use xlink:href="#FreeSerif-30" x="49.999985"/>
       <use xlink:href="#FreeSerif-30" x="99.999969"/>
       <use xlink:href="#FreeSerif-30" x="149.999954"/>
      </g>
     </g>
    </g>
    <g id="xtick_5">
     <g id="line2d_9">
      <g>
       <use xlink:href="#m78aec4ab2a" x="184.32" y="371.52" style="stroke: #000000; stroke-width: 0.8"/>
      </g>
     </g>
     <g id="line2d_10">
      <g>
       <use xlink:href="#ma1832ea2b4" x="184.32" y="60.48" style="stroke: #000000; stroke-width: 0.8"/>
      </g>
     </g>
     <g id="text_5">
      <!-- 7000 -->
      <g transform="translate(166.32 390.813437) scale(0.18 -0.18)">
       <defs>
        <path id="FreeSerif-37" d="M 2874 4237 
L 506 4237 
L 128 3296 
L 237 3245 
C 512 3680 627 3763 979 3763 
L 2368 3763 
L 1101 -51 
L 1517 -51 
L 2874 4134 
L 2874 4237 
z
" transform="scale(0.015625)"/>
       </defs>
       <use xlink:href="#FreeSerif-37"/>
       <use xlink:href="#FreeSerif-30" x="49.999985"/>
       <use xlink:href="#FreeSerif-30" x="99.999969"/>
       <use xlink:href="#FreeSerif-30" x="149.999954"/>
      </g>
     </g>
    </g>
    <g id="xtick_6">
     <g id="line2d_11">
      <g>
       <use xlink:href="#m78aec4ab2a" x="115.2" y="371.52" style="stroke: #000000; stroke-width: 0.8"/>
      </g>
     </g>
     <g id="line2d_12">
      <g>
       <use xlink:href="#ma1832ea2b4" x="115.2" y="60.48" style="stroke: #000000; stroke-width: 0.8"/>
      </g>
     </g>
     <g id="text_6">
      <!-- 8000 -->
      <g transform="translate(97.2 390.813437) scale(0.18 -0.18)">
       <defs>
        <path id="FreeSerif-38" d="M 1856 2374 
C 2490 2714 2714 2982 2714 3418 
C 2714 3942 2253 4326 1613 4326 
C 915 4326 397 3898 397 3315 
C 397 2899 518 2714 1190 2125 
C 499 1600 358 1402 358 966 
C 358 346 864 -90 1587 -90 
C 2355 -90 2848 333 2848 992 
C 2848 1485 2630 1798 1856 2374 
z
M 1357 1997 
C 1978 1542 2362 1331 2362 794 
C 2362 378 2074 90 1658 90 
C 1171 90 845 461 845 1018 
C 845 1427 986 1696 1357 1997 
z
M 1670 2490 
C 1101 2861 870 3155 870 3514 
C 870 3885 1158 4147 1562 4147 
C 1997 4147 2272 3866 2272 3424 
C 2272 2861 1850 2624 1670 2490 
z
" transform="scale(0.015625)"/>
       </defs>
       <use xlink:href="#FreeSerif-38"/>
       <use xlink:href="#FreeSerif-30" x="49.999985"/>
       <use xlink:href="#FreeSerif-30" x="99.999969"/>
       <use xlink:href="#FreeSerif-30" x="149.999954"/>
      </g>
     </g>
    </g>
    <g id="text_7">
     <!-- effective temperature (K) -->
     <g transform="translate(198.240469 411.013438) scale(0.18 -0.18)">
      <defs>
       <path id="FreeSerif-65" d="M 621 1773 
L 2592 1773 
C 2496 2547 2157 2944 1498 2944 
C 723 2944 160 2323 160 1370 
C 160 486 621 -64 1357 -64 
C 1965 -64 2445 314 2714 1005 
L 2611 1050 
C 2304 563 2029 378 1619 378 
C 1203 378 659 634 621 1773 
z
M 634 1978 
C 704 2477 922 2714 1312 2714 
C 1702 2714 1856 2534 1939 1978 
L 634 1978 
z
" transform="scale(0.015625)"/>
       <path id="FreeSerif-66" d="M 2118 3712 
C 2266 3712 2387 3827 2387 3974 
C 2387 4205 2106 4371 1722 4371 
C 877 4371 608 3770 595 2880 
L 70 2880 
L 70 2675 
L 595 2675 
L 595 666 
C 595 198 525 122 64 96 
L 64 0 
L 1728 0 
L 1728 96 
C 1203 115 1133 186 1133 666 
L 1133 2675 
L 1914 2675 
L 1914 2880 
L 1126 2880 
L 1126 3622 
C 1126 3994 1248 4192 1491 4192 
C 1856 4192 1811 3712 2118 3712 
z
" transform="scale(0.015625)"/>
       <path id="FreeSerif-63" d="M 160 1363 
C 160 531 666 -64 1376 -64 
C 2131 -64 2502 678 2637 941 
L 2547 998 
C 2240 550 2010 397 1645 397 
C 1062 397 653 909 653 1645 
C 653 2304 1005 2758 1523 2758 
C 1754 2758 1837 2688 1901 2451 
L 1939 2310 
C 1990 2131 2106 2016 2240 2016 
C 2406 2016 2547 2138 2547 2285 
C 2547 2643 2099 2944 1562 2944 
C 851 2944 160 2349 160 1363 
z
" transform="scale(0.015625)"/>
       <path id="FreeSerif-74" d="M 1658 2880 
L 1011 2880 
L 1011 3622 
C 1011 3686 1005 3706 966 3706 
C 922 3648 883 3590 838 3526 
C 269 2707 109 2848 109 2720 
C 109 2701 115 2688 134 2675 
L 474 2675 
L 474 749 
C 474 211 666 -64 1043 -64 
C 1357 -64 1600 90 1811 422 
L 1728 493 
C 1594 333 1485 269 1344 269 
C 1107 269 1011 442 1011 845 
L 1011 2675 
L 1658 2675 
L 1658 2880 
z
" transform="scale(0.015625)"/>
       <path id="FreeSerif-69" d="M 397 2515 
C 550 2515 608 2419 608 2138 
L 608 653 
C 608 192 544 122 102 96 
L 102 0 
L 1619 0 
L 1619 96 
C 1197 128 1146 192 1146 653 
L 1146 2925 
L 1120 2944 
C 787 2810 461 2688 128 2592 
L 128 2496 
C 224 2509 339 2515 397 2515 
z
M 819 4371 
C 646 4371 499 4224 499 4045 
C 499 3866 640 3718 819 3718 
C 1005 3718 1152 3859 1152 4045 
C 1152 4224 1005 4371 819 4371 
z
" transform="scale(0.015625)"/>
       <path id="FreeSerif-76" d="M 2963 2880 
L 2074 2880 
L 2074 2784 
C 2278 2765 2374 2701 2374 2579 
C 2374 2515 2362 2451 2336 2387 
L 1702 730 
L 1050 2368 
C 1011 2458 992 2547 992 2605 
C 992 2720 1062 2765 1286 2784 
L 1286 2880 
L 32 2880 
L 32 2784 
C 275 2771 333 2714 614 2048 
L 1382 211 
C 1472 -64 1517 -90 1549 -90 
C 1587 -90 1632 -6 1728 230 
L 2547 2285 
C 2720 2726 2771 2765 2963 2784 
L 2963 2880 
z
" transform="scale(0.015625)"/>
       <path id="FreeSerif-20" transform="scale(0.015625)"/>
       <path id="FreeSerif-6d" d="M 83 2547 
C 166 2566 218 2573 288 2573 
C 454 2573 512 2470 512 2163 
L 512 544 
C 512 198 422 102 64 96 
L 64 0 
L 1485 0 
L 1485 96 
C 1146 109 1050 179 1050 429 
L 1050 2234 
C 1248 2528 1619 2611 1805 2611 
C 2086 2611 2227 2387 2227 1939 
L 2227 550 
C 2227 192 2157 122 1792 96 
L 1792 0 
L 3226 0 
L 3226 96 
C 2861 102 2765 211 2765 608 
L 2765 2221 
C 2957 2496 3168 2611 3462 2611 
C 3827 2611 3942 2438 3942 1907 
L 3942 557 
C 3942 192 3891 141 3520 96 
L 3520 0 
L 4922 0 
L 4922 96 
L 4755 109 
C 4563 122 4480 237 4480 486 
L 4480 1805 
C 4480 2560 4230 2944 3738 2944 
C 3366 2944 3040 2778 2694 2406 
C 2579 2771 2362 2944 2016 2944 
C 1734 2944 1555 2854 1024 2451 
L 1024 2931 
L 979 2944 
C 653 2822 435 2752 83 2656 
L 83 2547 
z
" transform="scale(0.015625)"/>
       <path id="FreeSerif-70" d="M 90 2515 
C 147 2522 192 2522 250 2522 
C 467 2522 512 2458 512 2157 
L 512 -838 
C 512 -1171 442 -1242 64 -1280 
L 64 -1389 
L 1613 -1389 
L 1613 -1274 
C 1133 -1267 1050 -1197 1050 -794 
L 1050 211 
C 1274 0 1427 -64 1696 -64 
C 2451 -64 3040 653 3040 1581 
C 3040 2374 2592 2944 1971 2944 
C 1613 2944 1331 2784 1050 2438 
L 1050 2931 
L 1011 2944 
C 666 2810 442 2726 90 2618 
L 90 2515 
z
M 1050 2138 
C 1050 2330 1408 2560 1702 2560 
C 2176 2560 2490 2074 2490 1331 
C 2490 621 2176 141 1715 141 
C 1414 141 1050 371 1050 563 
L 1050 2138 
z
" transform="scale(0.015625)"/>
       <path id="FreeSerif-72" d="M 1926 2317 
C 2080 2317 2176 2426 2176 2605 
C 2176 2816 2042 2944 1824 2944 
C 1555 2944 1370 2797 1056 2342 
L 1056 2931 
L 1024 2944 
C 685 2803 454 2720 77 2598 
L 77 2496 
C 166 2515 224 2522 301 2522 
C 461 2522 518 2419 518 2138 
L 518 538 
C 518 218 474 173 64 96 
L 64 0 
L 1600 0 
L 1600 96 
C 1165 115 1056 211 1056 576 
L 1056 2016 
C 1056 2221 1331 2541 1504 2541 
C 1606 2541 1754 2317 1926 2317 
z
" transform="scale(0.015625)"/>
       <path id="FreeSerif-61" d="M 160 621 
C 160 218 442 -64 832 -64 
C 1114 -64 1376 70 1766 403 
C 1798 70 1914 -64 2176 -64 
C 2394 -64 2528 13 2752 256 
L 2752 422 
C 2643 333 2566 301 2470 301 
C 2323 301 2278 390 2278 672 
L 2278 1920 
C 2278 2560 2099 2944 1357 2944 
C 755 2944 282 2630 282 2227 
C 282 2080 410 1952 557 1952 
C 710 1952 845 2080 845 2221 
C 845 2278 813 2387 813 2477 
C 813 2650 1018 2790 1274 2790 
C 1587 2790 1760 2605 1760 2259 
L 1760 1869 
C 966 1549 160 1312 160 621 
z
M 1760 787 
C 1760 589 1728 531 1594 454 
C 1440 365 1261 307 1126 307 
C 966 307 723 442 723 826 
C 723 1203 986 1434 1760 1715 
L 1760 787 
z
" transform="scale(0.015625)"/>
       <path id="FreeSerif-75" d="M 3072 320 
L 3040 320 
C 2746 320 2675 390 2675 685 
L 2675 2880 
L 1664 2880 
L 1664 2771 
C 2061 2752 2138 2688 2138 2368 
L 2138 864 
C 2138 378 1581 307 1453 307 
C 1203 307 998 525 998 794 
L 998 2880 
L 64 2880 
L 64 2790 
C 371 2771 461 2675 461 2381 
L 461 768 
C 461 262 768 -64 1235 -64 
C 1696 -64 1946 262 2170 486 
L 2170 -45 
L 2195 -58 
C 2515 70 2746 141 3072 230 
L 3072 320 
z
" transform="scale(0.015625)"/>
       <path id="FreeSerif-28" d="M 1869 -1133 
L 1946 -1030 
C 1286 -512 858 0 858 1632 
C 858 3200 1286 3693 1946 4224 
L 1888 4326 
C 1363 3987 307 3238 307 1613 
C 307 70 1395 -845 1869 -1133 
z
" transform="scale(0.015625)"/>
       <path id="FreeSerif-4b" d="M 2522 4115 
C 2598 4109 2662 4109 2688 4109 
C 2880 4096 2957 4045 2957 3917 
C 2957 3776 2810 3584 2458 3258 
L 1325 2227 
L 1325 3539 
C 1325 4006 1395 4077 1914 4115 
L 1914 4237 
L 96 4237 
L 96 4115 
C 595 4077 672 3994 672 3539 
L 672 768 
C 672 237 602 154 96 122 
L 96 0 
L 1901 0 
L 1901 122 
C 1402 154 1325 230 1325 698 
L 1325 1894 
L 1491 2029 
L 2170 1357 
C 2656 877 3002 422 3002 269 
C 3002 134 2726 134 2554 122 
L 2554 0 
L 4506 0 
L 4506 122 
C 4173 128 4083 192 3501 813 
L 2010 2413 
L 3226 3616 
C 3654 4038 3763 4083 4198 4115 
L 4198 4237 
L 2522 4237 
L 2522 4115 
z
" transform="scale(0.015625)"/>
       <path id="FreeSerif-29" d="M 262 4326 
L 186 4224 
C 845 3706 1274 3194 1274 1562 
C 1274 -6 845 -499 186 -1030 
L 243 -1133 
C 768 -794 1824 -45 1824 1581 
C 1824 3123 736 4038 262 4326 
z
" transform="scale(0.015625)"/>
      </defs>
      <use xlink:href="#FreeSerif-65"/>
      <use xlink:href="#FreeSerif-66" x="42.399994"/>
      <use xlink:href="#FreeSerif-66" x="74.699982"/>
      <use xlink:href="#FreeSerif-65" x="105.999969"/>
      <use xlink:href="#FreeSerif-63" x="150.399963"/>
      <use xlink:href="#FreeSerif-74" x="192.799957"/>
      <use xlink:href="#FreeSerif-69" x="221.099945"/>
      <use xlink:href="#FreeSerif-76" x="245.399933"/>
      <use xlink:href="#FreeSerif-65" x="290.199921"/>
      <use xlink:href="#FreeSerif-20" x="334.599915"/>
      <use xlink:href="#FreeSerif-74" x="359.599899"/>
      <use xlink:href="#FreeSerif-65" x="387.899887"/>
      <use xlink:href="#FreeSerif-6d" x="431.299881"/>
      <use xlink:href="#FreeSerif-70" x="509.199875"/>
      <use xlink:href="#FreeSerif-65" x="559.19986"/>
      <use xlink:href="#FreeSerif-72" x="602.599854"/>
      <use xlink:href="#FreeSerif-61" x="637.099838"/>
      <use xlink:href="#FreeSerif-74" x="679.599823"/>
      <use xlink:href="#FreeSerif-75" x="707.899811"/>
      <use xlink:href="#FreeSerif-72" x="756.899796"/>
      <use xlink:href="#FreeSerif-65" x="790.39978"/>
      <use xlink:href="#FreeSerif-20" x="834.799774"/>
      <use xlink:href="#FreeSerif-28" x="859.799759"/>
      <use xlink:href="#FreeSerif-4b" x="893.099747"/>
      <use xlink:href="#FreeSerif-29" x="963.999741"/>
     </g>
    </g>
   </g>
   <g id="matplotlib.axis_2">
    <g id="ytick_1">
     <g id="line2d_13">
      <defs>
       <path id="meb69efcbec" d="M 0 0 
L -3.5 0 
" style="stroke: #000000; stroke-width: 0.8"/>
      </defs>
      <g>
       <use xlink:href="#meb69efcbec" x="80.64" y="317.054371" style="stroke: #000000; stroke-width: 0.8"/>
      </g>
     </g>
     <g id="line2d_14">
      <defs>
       <path id="mab25b99148" d="M 0 0 
L 3.5 0 
" style="stroke: #000000; stroke-width: 0.8"/>
      </defs>
      <g>
       <use xlink:href="#mab25b99148" x="495.36" y="317.054371" style="stroke: #000000; stroke-width: 0.8"/>
      </g>
     </g>
     <g id="text_8">
      <!-- $\mathdefault{10^{-2}}$ -->
      <g transform="translate(41.6 323.20109) scale(0.18 -0.18)">
       <defs>
        <path id="FreeSerif-31" d="M 1171 3795 
C 1306 3795 1363 3699 1363 3494 
L 1363 595 
C 1363 179 1210 109 755 96 
L 755 0 
L 2522 0 
L 2522 96 
C 2016 102 1914 166 1914 474 
L 1914 4314 
L 1862 4326 
L 710 3744 
L 710 3654 
C 960 3757 1075 3795 1171 3795 
z
" transform="scale(0.015625)"/>
        <path id="FreeSerif-2212" d="M 192 1408 
L 3418 1408 
L 3418 1830 
L 192 1830 
L 192 1408 
z
" transform="scale(0.015625)"/>
        <path id="FreeSerif-32" d="M 198 3053 
L 333 3021 
C 589 3648 819 3853 1261 3853 
C 1798 3853 2163 3488 2163 2950 
C 2163 2451 1869 1856 1331 1286 
L 192 77 
L 192 0 
L 2688 0 
L 3040 877 
L 2957 909 
C 2720 544 2637 486 2349 486 
L 819 486 
L 1894 1613 
C 2464 2208 2714 2694 2714 3194 
C 2714 3834 2195 4326 1530 4326 
C 499 4326 269 3354 198 3053 
z
" transform="scale(0.015625)"/>
       </defs>
       <use xlink:href="#FreeSerif-31" transform="translate(0 0.184375)"/>
       <use xlink:href="#FreeSerif-30" transform="translate(49.999985 0.184375)"/>
       <use xlink:href="#FreeSerif-2212" transform="translate(100.787469 31.684375) scale(0.7)"/>
       <use xlink:href="#FreeSerif-32" transform="translate(140.267465 31.684375) scale(0.7)"/>
      </g>
     </g>
    </g>
    <g id="ytick_2">
     <g id="line2d_15">
      <g>
       <use xlink:href="#meb69efcbec" x="80.64" y="236.56982" style="stroke: #000000; stroke-width: 0.8"/>
      </g>
     </g>
     <g id="line2d_16">
      <g>
       <use xlink:href="#mab25b99148" x="495.36" y="236.56982" style="stroke: #000000; stroke-width: 0.8"/>
      </g>
     </g>
     <g id="text_9">
      <!-- $\mathdefault{10^{0}}$ -->
      <g transform="translate(48.62 242.716539) scale(0.18 -0.18)">
       <use xlink:href="#FreeSerif-31" transform="translate(0 0.184375)"/>
       <use xlink:href="#FreeSerif-30" transform="translate(49.999985 0.184375)"/>
       <use xlink:href="#FreeSerif-30" transform="translate(100.787469 31.684375) scale(0.7)"/>
      </g>
     </g>
    </g>
    <g id="ytick_3">
     <g id="line2d_17">
      <g>
       <use xlink:href="#meb69efcbec" x="80.64" y="156.085269" style="stroke: #000000; stroke-width: 0.8"/>
      </g>
     </g>
     <g id="line2d_18">
      <g>
       <use xlink:href="#mab25b99148" x="495.36" y="156.085269" style="stroke: #000000; stroke-width: 0.8"/>
      </g>
     </g>
     <g id="text_10">
      <!-- $\mathdefault{10^{2}}$ -->
      <g transform="translate(48.62 162.231988) scale(0.18 -0.18)">
       <use xlink:href="#FreeSerif-31" transform="translate(0 0.184375)"/>
       <use xlink:href="#FreeSerif-30" transform="translate(49.999985 0.184375)"/>
       <use xlink:href="#FreeSerif-32" transform="translate(100.787469 31.684375) scale(0.7)"/>
      </g>
     </g>
    </g>
    <g id="ytick_4">
     <g id="line2d_19">
      <g>
       <use xlink:href="#meb69efcbec" x="80.64" y="75.600717" style="stroke: #000000; stroke-width: 0.8"/>
      </g>
     </g>
     <g id="line2d_20">
      <g>
       <use xlink:href="#mab25b99148" x="495.36" y="75.600717" style="stroke: #000000; stroke-width: 0.8"/>
      </g>
     </g>
     <g id="text_11">
      <!-- $\mathdefault{10^{4}}$ -->
      <g transform="translate(48.62 81.747436) scale(0.18 -0.18)">
       <use xlink:href="#FreeSerif-31" transform="translate(0 0.184375)"/>
       <use xlink:href="#FreeSerif-30" transform="translate(49.999985 0.184375)"/>
       <use xlink:href="#FreeSerif-34" transform="translate(100.787469 31.684375) scale(0.7)"/>
      </g>
     </g>
    </g>
    <g id="text_12">
     <!-- luminosity (solar units) -->
     <g transform="translate(33.676563 297.520312) rotate(-90) scale(0.18 -0.18)">
      <defs>
       <path id="FreeSerif-6c" d="M 64 3987 
C 147 3994 218 4000 301 4000 
C 506 4000 570 3910 570 3610 
L 570 557 
C 570 211 480 128 77 96 
L 77 0 
L 1587 0 
L 1587 96 
C 1184 122 1107 186 1107 538 
L 1107 4358 
L 1082 4371 
C 749 4262 506 4198 64 4090 
L 64 3987 
z
" transform="scale(0.015625)"/>
       <path id="FreeSerif-6e" d="M 64 2547 
C 102 2566 166 2573 237 2573 
C 416 2573 474 2477 474 2163 
L 474 576 
C 474 211 403 122 77 96 
L 77 0 
L 1434 0 
L 1434 96 
C 1107 122 1011 198 1011 429 
L 1011 2227 
C 1318 2515 1459 2592 1670 2592 
C 1984 2592 2138 2394 2138 1971 
L 2138 634 
C 2138 230 2054 122 1734 96 
L 1734 0 
L 3066 0 
L 3066 96 
C 2752 128 2675 205 2675 518 
L 2675 1984 
C 2675 2586 2394 2944 1920 2944 
C 1626 2944 1427 2835 992 2426 
L 992 2931 
L 947 2944 
C 634 2829 416 2758 64 2656 
L 64 2547 
z
" transform="scale(0.015625)"/>
       <path id="FreeSerif-6f" d="M 1574 2944 
C 742 2944 160 2330 160 1446 
C 160 582 755 -64 1562 -64 
C 2368 -64 2982 614 2982 1498 
C 2982 2336 2394 2944 1574 2944 
z
M 736 1760 
C 736 2368 1037 2765 1491 2765 
C 2029 2765 2406 2150 2406 1274 
C 2406 550 2118 115 1638 115 
C 1088 115 736 870 736 1760 
z
" transform="scale(0.015625)"/>
       <path id="FreeSerif-73" d="M 1715 2816 
C 1574 2816 1466 2938 1094 2938 
C 589 2938 224 2611 224 2150 
C 224 1792 429 1536 973 1229 
L 1344 1018 
C 1568 890 1677 736 1677 538 
C 1677 256 1472 77 1146 77 
C 493 77 390 717 333 973 
L 230 973 
L 230 -26 
L 314 -26 
C 358 38 384 51 461 51 
C 621 51 934 -64 1222 -64 
C 1715 -64 2125 307 2125 755 
C 2125 1075 1971 1286 1587 1517 
L 896 1926 
C 717 2029 621 2189 621 2362 
C 621 2618 819 2797 1114 2797 
C 1478 2797 1670 2579 1818 2010 
L 1914 2010 
L 1888 2880 
L 1818 2880 
C 1779 2854 1754 2816 1715 2816 
z
" transform="scale(0.015625)"/>
       <path id="FreeSerif-79" d="M 909 -858 
C 800 -858 653 -742 410 -742 
C 262 -742 134 -870 134 -1024 
C 134 -1235 339 -1395 608 -1395 
C 1037 -1395 1344 -1037 1690 -115 
L 2675 2496 
C 2752 2701 2829 2765 2982 2784 
L 2982 2880 
L 2118 2880 
L 2118 2784 
C 2323 2784 2426 2726 2426 2624 
C 2426 2598 2419 2560 2400 2515 
L 1779 749 
L 1043 2368 
C 1005 2458 979 2541 979 2611 
C 979 2726 1075 2771 1350 2784 
L 1350 2880 
L 32 2880 
L 32 2790 
C 198 2765 307 2694 358 2586 
L 1203 768 
C 1370 442 1485 218 1485 122 
C 1485 -70 1171 -858 909 -858 
z
" transform="scale(0.015625)"/>
      </defs>
      <use xlink:href="#FreeSerif-6c"/>
      <use xlink:href="#FreeSerif-75" x="24.799988"/>
      <use xlink:href="#FreeSerif-6d" x="73.799973"/>
      <use xlink:href="#FreeSerif-69" x="151.699966"/>
      <use xlink:href="#FreeSerif-6e" x="178.499954"/>
      <use xlink:href="#FreeSerif-6f" x="226.399948"/>
      <use xlink:href="#FreeSerif-73" x="275.499939"/>
      <use xlink:href="#FreeSerif-69" x="310.699936"/>
      <use xlink:href="#FreeSerif-74" x="336.499924"/>
      <use xlink:href="#FreeSerif-79" x="364.799911"/>
      <use xlink:href="#FreeSerif-20" x="411.899902"/>
      <use xlink:href="#FreeSerif-28" x="436.899887"/>
      <use xlink:href="#FreeSerif-73" x="470.199875"/>
      <use xlink:href="#FreeSerif-6f" x="506.899872"/>
      <use xlink:href="#FreeSerif-6c" x="554.999863"/>
      <use xlink:href="#FreeSerif-61" x="580.79985"/>
      <use xlink:href="#FreeSerif-72" x="624.299835"/>
      <use xlink:href="#FreeSerif-20" x="658.79982"/>
      <use xlink:href="#FreeSerif-75" x="683.799805"/>
      <use xlink:href="#FreeSerif-6e" x="732.799789"/>
      <use xlink:href="#FreeSerif-69" x="781.699783"/>
      <use xlink:href="#FreeSerif-74" x="807.499771"/>
      <use xlink:href="#FreeSerif-73" x="835.799759"/>
      <use xlink:href="#FreeSerif-29" x="872.499756"/>
     </g>
    </g>
   </g>
   <g id="line2d_21">
    <path d="M 385.788795 166.238747 
L 378.561236 173.644475 
L 375.418333 177.14342 
L 368.457719 185.952282 
L 366.754425 188.444809 
L 365.248769 190.810279 
L 362.026916 196.635062 
L 360.24139 200.774796 
L 358.988949 204.609376 
L 358.140688 208.244963 
L 357.763674 211.063552 
L 357.614453 213.82226 
L 357.688126 216.538297 
L 357.998909 219.228835 
L 358.73322 222.574325 
L 359.319002 224.569691 
L 360.323713 227.232889 
L 361.566187 229.900121 
L 364.24634 234.566128 
L 369.0655 242.188455 
L 369.883356 243.901689 
L 370.24038 244.973361 
L 370.389498 245.973681 
L 370.293991 246.892341 
L 369.893585 247.713077 
L 369.136573 248.421202 
L 367.917641 248.989539 
L 366.142227 249.393354 
L 363.687806 249.601338 
L 360.409966 249.578453 
L 356.170849 249.293344 
L 350.862097 248.723174 
L 344.400554 247.852543 
L 332.567583 245.998569 
L 318.232629 243.509819 
L 277.828165 236.245044 
L 272.197702 235.653737 
L 268.350983 235.925004 
L 267.295124 237.048888 
L 268.023242 238.444032 
L 269.563224 239.742502 
L 271.186131 240.714995 
L 273.235616 241.577642 
L 274.024709 241.672934 
L 274.059484 241.615285 
L 274.026122 241.57448 
L 273.647122 241.398732 
L 272.043559 240.776184 
L 270.26899 239.656406 
L 267.247281 237.65058 
L 265.260999 236.089826 
L 263.789437 234.653731 
L 262.802368 233.395583 
L 262.07012 232.126727 
L 261.723971 231.180227 
L 261.660327 230.500146 
L 261.800791 229.921408 
L 262.249726 229.210297 
L 264.095512 226.493564 
L 265.003175 225.734513 
L 266.25028 224.947399 
L 267.919457 224.147813 
L 270.09048 223.357265 
L 272.848286 222.617836 
L 275.28327 222.144521 
L 279.578044 221.572701 
L 284.543219 221.186895 
L 290.059864 221.008411 
L 299.112965 221.045014 
L 308.781791 221.157839 
L 315.246193 220.998412 
L 318.298518 220.758626 
L 321.094415 220.376765 
L 323.526493 219.851972 
L 325.547659 219.205254 
L 327.18356 218.467874 
L 328.526761 217.670515 
L 329.602698 216.829852 
L 331.255042 215.072889 
L 332.482304 213.256349 
L 333.492511 211.406796 
L 337.70826 202.911774 
L 339.934054 199.101264 
L 342.422564 195.285218 
L 345.21753 191.470853 
L 349.077085 186.710058 
L 352.414758 182.910475 
L 356.795372 178.191594 
L 356.24328 178.453937 
L 355.1494 179.389544 
L 355.085634 179.265213 
L 358.882104 175.477182 
L 364.92976 169.812091 
L 370.210491 165.109613 
L 376.750321 159.487438 
L 387.097061 151.113067 
L 395.456409 144.645439 
L 405.245905 137.30629 
L 420.098315 126.406899 
L 453.415005 102.35519 
L 455.942328 100.638526 
L 455.756398 100.76385 
L 446.301647 106.921727 
L 425.515608 120.800845 
L 403.971663 134.825913 
L 359.847535 163.319954 
L 351.22814 170.681801 
L 361.085545 164.519833 
L 371.209532 157.26663 
L 381.52718 150.0576 
L 379.741936 150.923405 
L 368.756906 158.077986 
L 362.48989 162.695647 
L 372.895974 155.510441 
L 364.670617 160.521281 
L 356.759 166.011956 
L 362.342164 161.856219 
L 350.660015 168.962824 
L 352.476232 167.223024 
L 353.075256 167.515811 
L 348.938746 169.775512 
L 349.536251 169.22785 
L 349.359662 169.316013 
L 348.604312 169.760838 
L 349.781463 169.107833 
L 349.86214 168.838832 
L 347.7482 169.366804 
L 346.033007 169.612765 
L 346.552335 169.082815 
L 357.415783 162.855465 
L 365.995788 157.795685 
L 382.072415 147.76855 
L 380.86859 148.497797 
L 418.766499 124.286367 
L 433.447687 114.606763 
L 444.318901 107.388535 
L 436.648585 112.525765 
L 451.824793 102.496613 
L 455.673729 100.136335 
L 458.730872 98.413384 
L 459.828365 97.866295 
L 460.539637 97.662818 
L 442.445082 109.289889 
L 436.968246 112.935235 
L 429.717706 117.829811 
L 456.259798 100.260333 
L 463.077774 96.175317 
L 468.186121 93.333996 
L 479.711867 87.259414 
L 478.535003 87.996665 
L 470.310836 92.440984 
L 465.133891 95.2536 
L 460.142634 98.133035 
L 455.310468 101.065468 
L 452.412765 102.894026 
L 459.971004 98.159921 
L 464.961743 95.278043 
L 471.144107 91.896138 
L 479.529994 87.493655 
L 478.139207 88.334526 
L 473.00002 91.109188 
L 465.718626 95.027607 
L 466.715991 94.485956 
L 459.778763 98.525148 
L 453.138432 102.661461 
L 442.179573 109.894203 
L 438.513743 112.320889 
L 435.335371 114.350961 
L 452.911386 102.897297 
L 458.34848 99.863017 
L 459.375412 99.369055 
L 456.576756 101.145125 
L 447.454626 106.947639 
L 441.064337 111.18227 
L 430.948018 117.877597 
L 428.713648 119.466618 
L 430.581444 118.246035 
L 444.31753 109.117797 
L 453.42081 103.091995 
L 462.059141 97.801917 
L 465.027238 96.071087 
L 481.468308 87.144844 
L 479.688148 88.241303 
L 475.730103 90.486813 
L 470.602002 93.279407 
L 462.460536 97.823785 
L 463.005655 97.527795 
L 457.158984 101.026825 
L 445.065473 108.798566 
L 442.659777 110.342294 
L 453.775313 103.13848 
L 460.669224 99.057663 
L 463.86582 97.400128 
L 464.949416 96.90497 
L 464.950161 97.094939 
L 459.37324 100.37911 
L 451.774472 105.108451 
L 433.30657 117.195395 
L 431.278935 118.605947 
L 433.193892 117.394524 
L 439.68953 113.142531 
L 452.453604 104.685208 
L 459.001371 100.529113 
L 464.872753 97.044655 
L 479.675147 88.518038 
L 483.05757 86.161391 
L 483.818997 85.558674 
L 482.674813 86.351952 
L 479.369372 88.725234 
L 474.782304 91.616148 
L 470.862323 93.893651 
L 463.601528 98.064032 
L 453.060175 104.527546 
L 446.523878 108.715369 
L 461.751724 99.084015 
L 464.537712 97.341774 
L 465.298276 96.773064 
L 465.875408 96.184056 
L 465.923989 95.589163 
L 464.825926 95.144382 
L 463.056173 94.903242 
L 461.129895 94.765666 
L 453.168096 94.586475 
L 422.717624 94.512199 
L 259.030269 94.463731 
L -1 94.611981 
L -1 94.611981 
" clip-path="url(#p78398c94b8)" style="fill: none; stroke: #1f77b4; stroke-width: 1.5; stroke-linecap: square"/>
   </g>
   <g id="line2d_22">
    <path d="M 468.701388 357.381818 
L 461.804979 349.976681 
L 451.529575 339.184702 
L 445.600365 330.965788 
L 442.960214 327.708803 
L 438.296755 322.280227 
L 431.645249 315.793674 
L 430.085238 314.485278 
L 425.18454 309.836076 
L 424.381188 309.475047 
L 425.145725 309.550456 
L 425.03791 309.353629 
L 424.234972 308.741214 
L 423.86925 308.398328 
L 423.773138 308.101247 
L 422.04306 306.438257 
L 402.217302 289.611728 
L 401.535415 289.230838 
L 401.751214 289.14308 
L 400.824758 288.876968 
L 401.431004 288.87348 
L 400.483798 288.384397 
L 400.633794 288.307468 
L 399.968565 287.795884 
L 396.009284 285.367413 
L 390.881505 282.311573 
L 388.639733 281.199575 
L 377.418933 276.384917 
L 365.732538 271.578353 
L 360.583604 269.558024 
L 345.486725 264.324791 
L 330.167204 259.255111 
L 314.547468 254.309151 
L 293.234764 247.696707 
L 264.498151 237.624036 
L 248.865798 231.737105 
L 218.553852 220.314399 
L 205.122445 215.528865 
L 191.439993 210.988055 
L 178.493578 206.991125 
L 159.715706 201.369008 
L 150.880355 198.426433 
L 146.228016 196.642134 
L 142.458825 194.97833 
L 139.265276 193.287336 
L 138.014859 192.48129 
L 136.835633 191.563083 
L 135.5299 190.175809 
L 135.176483 189.405772 
L 135.133441 188.692468 
L 135.169176 188.259408 
L 135.748028 187.159555 
L 136.066548 186.797865 
L 137.362777 185.960049 
L 138.78451 185.24082 
L 141.345498 184.148642 
L 143.768639 183.480528 
L 147.892663 182.61833 
L 155.655608 181.258981 
L 172.736802 179.049109 
L 174.153471 178.779265 
L 175.119319 178.45344 
L 174.944794 178.048684 
L 173.317148 177.662378 
L 168.53376 177.09525 
L 157.909613 176.285701 
L 107.102294 172.807835 
L 99.35946 172.272142 
L 99.50107 172.3498 
L 101.414382 172.684262 
L 107.103944 173.402011 
L 111.900701 173.812533 
L 117.334047 174.028051 
L 122.818372 173.924798 
L 142.837311 172.817058 
L 155.835728 172.566694 
L 171.845522 172.501581 
L 193.329862 172.633023 
L 214.357322 172.970874 
L 231.586108 173.471672 
L 242.287918 173.99591 
L 252.219223 174.72493 
L 259.126797 175.415767 
L 265.491124 176.23655 
L 271.304494 177.175344 
L 278.280169 178.572221 
L 284.58228 180.076729 
L 298.164401 183.489006 
L 301.681814 184.116099 
L 305.7172 184.520931 
L 307.890014 184.553534 
L 309.961584 184.432212 
L 311.790907 184.186358 
L 314.699251 183.490029 
L 316.953847 182.675667 
L 319.649254 181.368005 
L 322.62638 179.560973 
L 325.208239 177.716853 
L 329.945727 173.975926 
L 336.839464 168.305096 
L 343.168127 163.078413 
L 349.724013 157.837246 
L 357.19737 152.113613 
L 366.78315 144.968049 
L 369.858045 142.692927 
L 366.261671 145.249497 
L 357.194206 151.757476 
L 342.80553 162.36689 
L 337.501381 166.419555 
L 330.497949 171.830375 
L 326.305654 174.96137 
L 327.87703 173.724166 
L 326.694921 174.499688 
L 326.815372 174.191778 
L 326.284076 174.024497 
L 325.647937 173.447036 
L 325.343808 172.91424 
L 325.01228 171.954875 
L 324.763784 169.944988 
L 324.836229 169.611511 
L 324.791207 169.484062 
L 324.874247 169.109018 
L 324.85601 168.729567 
L 324.816529 167.704501 
L 325.2376 166.914251 
L 325.479994 166.466602 
L 325.47628 166.258829 
L 326.241847 165.476672 
L 327.544564 164.615274 
L 329.161097 163.652407 
L 331.592839 162.410097 
L 334.116652 161.024485 
L 338.555694 158.485267 
L 344.985775 154.419801 
L 349.931756 151.114483 
L 357.201257 146.145118 
L 350.815155 150.393801 
L 350.639923 150.445789 
L 354.698432 147.627321 
L 362.899278 142.045589 
L 436.158231 92.894501 
L 436.09705 92.896553 
L 426.031866 99.783138 
L 427.269154 99.012727 
L 427.164823 99.145099 
L 422.096372 102.590192 
L 422.194676 102.452498 
L 422.302192 102.318655 
L 424.858904 100.54794 
L 421.940844 102.530379 
L 411.748158 109.310734 
L 435.003359 93.694488 
L 436.771092 92.46616 
L 436.976866 92.392082 
L 435.827816 93.243116 
L 426.361763 99.674293 
L 427.084906 99.096018 
L 426.577247 99.415763 
L 426.154613 99.745395 
L 419.157096 104.395161 
L 436.275713 92.794088 
L 433.835231 94.639603 
L 434.006091 94.622286 
L 434.864434 94.055293 
L 434.67308 94.07078 
L 434.36064 94.159273 
L 429.442358 97.561378 
L 420.452347 103.609245 
L 437.180477 92.221042 
L 440.894211 89.732157 
L 440.965729 89.752928 
L 427.742101 98.801853 
L 421.601339 102.97022 
L 439.536261 90.694533 
L 445.153873 86.867472 
L 445.520777 86.702816 
L 426.498351 99.815272 
L 448.964636 84.446406 
L 443.021719 88.563548 
L 430.966469 96.928763 
L 443.764362 88.141403 
L 448.198858 85.066684 
L 435.016341 94.232656 
L 430.105227 97.74654 
L 448.046461 85.289878 
L 448.029096 85.391728 
L 451.32641 83.226878 
L 450.601113 83.848593 
L 440.982099 90.447479 
L 436.78145 93.322684 
L 439.69379 91.431329 
L 447.20756 86.312546 
L 446.707186 86.490755 
L 444.837997 87.901597 
L 429.231701 98.693079 
L 447.061043 86.377362 
L 450.678495 84.133752 
L 450.721434 84.241847 
L 449.186182 85.394945 
L 442.03085 90.172399 
L 442.895305 89.675617 
L 443.200034 89.613566 
L 446.17592 87.690559 
L 446.513151 87.320348 
L 445.772327 87.522025 
L 445.654343 87.611483 
L 445.707249 87.74742 
L 439.848536 91.898526 
L 433.075142 96.542183 
L 447.26317 86.771313 
L 449.508381 85.458028 
L 449.465575 85.574419 
L 449.631295 85.846558 
L 447.606934 87.208123 
L 447.508461 86.945517 
L 447.688772 86.724152 
L 448.093282 86.534009 
L 448.800648 86.3901 
L 448.274817 86.94997 
L 445.837487 88.445908 
L 444.963329 88.690174 
L 444.672205 88.900946 
L 444.671844 89.03754 
L 443.373029 90.207113 
L 438.794331 93.331625 
L 445.491115 88.723166 
L 448.606155 86.863842 
L 448.345262 87.110902 
L 448.293725 87.246265 
L 448.361815 87.399393 
L 453.778573 83.8579 
L 453.639692 83.543946 
L 453.908618 83.295838 
L 454.578975 83.111414 
L 455.103594 83.052167 
L 445.596407 89.31517 
L 444.184561 90.100251 
L 444.184655 90.255474 
L 444.658376 90.401016 
L 445.377269 89.737676 
L 445.704156 89.629605 
L 448.502582 88.204338 
L 447.856142 88.593167 
L 447.784077 88.743915 
L 460.296082 80.533133 
L 460.298263 80.36551 
L 460.440463 80.223537 
L 461.214835 80.029106 
L 460.435658 80.733796 
L 453.674299 85.023138 
L 444.475917 91.172786 
L 446.754797 89.700864 
L 450.238823 87.648171 
L 452.836141 86.48522 
L 452.645215 87.350542 
L 448.803658 89.853995 
L 448.272847 90.134402 
L 448.113078 90.290587 
L 457.266425 84.216183 
L 464.110691 79.957276 
L 468.963006 77.170653 
L 467.946103 77.939525 
L 460.998975 82.154501 
L 451.036565 88.635815 
L 445.831182 92.146414 
L 451.71058 88.217505 
L 455.147359 86.096173 
L 458.895084 84.2507 
L 461.529571 83.398092 
L 462.195828 83.425587 
L 463.206889 84.112741 
L 460.311142 86.109364 
L 450.497789 92.239129 
L 457.021463 87.882822 
L 463.890014 83.622389 
L 471.144233 79.486103 
L 478.524224 75.439658 
L 480.370741 74.618182 
L 477.530499 76.423739 
L 463.476353 84.745065 
L 456.650464 89.014542 
L 451.115531 92.631634 
L 458.10357 88.117817 
L 461.686055 86.016271 
L 465.65624 84.034715 
L 470.450777 82.471524 
L 476.194061 81.678449 
L 482.372686 81.547956 
L 470.561664 81.75457 
L 364.354147 81.943271 
L -1 82.416661 
L -1 82.416661 
" clip-path="url(#p78398c94b8)" style="fill: none; stroke: #ff7f0e; stroke-width: 1.5; stroke-linecap: square"/>
   </g>
   <g id="patch_3">
    <path d="M 80.64 371.52 
L 80.64 60.48 
" style="fill: none; stroke: #000000; stroke-width: 1.5; stroke-linejoin: miter; stroke-linecap: square"/>
   </g>
   <g id="patch_4">
    <path d="M 495.36 371.52 
L 495.36 60.48 
" style="fill: none; stroke: #000000; stroke-width: 1.5; stroke-linejoin: miter; stroke-linecap: square"/>
   </g>
   <g id="patch_5">
    <path d="M 80.64 371.52 
L 495.36 371.52 
" style="fill: none; stroke: #000000; stroke-width: 1.5; stroke-linejoin: miter; stroke-linecap: square"/>
   </g>
   <g id="patch_6">
    <path d="M 80.64 60.48 
L 495.36 60.48 
" style="fill: none; stroke: #000000; stroke-width: 1.5; stroke-linejoin: miter; stroke-linecap: square"/>
   </g>
   <g id="legend_1">
    <g id="patch_7">
     <path d="M 93.24 362.52 
L 219.006563 362.52 
Q 222.606563 362.52 222.606563 358.92 
L 222.606563 309.706875 
Q 222.606563 306.106875 219.006563 306.106875 
L 93.24 306.106875 
Q 89.64 306.106875 89.64 309.706875 
L 89.64 358.92 
Q 89.64 362.52 93.24 362.52 
z
" style="fill: #ffffff; opacity: 0.8; stroke: #cccccc; stroke-linejoin: miter"/>
    </g>
    <g id="line2d_23">
     <path d="M 96.84 319.606875 
L 114.84 319.606875 
L 132.84 319.606875 
" style="fill: none; stroke: #1f77b4; stroke-width: 1.5; stroke-linecap: square"/>
    </g>
    <g id="text_13">
     <!-- track -->
     <g transform="translate(147.24 325.906875) scale(0.18 -0.18)">
      <defs>
       <path id="FreeSerif-6b" d="M 64 3987 
C 141 3994 205 4000 269 4000 
C 480 4000 544 3917 544 3610 
L 544 525 
C 544 192 525 173 64 96 
L 64 0 
L 1562 0 
L 1562 96 
C 1120 166 1082 205 1082 512 
L 1082 1606 
L 1978 410 
C 2029 333 2112 256 2112 192 
C 2112 109 2029 96 1856 96 
L 1856 0 
L 3251 0 
L 3251 96 
C 2970 115 2771 237 2502 563 
L 1523 1805 
L 1709 1978 
C 2566 2778 2778 2784 3091 2784 
L 3091 2880 
L 1786 2880 
L 1786 2790 
C 2035 2784 2106 2758 2106 2669 
C 2106 2618 2048 2528 1958 2451 
L 1082 1670 
L 1082 4358 
L 1056 4371 
C 704 4256 461 4186 64 4090 
L 64 3987 
z
" transform="scale(0.015625)"/>
      </defs>
      <use xlink:href="#FreeSerif-74"/>
      <use xlink:href="#FreeSerif-72" x="28.299988"/>
      <use xlink:href="#FreeSerif-61" x="62.799973"/>
      <use xlink:href="#FreeSerif-63" x="105.799957"/>
      <use xlink:href="#FreeSerif-6b" x="148.199951"/>
     </g>
    </g>
    <g id="line2d_24">
     <path d="M 96.84 345.113437 
L 114.84 345.113437 
L 132.84 345.113437 
" style="fill: none; stroke: #ff7f0e; stroke-width: 1.5; stroke-linecap: square"/>
    </g>
    <g id="text_14">
     <!-- isochrone -->
     <g transform="translate(147.24 351.413437) scale(0.18 -0.18)">
      <defs>
       <path id="FreeSerif-68" d="M 1011 2195 
C 1280 2490 1472 2598 1722 2598 
C 2042 2598 2202 2368 2202 1920 
L 2202 653 
C 2202 218 2138 134 1766 96 
L 1766 0 
L 3123 0 
L 3123 96 
C 2778 160 2739 211 2739 653 
L 2739 1926 
C 2739 2598 2470 2944 1952 2944 
C 1574 2944 1306 2790 1011 2406 
L 1011 4352 
L 979 4371 
C 621 4243 435 4186 70 4090 
L 70 3987 
C 96 3994 154 4000 179 4000 
C 429 4000 474 3942 474 3667 
L 474 653 
C 474 205 435 147 64 96 
L 64 0 
L 1446 0 
L 1446 96 
C 1075 134 1011 211 1011 653 
L 1011 2195 
z
" transform="scale(0.015625)"/>
      </defs>
      <use xlink:href="#FreeSerif-69"/>
      <use xlink:href="#FreeSerif-73" x="26.799988"/>
      <use xlink:href="#FreeSerif-6f" x="63.499985"/>
      <use xlink:href="#FreeSerif-63" x="112.599976"/>
      <use xlink:href="#FreeSerif-68" x="154.999969"/>
      <use xlink:href="#FreeSerif-72" x="204.799957"/>
      <use xlink:href="#FreeSerif-6f" x="238.299942"/>
      <use xlink:href="#FreeSerif-6e" x="286.399933"/>
      <use xlink:href="#FreeSerif-65" x="334.299927"/>
     </g>
    </g>
   </g>
  </g>
 </g>
 <defs>
  <clipPath id="p78398c94b8">
   <rect x="80.64" y="60.48" width="414.72" height="311.04"/>
  </clipPath>
 </defs>
</svg>
