<?xml version="1.0" encoding="utf-8" standalone="no"?>
<!DOCTYPE svg PUBLIC "-//W3C//DTD SVG 1.1//EN"
  "http://www.w3.org/Graphics/SVG/1.1/DTD/svg11.dtd">
<svg xmlns:xlink="http://www.w3.org/1999/xlink" width="576pt" height="432pt" viewBox="0 0 576 432" xmlns="http://www.w3.org/2000/svg" version="1.1">
 <metadata>
  <rdf:RDF xmlns:dc="http://purl.org/dc/elements/1.1/" xmlns:cc="http://creativecommons.org/ns#" xmlns:rdf="http://www.w3.org/1999/02/22-rdf-syntax-ns#">
   <cc:Work>
    <dc:type rdf:resource="http://purl.org/dc/dcmitype/StillImage"/>
    <dc:date>2023-02-04T22:02:25.514663</dc:date>
    <dc:format>image/svg+xml</dc:format>
    <dc:creator>
     <cc:Agent>
      <dc:title>Matplotlib v3.6.3, https://matplotlib.org/</dc:title>
     </cc:Agent>
    </dc:creator>
   </cc:Work>
  </rdf:RDF>
 </metadata>
 <defs>
  <style type="text/css">*{stroke-linejoin: round; stroke-linecap: butt}</style>
 </defs>
 <g id="figure_1">
  <g id="patch_1">
   <path d="M 0 432 
L 576 432 
L 576 0 
L 0 0 
z
" style="fill: #ffffff"/>
  </g>
  <g id="axes_1">
   <g id="patch_2">
    <path d="M 80.64 371.52 
L 495.36 371.52 
L 495.36 60.48 
L 80.64 60.48 
z
" style="fill: #ffffff"/>
   </g>
   <g id="matplotlib.axis_1">
    <g id="xtick_1">
     <g id="line2d_1">
      <defs>
       <path id="mc663d8377c" d="M 0 0 
L 0 3.5 
" style="stroke: #000000; stroke-width: 0.8"/>
      </defs>
      <g>
       <use xlink:href="#mc663d8377c" x="417.6" y="371.52" style="stroke: #000000; stroke-width: 0.8"/>
      </g>
     </g>
     <g id="line2d_2">
      <defs>
       <path id="m82131fef72" d="M 0 0 
L 0 -3.5 
" style="stroke: #000000; stroke-width: 0.8"/>
      </defs>
      <g>
       <use xlink:href="#m82131fef72" x="417.6" y="60.48" style="stroke: #000000; stroke-width: 0.8"/>
      </g>
     </g>
     <g id="text_1">
      <!-- 4000 -->
      <g transform="translate(399.6 390.813437) scale(0.18 -0.18)">
       <defs>
        <path id="FreeSerif-34" d="M 3021 1478 
L 2368 1478 
L 2368 4326 
L 2086 4326 
L 77 1478 
L 77 1069 
L 1875 1069 
L 1875 0 
L 2368 0 
L 2368 1069 
L 3021 1069 
L 3021 1478 
z
M 1869 1478 
L 333 1478 
L 1869 3674 
L 1869 1478 
z
" transform="scale(0.015625)"/>
        <path id="FreeSerif-30" d="M 1600 -90 
C 2483 -90 3046 832 3046 2112 
C 3046 3424 2464 4326 1626 4326 
C 691 4326 154 3341 154 2150 
C 154 858 717 -90 1600 -90 
z
M 1606 4160 
C 2144 4160 2432 3437 2432 2099 
C 2432 762 2150 77 1600 77 
C 1050 77 768 762 768 2093 
C 768 3450 1056 4160 1606 4160 
z
" transform="scale(0.015625)"/>
       </defs>
       <use xlink:href="#FreeSerif-34"/>
       <use xlink:href="#FreeSerif-30" x="49.999985"/>
       <use xlink:href="#FreeSerif-30" x="99.999969"/>
       <use xlink:href="#FreeSerif-30" x="149.999954"/>
      </g>
     </g>
    </g>
    <g id="xtick_2">
     <g id="line2d_3">
      <g>
       <use xlink:href="#mc663d8377c" x="313.92" y="371.52" style="stroke: #000000; stroke-width: 0.8"/>
      </g>
     </g>
     <g id="line2d_4">
      <g>
       <use xlink:href="#m82131fef72" x="313.92" y="60.48" style="stroke: #000000; stroke-width: 0.8"/>
      </g>
     </g>
     <g id="text_2">
      <!-- 6000 -->
      <g transform="translate(295.92 390.813437) scale(0.18 -0.18)">
       <defs>
        <path id="FreeSerif-36" d="M 1651 -90 
C 2445 -90 2995 518 2995 1402 
C 2995 2221 2528 2739 1792 2739 
C 1510 2739 1376 2694 973 2451 
C 1146 3418 1862 4109 2867 4275 
L 2854 4378 
C 582 4179 218 2534 218 1786 
C 218 659 794 -90 1651 -90 
z
M 1549 2445 
C 2099 2445 2419 1984 2419 1184 
C 2419 480 2170 90 1722 90 
C 1158 90 813 691 813 1683 
C 813 2131 922 2445 1549 2445 
z
" transform="scale(0.015625)"/>
       </defs>
       <use xlink:href="#FreeSerif-36"/>
       <use xlink:href="#FreeSerif-30" x="49.999985"/>
       <use xlink:href="#FreeSerif-30" x="99.999969"/>
       <use xlink:href="#FreeSerif-30" x="149.999954"/>
      </g>
     </g>
    </g>
    <g id="xtick_3">
     <g id="line2d_5">
      <g>
       <use xlink:href="#mc663d8377c" x="210.24" y="371.52" style="stroke: #000000; stroke-width: 0.8"/>
      </g>
     </g>
     <g id="line2d_6">
      <g>
       <use xlink:href="#m82131fef72" x="210.24" y="60.48" style="stroke: #000000; stroke-width: 0.8"/>
      </g>
     </g>
     <g id="text_3">
      <!-- 8000 -->
      <g transform="translate(192.24 390.813437) scale(0.18 -0.18)">
       <defs>
        <path id="FreeSerif-38" d="M 1856 2374 
C 2490 2714 2714 2982 2714 3418 
C 2714 3942 2253 4326 1613 4326 
C 915 4326 397 3898 397 3315 
C 397 2899 518 2714 1190 2125 
C 499 1600 358 1402 358 966 
C 358 346 864 -90 1587 -90 
C 2355 -90 2848 333 2848 992 
C 2848 1485 2630 1798 1856 2374 
z
M 1357 1997 
C 1978 1542 2362 1331 2362 794 
C 2362 378 2074 90 1658 90 
C 1171 90 845 461 845 1018 
C 845 1427 986 1696 1357 1997 
z
M 1670 2490 
C 1101 2861 870 3155 870 3514 
C 870 3885 1158 4147 1562 4147 
C 1997 4147 2272 3866 2272 3424 
C 2272 2861 1850 2624 1670 2490 
z
" transform="scale(0.015625)"/>
       </defs>
       <use xlink:href="#FreeSerif-38"/>
       <use xlink:href="#FreeSerif-30" x="49.999985"/>
       <use xlink:href="#FreeSerif-30" x="99.999969"/>
       <use xlink:href="#FreeSerif-30" x="149.999954"/>
      </g>
     </g>
    </g>
    <g id="xtick_4">
     <g id="line2d_7">
      <g>
       <use xlink:href="#mc663d8377c" x="106.56" y="371.52" style="stroke: #000000; stroke-width: 0.8"/>
      </g>
     </g>
     <g id="line2d_8">
      <g>
       <use xlink:href="#m82131fef72" x="106.56" y="60.48" style="stroke: #000000; stroke-width: 0.8"/>
      </g>
     </g>
     <g id="text_4">
      <!-- 10000 -->
      <g transform="translate(84.06 390.813437) scale(0.18 -0.18)">
       <defs>
        <path id="FreeSerif-31" d="M 1171 3795 
C 1306 3795 1363 3699 1363 3494 
L 1363 595 
C 1363 179 1210 109 755 96 
L 755 0 
L 2522 0 
L 2522 96 
C 2016 102 1914 166 1914 474 
L 1914 4314 
L 1862 4326 
L 710 3744 
L 710 3654 
C 960 3757 1075 3795 1171 3795 
z
" transform="scale(0.015625)"/>
       </defs>
       <use xlink:href="#FreeSerif-31"/>
       <use xlink:href="#FreeSerif-30" x="49.999985"/>
       <use xlink:href="#FreeSerif-30" x="99.999969"/>
       <use xlink:href="#FreeSerif-30" x="149.999954"/>
       <use xlink:href="#FreeSerif-30" x="199.999939"/>
      </g>
     </g>
    </g>
    <g id="text_5">
     <!-- effective temperature (K) -->
     <g transform="translate(198.240469 411.013438) scale(0.18 -0.18)">
      <defs>
       <path id="FreeSerif-65" d="M 621 1773 
L 2592 1773 
C 2496 2547 2157 2944 1498 2944 
C 723 2944 160 2323 160 1370 
C 160 486 621 -64 1357 -64 
C 1965 -64 2445 314 2714 1005 
L 2611 1050 
C 2304 563 2029 378 1619 378 
C 1203 378 659 634 621 1773 
z
M 634 1978 
C 704 2477 922 2714 1312 2714 
C 1702 2714 1856 2534 1939 1978 
L 634 1978 
z
" transform="scale(0.015625)"/>
       <path id="FreeSerif-66" d="M 2118 3712 
C 2266 3712 2387 3827 2387 3974 
C 2387 4205 2106 4371 1722 4371 
C 877 4371 608 3770 595 2880 
L 70 2880 
L 70 2675 
L 595 2675 
L 595 666 
C 595 198 525 122 64 96 
L 64 0 
L 1728 0 
L 1728 96 
C 1203 115 1133 186 1133 666 
L 1133 2675 
L 1914 2675 
L 1914 2880 
L 1126 2880 
L 1126 3622 
C 1126 3994 1248 4192 1491 4192 
C 1856 4192 1811 3712 2118 3712 
z
" transform="scale(0.015625)"/>
       <path id="FreeSerif-63" d="M 160 1363 
C 160 531 666 -64 1376 -64 
C 2131 -64 2502 678 2637 941 
L 2547 998 
C 2240 550 2010 397 1645 397 
C 1062 397 653 909 653 1645 
C 653 2304 1005 2758 1523 2758 
C 1754 2758 1837 2688 1901 2451 
L 1939 2310 
C 1990 2131 2106 2016 2240 2016 
C 2406 2016 2547 2138 2547 2285 
C 2547 2643 2099 2944 1562 2944 
C 851 2944 160 2349 160 1363 
z
" transform="scale(0.015625)"/>
       <path id="FreeSerif-74" d="M 1658 2880 
L 1011 2880 
L 1011 3622 
C 1011 3686 1005 3706 966 3706 
C 922 3648 883 3590 838 3526 
C 269 2707 109 2848 109 2720 
C 109 2701 115 2688 134 2675 
L 474 2675 
L 474 749 
C 474 211 666 -64 1043 -64 
C 1357 -64 1600 90 1811 422 
L 1728 493 
C 1594 333 1485 269 1344 269 
C 1107 269 1011 442 1011 845 
L 1011 2675 
L 1658 2675 
L 1658 2880 
z
" transform="scale(0.015625)"/>
       <path id="FreeSerif-69" d="M 397 2515 
C 550 2515 608 2419 608 2138 
L 608 653 
C 608 192 544 122 102 96 
L 102 0 
L 1619 0 
L 1619 96 
C 1197 128 1146 192 1146 653 
L 1146 2925 
L 1120 2944 
C 787 2810 461 2688 128 2592 
L 128 2496 
C 224 2509 339 2515 397 2515 
z
M 819 4371 
C 646 4371 499 4224 499 4045 
C 499 3866 640 3718 819 3718 
C 1005 3718 1152 3859 1152 4045 
C 1152 4224 1005 4371 819 4371 
z
" transform="scale(0.015625)"/>
       <path id="FreeSerif-76" d="M 2963 2880 
L 2074 2880 
L 2074 2784 
C 2278 2765 2374 2701 2374 2579 
C 2374 2515 2362 2451 2336 2387 
L 1702 730 
L 1050 2368 
C 1011 2458 992 2547 992 2605 
C 992 2720 1062 2765 1286 2784 
L 1286 2880 
L 32 2880 
L 32 2784 
C 275 2771 333 2714 614 2048 
L 1382 211 
C 1472 -64 1517 -90 1549 -90 
C 1587 -90 1632 -6 1728 230 
L 2547 2285 
C 2720 2726 2771 2765 2963 2784 
L 2963 2880 
z
" transform="scale(0.015625)"/>
       <path id="FreeSerif-20" transform="scale(0.015625)"/>
       <path id="FreeSerif-6d" d="M 83 2547 
C 166 2566 218 2573 288 2573 
C 454 2573 512 2470 512 2163 
L 512 544 
C 512 198 422 102 64 96 
L 64 0 
L 1485 0 
L 1485 96 
C 1146 109 1050 179 1050 429 
L 1050 2234 
C 1248 2528 1619 2611 1805 2611 
C 2086 2611 2227 2387 2227 1939 
L 2227 550 
C 2227 192 2157 122 1792 96 
L 1792 0 
L 3226 0 
L 3226 96 
C 2861 102 2765 211 2765 608 
L 2765 2221 
C 2957 2496 3168 2611 3462 2611 
C 3827 2611 3942 2438 3942 1907 
L 3942 557 
C 3942 192 3891 141 3520 96 
L 3520 0 
L 4922 0 
L 4922 96 
L 4755 109 
C 4563 122 4480 237 4480 486 
L 4480 1805 
C 4480 2560 4230 2944 3738 2944 
C 3366 2944 3040 2778 2694 2406 
C 2579 2771 2362 2944 2016 2944 
C 1734 2944 1555 2854 1024 2451 
L 1024 2931 
L 979 2944 
C 653 2822 435 2752 83 2656 
L 83 2547 
z
" transform="scale(0.015625)"/>
       <path id="FreeSerif-70" d="M 90 2515 
C 147 2522 192 2522 250 2522 
C 467 2522 512 2458 512 2157 
L 512 -838 
C 512 -1171 442 -1242 64 -1280 
L 64 -1389 
L 1613 -1389 
L 1613 -1274 
C 1133 -1267 1050 -1197 1050 -794 
L 1050 211 
C 1274 0 1427 -64 1696 -64 
C 2451 -64 3040 653 3040 1581 
C 3040 2374 2592 2944 1971 2944 
C 1613 2944 1331 2784 1050 2438 
L 1050 2931 
L 1011 2944 
C 666 2810 442 2726 90 2618 
L 90 2515 
z
M 1050 2138 
C 1050 2330 1408 2560 1702 2560 
C 2176 2560 2490 2074 2490 1331 
C 2490 621 2176 141 1715 141 
C 1414 141 1050 371 1050 563 
L 1050 2138 
z
" transform="scale(0.015625)"/>
       <path id="FreeSerif-72" d="M 1926 2317 
C 2080 2317 2176 2426 2176 2605 
C 2176 2816 2042 2944 1824 2944 
C 1555 2944 1370 2797 1056 2342 
L 1056 2931 
L 1024 2944 
C 685 2803 454 2720 77 2598 
L 77 2496 
C 166 2515 224 2522 301 2522 
C 461 2522 518 2419 518 2138 
L 518 538 
C 518 218 474 173 64 96 
L 64 0 
L 1600 0 
L 1600 96 
C 1165 115 1056 211 1056 576 
L 1056 2016 
C 1056 2221 1331 2541 1504 2541 
C 1606 2541 1754 2317 1926 2317 
z
" transform="scale(0.015625)"/>
       <path id="FreeSerif-61" d="M 160 621 
C 160 218 442 -64 832 -64 
C 1114 -64 1376 70 1766 403 
C 1798 70 1914 -64 2176 -64 
C 2394 -64 2528 13 2752 256 
L 2752 422 
C 2643 333 2566 301 2470 301 
C 2323 301 2278 390 2278 672 
L 2278 1920 
C 2278 2560 2099 2944 1357 2944 
C 755 2944 282 2630 282 2227 
C 282 2080 410 1952 557 1952 
C 710 1952 845 2080 845 2221 
C 845 2278 813 2387 813 2477 
C 813 2650 1018 2790 1274 2790 
C 1587 2790 1760 2605 1760 2259 
L 1760 1869 
C 966 1549 160 1312 160 621 
z
M 1760 787 
C 1760 589 1728 531 1594 454 
C 1440 365 1261 307 1126 307 
C 966 307 723 442 723 826 
C 723 1203 986 1434 1760 1715 
L 1760 787 
z
" transform="scale(0.015625)"/>
       <path id="FreeSerif-75" d="M 3072 320 
L 3040 320 
C 2746 320 2675 390 2675 685 
L 2675 2880 
L 1664 2880 
L 1664 2771 
C 2061 2752 2138 2688 2138 2368 
L 2138 864 
C 2138 378 1581 307 1453 307 
C 1203 307 998 525 998 794 
L 998 2880 
L 64 2880 
L 64 2790 
C 371 2771 461 2675 461 2381 
L 461 768 
C 461 262 768 -64 1235 -64 
C 1696 -64 1946 262 2170 486 
L 2170 -45 
L 2195 -58 
C 2515 70 2746 141 3072 230 
L 3072 320 
z
" transform="scale(0.015625)"/>
       <path id="FreeSerif-28" d="M 1869 -1133 
L 1946 -1030 
C 1286 -512 858 0 858 1632 
C 858 3200 1286 3693 1946 4224 
L 1888 4326 
C 1363 3987 307 3238 307 1613 
C 307 70 1395 -845 1869 -1133 
z
" transform="scale(0.015625)"/>
       <path id="FreeSerif-4b" d="M 2522 4115 
C 2598 4109 2662 4109 2688 4109 
C 2880 4096 2957 4045 2957 3917 
C 2957 3776 2810 3584 2458 3258 
L 1325 2227 
L 1325 3539 
C 1325 4006 1395 4077 1914 4115 
L 1914 4237 
L 96 4237 
L 96 4115 
C 595 4077 672 3994 672 3539 
L 672 768 
C 672 237 602 154 96 122 
L 96 0 
L 1901 0 
L 1901 122 
C 1402 154 1325 230 1325 698 
L 1325 1894 
L 1491 2029 
L 2170 1357 
C 2656 877 3002 422 3002 269 
C 3002 134 2726 134 2554 122 
L 2554 0 
L 4506 0 
L 4506 122 
C 4173 128 4083 192 3501 813 
L 2010 2413 
L 3226 3616 
C 3654 4038 3763 4083 4198 4115 
L 4198 4237 
L 2522 4237 
L 2522 4115 
z
" transform="scale(0.015625)"/>
       <path id="FreeSerif-29" d="M 262 4326 
L 186 4224 
C 845 3706 1274 3194 1274 1562 
C 1274 -6 845 -499 186 -1030 
L 243 -1133 
C 768 -794 1824 -45 1824 1581 
C 1824 3123 736 4038 262 4326 
z
" transform="scale(0.015625)"/>
      </defs>
      <use xlink:href="#FreeSerif-65"/>
      <use xlink:href="#FreeSerif-66" x="42.399994"/>
      <use xlink:href="#FreeSerif-66" x="74.699982"/>
      <use xlink:href="#FreeSerif-65" x="105.999969"/>
      <use xlink:href="#FreeSerif-63" x="150.399963"/>
      <use xlink:href="#FreeSerif-74" x="192.799957"/>
      <use xlink:href="#FreeSerif-69" x="221.099945"/>
      <use xlink:href="#FreeSerif-76" x="245.399933"/>
      <use xlink:href="#FreeSerif-65" x="290.199921"/>
      <use xlink:href="#FreeSerif-20" x="334.599915"/>
      <use xlink:href="#FreeSerif-74" x="359.599899"/>
      <use xlink:href="#FreeSerif-65" x="387.899887"/>
      <use xlink:href="#FreeSerif-6d" x="431.299881"/>
      <use xlink:href="#FreeSerif-70" x="509.199875"/>
      <use xlink:href="#FreeSerif-65" x="559.19986"/>
      <use xlink:href="#FreeSerif-72" x="602.599854"/>
      <use xlink:href="#FreeSerif-61" x="637.099838"/>
      <use xlink:href="#FreeSerif-74" x="679.599823"/>
      <use xlink:href="#FreeSerif-75" x="707.899811"/>
      <use xlink:href="#FreeSerif-72" x="756.899796"/>
      <use xlink:href="#FreeSerif-65" x="790.39978"/>
      <use xlink:href="#FreeSerif-20" x="834.799774"/>
      <use xlink:href="#FreeSerif-28" x="859.799759"/>
      <use xlink:href="#FreeSerif-4b" x="893.099747"/>
      <use xlink:href="#FreeSerif-29" x="963.999741"/>
     </g>
    </g>
   </g>
   <g id="matplotlib.axis_2">
    <g id="ytick_1">
     <g id="line2d_9">
      <defs>
       <path id="md1c297c998" d="M 0 0 
L -3.5 0 
" style="stroke: #000000; stroke-width: 0.8"/>
      </defs>
      <g>
       <use xlink:href="#md1c297c998" x="80.64" y="317.375968" style="stroke: #000000; stroke-width: 0.8"/>
      </g>
     </g>
     <g id="line2d_10">
      <defs>
       <path id="ma2e7752763" d="M 0 0 
L 3.5 0 
" style="stroke: #000000; stroke-width: 0.8"/>
      </defs>
      <g>
       <use xlink:href="#ma2e7752763" x="495.36" y="317.375968" style="stroke: #000000; stroke-width: 0.8"/>
      </g>
     </g>
     <g id="text_6">
      <!-- $\mathdefault{10^{-2}}$ -->
      <g transform="translate(41.6 323.522686) scale(0.18 -0.18)">
       <defs>
        <path id="FreeSerif-2212" d="M 192 1408 
L 3418 1408 
L 3418 1830 
L 192 1830 
L 192 1408 
z
" transform="scale(0.015625)"/>
        <path id="FreeSerif-32" d="M 198 3053 
L 333 3021 
C 589 3648 819 3853 1261 3853 
C 1798 3853 2163 3488 2163 2950 
C 2163 2451 1869 1856 1331 1286 
L 192 77 
L 192 0 
L 2688 0 
L 3040 877 
L 2957 909 
C 2720 544 2637 486 2349 486 
L 819 486 
L 1894 1613 
C 2464 2208 2714 2694 2714 3194 
C 2714 3834 2195 4326 1530 4326 
C 499 4326 269 3354 198 3053 
z
" transform="scale(0.015625)"/>
       </defs>
       <use xlink:href="#FreeSerif-31" transform="translate(0 0.184375)"/>
       <use xlink:href="#FreeSerif-30" transform="translate(49.999985 0.184375)"/>
       <use xlink:href="#FreeSerif-2212" transform="translate(100.787469 31.684375) scale(0.7)"/>
       <use xlink:href="#FreeSerif-32" transform="translate(140.267465 31.684375) scale(0.7)"/>
      </g>
     </g>
    </g>
    <g id="ytick_2">
     <g id="line2d_11">
      <g>
       <use xlink:href="#md1c297c998" x="80.64" y="237.53325" style="stroke: #000000; stroke-width: 0.8"/>
      </g>
     </g>
     <g id="line2d_12">
      <g>
       <use xlink:href="#ma2e7752763" x="495.36" y="237.53325" style="stroke: #000000; stroke-width: 0.8"/>
      </g>
     </g>
     <g id="text_7">
      <!-- $\mathdefault{10^{0}}$ -->
      <g transform="translate(48.62 243.679969) scale(0.18 -0.18)">
       <use xlink:href="#FreeSerif-31" transform="translate(0 0.184375)"/>
       <use xlink:href="#FreeSerif-30" transform="translate(49.999985 0.184375)"/>
       <use xlink:href="#FreeSerif-30" transform="translate(100.787469 31.684375) scale(0.7)"/>
      </g>
     </g>
    </g>
    <g id="ytick_3">
     <g id="line2d_13">
      <g>
       <use xlink:href="#md1c297c998" x="80.64" y="157.690533" style="stroke: #000000; stroke-width: 0.8"/>
      </g>
     </g>
     <g id="line2d_14">
      <g>
       <use xlink:href="#ma2e7752763" x="495.36" y="157.690533" style="stroke: #000000; stroke-width: 0.8"/>
      </g>
     </g>
     <g id="text_8">
      <!-- $\mathdefault{10^{2}}$ -->
      <g transform="translate(48.62 163.837252) scale(0.18 -0.18)">
       <use xlink:href="#FreeSerif-31" transform="translate(0 0.184375)"/>
       <use xlink:href="#FreeSerif-30" transform="translate(49.999985 0.184375)"/>
       <use xlink:href="#FreeSerif-32" transform="translate(100.787469 31.684375) scale(0.7)"/>
      </g>
     </g>
    </g>
    <g id="ytick_4">
     <g id="line2d_15">
      <g>
       <use xlink:href="#md1c297c998" x="80.64" y="77.847816" style="stroke: #000000; stroke-width: 0.8"/>
      </g>
     </g>
     <g id="line2d_16">
      <g>
       <use xlink:href="#ma2e7752763" x="495.36" y="77.847816" style="stroke: #000000; stroke-width: 0.8"/>
      </g>
     </g>
     <g id="text_9">
      <!-- $\mathdefault{10^{4}}$ -->
      <g transform="translate(48.62 83.994535) scale(0.18 -0.18)">
       <use xlink:href="#FreeSerif-31" transform="translate(0 0.184375)"/>
       <use xlink:href="#FreeSerif-30" transform="translate(49.999985 0.184375)"/>
       <use xlink:href="#FreeSerif-34" transform="translate(100.787469 31.684375) scale(0.7)"/>
      </g>
     </g>
    </g>
    <g id="text_10">
     <!-- luminosity (solar units) -->
     <g transform="translate(33.676563 297.520312) rotate(-90) scale(0.18 -0.18)">
      <defs>
       <path id="FreeSerif-6c" d="M 64 3987 
C 147 3994 218 4000 301 4000 
C 506 4000 570 3910 570 3610 
L 570 557 
C 570 211 480 128 77 96 
L 77 0 
L 1587 0 
L 1587 96 
C 1184 122 1107 186 1107 538 
L 1107 4358 
L 1082 4371 
C 749 4262 506 4198 64 4090 
L 64 3987 
z
" transform="scale(0.015625)"/>
       <path id="FreeSerif-6e" d="M 64 2547 
C 102 2566 166 2573 237 2573 
C 416 2573 474 2477 474 2163 
L 474 576 
C 474 211 403 122 77 96 
L 77 0 
L 1434 0 
L 1434 96 
C 1107 122 1011 198 1011 429 
L 1011 2227 
C 1318 2515 1459 2592 1670 2592 
C 1984 2592 2138 2394 2138 1971 
L 2138 634 
C 2138 230 2054 122 1734 96 
L 1734 0 
L 3066 0 
L 3066 96 
C 2752 128 2675 205 2675 518 
L 2675 1984 
C 2675 2586 2394 2944 1920 2944 
C 1626 2944 1427 2835 992 2426 
L 992 2931 
L 947 2944 
C 634 2829 416 2758 64 2656 
L 64 2547 
z
" transform="scale(0.015625)"/>
       <path id="FreeSerif-6f" d="M 1574 2944 
C 742 2944 160 2330 160 1446 
C 160 582 755 -64 1562 -64 
C 2368 -64 2982 614 2982 1498 
C 2982 2336 2394 2944 1574 2944 
z
M 736 1760 
C 736 2368 1037 2765 1491 2765 
C 2029 2765 2406 2150 2406 1274 
C 2406 550 2118 115 1638 115 
C 1088 115 736 870 736 1760 
z
" transform="scale(0.015625)"/>
       <path id="FreeSerif-73" d="M 1715 2816 
C 1574 2816 1466 2938 1094 2938 
C 589 2938 224 2611 224 2150 
C 224 1792 429 1536 973 1229 
L 1344 1018 
C 1568 890 1677 736 1677 538 
C 1677 256 1472 77 1146 77 
C 493 77 390 717 333 973 
L 230 973 
L 230 -26 
L 314 -26 
C 358 38 384 51 461 51 
C 621 51 934 -64 1222 -64 
C 1715 -64 2125 307 2125 755 
C 2125 1075 1971 1286 1587 1517 
L 896 1926 
C 717 2029 621 2189 621 2362 
C 621 2618 819 2797 1114 2797 
C 1478 2797 1670 2579 1818 2010 
L 1914 2010 
L 1888 2880 
L 1818 2880 
C 1779 2854 1754 2816 1715 2816 
z
" transform="scale(0.015625)"/>
       <path id="FreeSerif-79" d="M 909 -858 
C 800 -858 653 -742 410 -742 
C 262 -742 134 -870 134 -1024 
C 134 -1235 339 -1395 608 -1395 
C 1037 -1395 1344 -1037 1690 -115 
L 2675 2496 
C 2752 2701 2829 2765 2982 2784 
L 2982 2880 
L 2118 2880 
L 2118 2784 
C 2323 2784 2426 2726 2426 2624 
C 2426 2598 2419 2560 2400 2515 
L 1779 749 
L 1043 2368 
C 1005 2458 979 2541 979 2611 
C 979 2726 1075 2771 1350 2784 
L 1350 2880 
L 32 2880 
L 32 2790 
C 198 2765 307 2694 358 2586 
L 1203 768 
C 1370 442 1485 218 1485 122 
C 1485 -70 1171 -858 909 -858 
z
" transform="scale(0.015625)"/>
      </defs>
      <use xlink:href="#FreeSerif-6c"/>
      <use xlink:href="#FreeSerif-75" x="24.799988"/>
      <use xlink:href="#FreeSerif-6d" x="73.799973"/>
      <use xlink:href="#FreeSerif-69" x="151.699966"/>
      <use xlink:href="#FreeSerif-6e" x="178.499954"/>
      <use xlink:href="#FreeSerif-6f" x="226.399948"/>
      <use xlink:href="#FreeSerif-73" x="275.499939"/>
      <use xlink:href="#FreeSerif-69" x="310.699936"/>
      <use xlink:href="#FreeSerif-74" x="336.499924"/>
      <use xlink:href="#FreeSerif-79" x="364.799911"/>
      <use xlink:href="#FreeSerif-20" x="411.899902"/>
      <use xlink:href="#FreeSerif-28" x="436.899887"/>
      <use xlink:href="#FreeSerif-73" x="470.199875"/>
      <use xlink:href="#FreeSerif-6f" x="506.899872"/>
      <use xlink:href="#FreeSerif-6c" x="554.999863"/>
      <use xlink:href="#FreeSerif-61" x="580.79985"/>
      <use xlink:href="#FreeSerif-72" x="624.299835"/>
      <use xlink:href="#FreeSerif-20" x="658.79982"/>
      <use xlink:href="#FreeSerif-75" x="683.799805"/>
      <use xlink:href="#FreeSerif-6e" x="732.799789"/>
      <use xlink:href="#FreeSerif-69" x="781.699783"/>
      <use xlink:href="#FreeSerif-74" x="807.499771"/>
      <use xlink:href="#FreeSerif-73" x="835.799759"/>
      <use xlink:href="#FreeSerif-29" x="872.499756"/>
     </g>
    </g>
   </g>
   <g id="line2d_17">
    <path d="M 475.050158 356.623883 
L 467.993131 346.897787 
L 462.78403 339.857946 
L 458.06276 331.197474 
L 455.751291 327.442766 
L 452.453257 322.415799 
L 447.761607 316.389442 
L 446.669425 315.34314 
L 445.40939 314.467099 
L 442.232488 310.216564 
L 440.507338 309.116324 
L 441.676638 309.37027 
L 441.284047 308.476216 
L 434.988541 301.473963 
L 436.178537 302.322704 
L 425.141552 290.426873 
L 425.370332 290.047873 
L 424.271058 289.444673 
L 424.478165 289.327157 
L 424.390354 289.15207 
L 423.723243 288.521446 
L 423.567401 288.338422 
L 416.909006 283.105241 
L 414.997404 281.846004 
L 404.878737 276.109912 
L 396.079545 271.342762 
L 391.527057 269.135947 
L 379.427159 263.650431 
L 367.095631 258.339628 
L 354.560778 253.19716 
L 345.118915 249.351318 
L 319.954373 237.802028 
L 295.820517 226.135169 
L 287.335244 222.227194 
L 277.446767 217.951484 
L 271.825032 215.713073 
L 263.785729 212.794809 
L 258.192489 210.980588 
L 251.324299 208.994648 
L 247.983518 208.103215 
L 206.660478 197.684691 
L 193.641013 194.043178 
L 176.140826 188.723493 
L 167.739425 185.920203 
L 157.71182 182.210941 
L 153.635699 180.456801 
L 152.373682 179.795261 
L 149.806274 178.605919 
L 147.274244 177.009026 
L 145.16497 175.428263 
L 144.054893 174.449863 
L 143.39198 173.618897 
L 142.919387 172.44293 
L 142.923101 171.644474 
L 143.394325 170.327713 
L 143.538256 169.900362 
L 143.869622 169.453553 
L 145.137247 168.570634 
L 145.558184 168.222418 
L 146.917385 167.544064 
L 148.679229 166.886602 
L 152.002294 165.951136 
L 157.181235 164.797578 
L 162.764969 163.767267 
L 167.339375 163.100546 
L 180.832091 161.253766 
L 182.103855 160.992583 
L 183.024646 160.684145 
L 183.032187 160.30619 
L 181.663995 159.931741 
L 177.286813 159.403242 
L 167.610405 158.65992 
L 125.864208 155.816336 
L 116.084421 155.098292 
L 116.123559 155.1685 
L 117.690254 155.475191 
L 122.674309 156.179325 
L 126.869585 156.6214 
L 131.607292 156.940325 
L 136.694442 157.021436 
L 141.552529 156.814477 
L 157.353409 155.734751 
L 166.807673 155.423363 
L 180.959592 155.218641 
L 198.799149 155.220961 
L 219.161519 155.442816 
L 241.664815 155.905824 
L 265.7693 156.643603 
L 288.454368 157.578333 
L 302.702784 158.337464 
L 313.873389 159.141275 
L 320.057869 159.784672 
L 325.688476 160.595111 
L 330.79777 161.542261 
L 335.359005 162.615226 
L 339.435037 163.784461 
L 345.552143 165.845297 
L 350.426234 167.467237 
L 353.185954 168.178496 
L 354.753461 168.459062 
L 356.480775 168.634335 
L 358.289404 168.648312 
L 359.985182 168.483966 
L 361.466671 168.196769 
L 363.856415 167.432552 
L 365.786285 166.562358 
L 368.205623 165.185285 
L 370.952746 163.307594 
L 374.01047 160.946844 
L 377.364816 158.089649 
L 383.681267 152.318074 
L 394.734369 141.649389 
L 401.920723 135.006806 
L 395.856672 140.457091 
L 389.930098 145.756144 
L 374.619922 159.464388 
L 372.394469 161.184568 
L 369.375909 163.121779 
L 368.314189 163.676077 
L 367.005404 164.159034 
L 365.971479 164.231842 
L 367.801049 161.541596 
L 367.683287 161.551201 
L 366.262641 161.842174 
L 366.23088 161.696911 
L 366.911325 158.60416 
L 367.026855 158.491557 
L 366.546317 158.142303 
L 366.867169 157.526661 
L 366.89782 156.804566 
L 367.479848 155.598134 
L 368.614927 154.508618 
L 371.558173 153.301856 
L 372.383514 152.990186 
L 372.754107 152.711783 
L 374.736969 152.032337 
L 377.415857 150.674157 
L 380.456681 148.773734 
L 384.023656 146.166856 
L 389.271265 141.837138 
L 386.70932 143.896628 
L 394.494054 137.335202 
L 440.681917 97.319865 
L 455.980556 83.578893 
L 449.844649 89.273556 
L 447.099514 91.775295 
L 455.989579 83.664841 
L 457.461795 82.32308 
L 449.11177 90.007941 
L 456.107679 83.681506 
L 447.859971 91.284482 
L 448.078478 91.092699 
L 459.853562 80.313395 
L 456.404027 83.56254 
L 451.437729 88.1261 
L 457.704429 82.434168 
L 457.362136 82.873242 
L 449.287013 90.324675 
L 448.744206 90.822796 
L 459.138156 81.393838 
L 459.310951 81.371557 
L 458.718535 82.007912 
L 456.636844 83.799199 
L 456.486173 83.959314 
L 456.516735 84.019818 
L 455.810677 84.701268 
L 455.794804 84.671982 
L 455.860083 84.574255 
L 455.875888 84.577942 
L 456.013349 84.551206 
L 455.882891 84.862522 
L 452.427438 88.025167 
L 457.253775 83.715558 
L 457.370922 83.678991 
L 461.76981 79.760821 
L 461.525633 79.914485 
L 461.556143 79.949096 
L 460.883614 80.656906 
L 454.195734 86.788595 
L 454.301676 86.695236 
L 454.396672 86.655712 
L 457.607385 84.034631 
L 457.558988 84.086339 
L 457.565786 84.119496 
L 457.491786 84.317348 
L 455.376659 86.280683 
L 464.869643 77.584818 
L 466.986158 75.822648 
L 466.539271 76.307768 
L 460.739362 81.645988 
L 452.644037 89.175629 
L 459.83475 82.576476 
L 461.084068 81.525513 
L 462.318255 80.648587 
L 462.475053 80.85654 
L 456.908533 86.031267 
L 454.799186 87.948368 
L 461.286264 81.885424 
L 465.999625 77.629987 
L 468.893735 75.249136 
L 469.132972 75.243125 
L 467.144764 77.105337 
L 457.560989 85.878196 
L 459.433765 84.212713 
L 461.232982 82.86042 
L 461.235304 82.889931 
L 461.247608 82.959974 
L 461.397921 83.007495 
L 461.280179 83.334328 
L 462.005431 82.990096 
L 461.795137 83.1503 
L 465.14701 80.191443 
L 466.705076 79.073634 
L 467.296486 79.110824 
L 465.665019 80.619995 
L 465.210234 80.7309 
L 465.224857 80.837521 
L 463.423837 82.799771 
L 459.894594 86.027057 
L 464.569548 81.880187 
L 467.558642 79.599307 
L 470.135997 77.865491 
L 471.324533 77.228949 
L 471.307122 77.477368 
L 463.196361 84.473687 
L 470.295217 78.475889 
L 471.600926 77.457688 
L 473.893303 76.027084 
L 474.660063 75.651814 
L 475.111737 75.607186 
L 471.681442 78.597461 
L 465.772008 83.520059 
L 465.638176 83.63297 
L 467.362347 82.18155 
L 471.179213 79.086675 
L 473.571486 77.469211 
L 473.517877 77.775469 
L 473.048174 78.878188 
L 472.846424 79.773877 
L 472.763783 80.799935 
L 472.148972 81.66391 
L 469.774568 83.754572 
L 468.890011 84.126801 
L 470.815527 82.76342 
L 472.809982 81.568482 
L 474.60191 80.739542 
L 475.145072 80.734688 
L 475.640195 80.429637 
L 476.864418 79.402993 
L 477.275369 78.835584 
L 477.347232 78.275487 
L 478.388394 76.833065 
L 478.708488 76.184539 
L 479.271183 75.464854 
L 480.900329 75.233015 
L 482.674652 74.618182 
L 483.281042 74.826562 
L 483.082602 75.125929 
L 483.107554 75.301886 
L 482.865698 75.72171 
L 477.851453 79.769603 
L 471.771848 84.646008 
L 472.073396 84.611366 
L 472.703948 84.215248 
L 475.489663 82.255229 
L 477.036452 81.349966 
L 478.642521 80.560724 
L 480.414085 79.891253 
L 482.131709 79.387841 
L 483.998369 79.010128 
L 485.856671 78.834212 
L 488.442275 78.734892 
L 483.197171 78.868655 
L 331.031412 78.981558 
L 280.304063 79.006281 
L -1 79.153903 
L -1 79.153903 
" clip-path="url(#p4c0937d436)" style="fill: none; stroke: #1f77b4; stroke-width: 1.5; stroke-linecap: square"/>
   </g>
   <g id="line2d_18">
    <path d="M 475.366041 357.381818 
L 468.919005 348.261783 
L 462.487181 339.329817 
L 458.040274 331.176446 
L 455.178232 326.563787 
L 452.562566 322.560149 
L 447.573936 316.125324 
L 446.403928 314.827361 
L 442.728405 310.215235 
L 442.125891 309.857085 
L 442.699294 309.931893 
L 442.618432 309.736635 
L 442.016229 309.129105 
L 441.741938 308.788953 
L 441.669854 308.494241 
L 440.372295 306.844513 
L 425.502976 290.152169 
L 424.991561 289.774317 
L 425.153411 289.687259 
L 424.458569 289.423269 
L 424.913253 289.419808 
L 424.202848 288.934626 
L 424.315346 288.85831 
L 423.816423 288.350806 
L 418.924378 284.418966 
L 417.001129 282.91023 
L 413.733045 280.890382 
L 403.347875 275.072238 
L 394.277703 270.258386 
L 382.955043 265.066886 
L 371.465403 260.037634 
L 359.750601 255.131117 
L 343.766073 248.571405 
L 321.050893 238.010009 
L 310.489349 232.739074 
L 287.755389 221.40746 
L 277.681834 216.660089 
L 267.419995 212.15549 
L 257.710183 208.190434 
L 243.626779 202.613152 
L 237.000266 199.694042 
L 233.511012 197.923973 
L 230.684119 196.273437 
L 228.288957 194.595928 
L 227.351144 193.796309 
L 226.466725 192.885426 
L 225.487425 191.509214 
L 225.222362 190.745318 
L 225.19008 190.037702 
L 225.351317 189.195413 
L 225.444169 188.847345 
L 225.889911 188.158208 
L 226.862083 187.327073 
L 227.928382 186.61358 
L 229.849123 185.530112 
L 231.666479 184.867326 
L 234.759497 184.012003 
L 240.581706 182.663494 
L 253.392601 180.471245 
L 254.455103 180.203553 
L 255.17949 179.880327 
L 255.048595 179.478799 
L 253.827861 179.095573 
L 250.24032 178.532968 
L 242.27221 177.729875 
L 204.16672 174.279743 
L 198.359595 173.748322 
L 198.465802 173.82536 
L 199.900786 174.157155 
L 204.167958 174.869181 
L 207.765526 175.276429 
L 211.840536 175.490228 
L 215.953779 175.387798 
L 230.967983 174.288893 
L 240.716796 174.040525 
L 252.724141 173.975931 
L 268.837396 174.106325 
L 284.607991 174.441482 
L 297.529581 174.938286 
L 305.555938 175.458344 
L 313.004417 176.18155 
L 318.185098 176.866878 
L 322.958343 177.681115 
L 327.318371 178.612423 
L 332.550127 179.998161 
L 337.27671 181.490671 
L 347.463301 184.875736 
L 350.101361 185.497828 
L 353.1279 185.899432 
L 354.757511 185.931774 
L 356.311188 185.81142 
L 357.68318 185.567527 
L 359.864438 184.87675 
L 361.555385 184.068883 
L 363.576941 182.771649 
L 365.809785 180.979028 
L 368.202694 178.688514 
L 372.604891 174.037177 
L 384.308758 161.319502 
L 395.551724 149.965544 
L 401.233533 144.40499 
L 397.120669 148.259531 
L 382.257171 162.585167 
L 368.56924 176.416104 
L 369.747772 175.188767 
L 368.861191 175.958105 
L 368.951529 175.652649 
L 368.553057 175.486703 
L 368.075953 174.913847 
L 367.791407 174.214589 
L 367.563134 173.147236 
L 367.415307 171.777343 
L 367.495685 170.610423 
L 367.482008 170.233998 
L 367.452397 169.217106 
L 367.7682 168.433158 
L 367.949995 167.989079 
L 367.94721 167.782963 
L 368.521385 167.007043 
L 369.498423 166.152515 
L 370.710823 165.197326 
L 372.53463 163.964923 
L 374.427489 162.590361 
L 377.756771 160.071392 
L 382.579331 156.038347 
L 386.832618 152.27042 
L 391.740942 147.829651 
L 386.951366 152.044453 
L 386.819942 152.096026 
L 389.863824 149.300034 
L 396.582882 143.259363 
L 406.169373 134.674174 
L 417.080582 125.044827 
L 425.70795 117.477175 
L 438.234081 106.435915 
L 451.57265 94.505276 
L 428.76227 114.767294 
L 449.216424 96.734873 
L 449.344568 96.717695 
L 449.988326 96.155223 
L 449.84481 96.170587 
L 449.61048 96.258374 
L 445.921768 99.633348 
L 439.17926 105.632986 
L 454.564297 91.887168 
L 448.319722 97.558721 
L 448.399012 97.561447 
L 453.285249 93.161625 
L 453.076668 93.163825 
L 449.531388 96.461343 
L 440.041004 104.999057 
L 457.980583 88.86138 
L 447.740197 98.220077 
L 456.459339 90.386454 
L 456.458035 90.206199 
L 447.686757 98.288609 
L 443.713763 101.869268 
L 460.563477 86.622963 
L 447.078593 98.965476 
L 447.064851 99.005778 
L 459.989143 87.238295 
L 452.127657 94.516456 
L 446.41892 99.817034 
L 462.334808 85.41316 
L 461.790835 86.029918 
L 451.426087 95.428456 
L 451.735235 95.164591 
L 451.866484 95.107141 
L 459.24567 88.474221 
L 458.87039 88.65101 
L 457.468498 90.0506 
L 445.763775 100.756025 
L 461.61888 86.396666 
L 461.848872 86.312803 
L 461.881075 86.420036 
L 460.729636 87.563938 
L 455.363137 92.303294 
L 456.011478 91.810474 
L 456.240026 91.748917 
L 458.47194 89.841246 
L 458.724864 89.473987 
L 458.169246 89.674056 
L 458.080757 89.7628 
L 458.120436 89.897653 
L 453.726402 94.015656 
L 448.646357 98.622281 
L 459.287378 88.92933 
L 460.971286 87.626519 
L 460.939181 87.741981 
L 461.063472 88.01195 
L 459.545201 89.362657 
L 459.471345 89.102145 
L 459.606579 88.882546 
L 459.909961 88.693919 
L 460.440486 88.551157 
L 460.046113 89.106562 
L 457.959115 90.662707 
L 457.426333 90.931379 
L 456.369772 92.337731 
L 452.935748 95.437326 
L 457.958336 90.865618 
L 460.294616 89.021121 
L 460.098947 89.266212 
L 460.111361 89.552401 
L 464.17393 86.03915 
L 464.069769 85.7277 
L 464.271463 85.481571 
L 464.774231 85.298618 
L 465.167695 85.239843 
L 458.037306 91.452901 
L 456.978421 92.231721 
L 456.978491 92.385706 
L 457.333782 92.530087 
L 457.872952 91.872037 
L 458.118117 91.764828 
L 460.216937 90.350927 
L 459.732106 90.736656 
L 459.678058 90.886201 
L 469.062061 82.740897 
L 469.170348 82.43377 
L 469.751126 82.240889 
L 469.166744 82.93996 
L 461.639289 89.35471 
L 457.196938 93.295703 
L 458.906098 91.835519 
L 461.519117 89.799195 
L 463.467106 88.645519 
L 463.323911 89.50394 
L 460.442743 91.987429 
L 460.044636 92.2656 
L 459.924808 92.42054 
L 466.789819 86.394576 
L 471.923018 82.169632 
L 475.562254 79.405232 
L 474.799577 80.167973 
L 469.589231 84.349336 
L 462.117424 90.778963 
L 458.213386 94.261567 
L 462.622935 90.363989 
L 465.200519 88.259574 
L 468.011313 86.428818 
L 469.987179 85.583009 
L 470.486871 85.610285 
L 471.245167 86.291959 
L 469.073357 88.27266 
L 461.713342 94.353542 
L 466.606097 90.031976 
L 471.75751 85.805517 
L 477.198175 81.702217 
L 483.848669 76.997669 
L 484.118055 76.873116 
L 481.987874 78.664274 
L 471.447264 86.919241 
L 466.327848 91.15467 
L 462.176648 94.742917 
L 467.417678 90.265097 
L 470.104542 88.180309 
L 473.08218 86.214556 
L 476.678083 84.66383 
L 480.985546 83.87708 
L 485.619515 83.747627 
L 476.761248 83.952593 
L 397.10561 84.13979 
L 48.429471 84.600005 
L -1 84.586419 
L -1 84.586419 
" clip-path="url(#p4c0937d436)" style="fill: none; stroke: #ff7f0e; stroke-width: 1.5; stroke-linecap: square"/>
   </g>
   <g id="line2d_19">
    <path d="M 475.290559 357.293989 
L 469.292043 348.798966 
L 463.150288 340.382886 
L 461.893194 338.274536 
L 457.016447 329.452391 
L 452.263383 322.061971 
L 447.388223 315.578201 
L 445.77347 313.749481 
L 445.362323 313.434349 
L 444.39428 312.060401 
L 443.355604 311.279191 
L 430.398933 294.375093 
L 429.116365 293.859533 
L 427.917624 293.552583 
L 422.008742 293.416161 
L 426.003906 290.236891 
L 425.405237 289.912675 
L 425.097267 289.74385 
L 425.168329 289.669553 
L 425.099737 289.550752 
L 425.313007 289.503638 
L 424.466514 289.029273 
L 424.584819 288.96417 
L 424.544431 288.756229 
L 423.946147 288.191929 
L 417.600264 283.174462 
L 416.065652 282.002611 
L 410.892746 279.0284 
L 402.1307 274.212529 
L 394.763751 270.335093 
L 388.717149 267.465738 
L 375.694668 261.598296 
L 362.514512 255.919967 
L 347.168806 249.568038 
L 342.896517 247.75122 
L 323.950164 238.539353 
L 315.151086 233.807366 
L 307.423001 229.414879 
L 300.75861 225.410751 
L 297.205342 223.140545 
L 294.245221 221.085016 
L 290.567792 218.115866 
L 289.404853 216.855931 
L 289.057773 216.422074 
L 287.774261 214.194162 
L 287.593096 213.382402 
L 287.567148 212.511523 
L 287.726096 211.762522 
L 288.217205 210.71443 
L 288.732243 209.999345 
L 291.057838 208.12687 
L 292.823338 207.096574 
L 295.027336 206.069974 
L 297.920336 204.717456 
L 298.568593 204.120076 
L 298.592387 203.801017 
L 298.374103 203.48221 
L 297.92577 203.1793 
L 296.548277 202.630168 
L 294.055276 201.916123 
L 287.818211 200.439696 
L 278.57751 198.211301 
L 277.401189 197.922972 
L 279.947367 198.523898 
L 281.60296 198.581786 
L 283.973547 198.269107 
L 287.063044 197.901138 
L 298.788816 197.047134 
L 303.876747 196.945242 
L 309.192143 197.062019 
L 314.574141 197.395142 
L 319.872477 197.935932 
L 324.948088 198.674565 
L 329.771989 199.577365 
L 336.57293 201.140253 
L 347.511791 203.820927 
L 349.817562 204.261672 
L 352.212376 204.605905 
L 354.68466 204.787296 
L 357.089186 204.713787 
L 359.182969 204.362817 
L 360.854879 203.807636 
L 362.172874 203.133139 
L 363.226899 202.399195 
L 364.880456 200.835913 
L 366.175892 199.203051 
L 367.822614 196.690307 
L 373.070321 188.117727 
L 377.239555 182.047238 
L 381.136937 176.871042 
L 385.255291 171.724802 
L 389.514374 166.672635 
L 388.977584 167.144661 
L 388.559671 167.504554 
L 391.484562 164.150407 
L 400.097229 154.873606 
L 408.25329 146.515343 
L 417.549692 137.411321 
L 427.011497 128.396841 
L 453.425894 103.399371 
L 434.356017 120.501343 
L 387.620368 161.612892 
L 382.848627 166.908173 
L 387.275209 163.410157 
L 392.653157 158.213254 
L 394.882906 155.875446 
L 389.270522 160.678332 
L 384.230441 165.548478 
L 387.386238 162.570679 
L 381.69456 166.919109 
L 382.087498 167.040557 
L 379.504295 169.151339 
L 382.652467 165.95221 
L 382.344917 166.748614 
L 380.280676 168.214173 
L 380.673851 167.876936 
L 380.673226 167.717491 
L 379.743065 167.829889 
L 380.255189 167.25761 
L 379.967603 167.134541 
L 379.345944 166.931188 
L 379.685642 166.52694 
L 380.729426 165.64786 
L 389.844071 158.359872 
L 398.255426 151.144344 
L 397.727441 151.564665 
L 419.297814 132.646321 
L 435.57663 118.359949 
L 449.181961 106.194198 
L 442.90339 111.86181 
L 442.964089 111.863988 
L 458.682126 97.916922 
L 456.472509 99.65345 
L 454.856353 101.154236 
L 454.594645 101.413674 
L 455.347668 100.74421 
L 462.442452 94.343307 
L 452.335745 103.52638 
L 451.134422 104.946032 
L 452.524955 103.752987 
L 454.094664 101.924034 
L 455.038989 101.043769 
L 449.602626 106.010318 
L 448.408276 107.156791 
L 448.333631 107.253204 
L 454.605615 101.625894 
L 456.577996 100.029911 
L 462.487676 94.975564 
L 461.718547 95.427802 
L 459.662115 96.92815 
L 460.768056 95.93408 
L 462.385797 94.516901 
L 461.08113 95.777273 
L 460.575368 96.400822 
L 450.915714 105.006186 
L 449.203234 106.485774 
L 453.992839 102.144863 
L 458.922429 97.743175 
L 459.860208 97.152319 
L 459.826703 97.304353 
L 458.124758 98.886022 
L 450.801741 105.44918 
L 468.466646 89.72408 
L 469.527993 89.050698 
L 469.929259 88.838929 
L 469.929344 88.953104 
L 467.9925 90.467684 
L 463.06705 94.586811 
L 458.006955 99.083965 
L 451.600001 104.846176 
L 459.59768 97.77486 
L 458.44706 98.838546 
L 449.4958 106.995417 
L 462.404849 95.378098 
L 466.91763 91.536987 
L 470.679766 88.48483 
L 464.45495 93.64678 
L 456.854733 100.391103 
L 452.259429 104.586068 
L 460.855897 96.789762 
L 463.988419 94.218337 
L 465.252687 93.439946 
L 465.261507 93.595409 
L 464.579075 94.324848 
L 455.809097 102.112636 
L 452.216167 105.398959 
L 464.667921 94.174862 
L 469.208895 90.439109 
L 474.120967 86.733455 
L 476.498634 85.043873 
L 472.276662 88.195235 
L 467.576966 91.92048 
L 461.946704 96.834981 
L 453.594161 104.31287 
L 463.640541 95.379743 
L 465.941434 93.585223 
L 468.013775 92.262123 
L 468.886076 91.995118 
L 468.763815 92.460561 
L 462.016723 98.157942 
L 453.791388 105.605938 
L 466.55578 94.236309 
L 470.303614 91.202436 
L 474.166772 88.273739 
L 479.457695 84.503456 
L 481.388606 83.231827 
L 479.363121 84.783035 
L 469.656931 92.058502 
L 463.702873 97.057592 
L 456.570645 103.412583 
L 465.329544 95.707795 
L 467.841427 93.742588 
L 470.602436 91.896557 
L 471.816406 91.224588 
L 473.23446 90.621214 
L 474.835906 90.213977 
L 476.015105 90.369518 
L 475.530747 91.167203 
L 463.69285 100.615537 
L 457.944747 105.714609 
L 457.195736 106.425509 
L 460.530563 103.383959 
L 466.217173 98.408958 
L 471.123157 94.457923 
L 475.072017 91.513557 
L 489.007838 81.501493 
L 488.474589 82.085289 
L 486.231655 83.971311 
L 474.786839 92.620422 
L 469.582201 96.649269 
L 463.369253 101.815447 
L 461.603466 103.304448 
L 467.56486 98.310067 
L 471.518992 95.297819 
L 474.386607 93.379605 
L 475.922603 92.473259 
L 477.584158 91.637738 
L 481.108573 90.30913 
L 481.113389 89.936934 
L 479.510392 89.82847 
L 417.014658 89.866776 
L 389.441484 89.862611 
L 383.876073 89.407928 
L 382.763776 89.740805 
L 376.901966 89.465567 
L 371.311106 89.881975 
L 358.511352 89.859616 
L 352.094871 89.552432 
L 349.056395 89.831971 
L 337.634356 89.924948 
L 186.434888 90.06806 
L 78.631714 90.129748 
L -1 90.136362 
L -1 90.136362 
" clip-path="url(#p4c0937d436)" style="fill: none; stroke: #2ca02c; stroke-width: 1.5; stroke-linecap: square"/>
   </g>
   <g id="line2d_20">
    <path d="M 475.27567 357.31864 
L 469.455299 349.098875 
L 463.153938 340.542734 
L 461.957847 338.552573 
L 456.812724 328.873055 
L 451.967529 320.945222 
L 447.543809 314.788472 
L 445.662739 312.607135 
L 444.77036 311.983162 
L 444.679366 311.783955 
L 444.769417 311.640654 
L 443.423418 310.406769 
L 439.079622 305.993213 
L 438.058966 305.516955 
L 439.339202 305.787719 
L 439.258412 305.703906 
L 426.461631 290.666904 
L 426.835934 290.666588 
L 426.60223 290.523068 
L 425.857244 290.157821 
L 426.182826 290.132969 
L 426.087735 289.883814 
L 424.923838 289.245178 
L 425.183955 289.039539 
L 424.240069 288.506802 
L 424.160333 288.318553 
L 423.572323 287.992986 
L 423.839433 287.836565 
L 423.12559 287.477248 
L 423.042287 287.237945 
L 422.430024 286.578966 
L 415.720822 281.460036 
L 414.334702 280.4326 
L 410.792109 278.397567 
L 401.261633 273.267082 
L 390.930799 268.004065 
L 380.59191 263.006883 
L 351.601842 249.049787 
L 343.412109 244.81249 
L 337.886671 241.714265 
L 334.563233 239.686574 
L 332.168889 237.770278 
L 330.108488 235.880761 
L 328.726369 234.345833 
L 327.417127 232.546544 
L 326.455872 230.778827 
L 326.069189 229.622921 
L 325.919909 228.499232 
L 326.035263 227.420067 
L 326.448371 226.39018 
L 327.162568 225.42874 
L 328.153306 224.562247 
L 329.417436 223.822964 
L 330.520993 223.351867 
L 331.9264 222.882536 
L 335.205665 222.142267 
L 338.995063 221.690167 
L 343.168139 221.495159 
L 349.985325 221.507137 
L 357.138228 221.491792 
L 359.509588 221.371593 
L 361.78261 221.139478 
L 363.88413 220.771085 
L 365.740801 220.261734 
L 367.28227 219.624158 
L 368.543605 218.893652 
L 369.563804 218.098719 
L 370.39706 217.256276 
L 371.662962 215.493744 
L 372.608515 213.673833 
L 373.741064 210.890463 
L 376.607387 203.354235 
L 378.287431 199.570033 
L 380.69428 194.843711 
L 382.871491 191.07126 
L 386.466204 185.430172 
L 390.396386 179.818644 
L 391.057098 178.891279 
L 391.085676 178.61031 
L 389.593139 180.174011 
L 392.426834 176.442241 
L 396.947141 170.86095 
L 400.896741 166.229634 
L 407.482264 158.857897 
L 414.383328 151.536888 
L 422.447504 143.364271 
L 434.406145 131.687605 
L 457.38291 109.617258 
L 464.782461 102.730997 
L 464.636979 102.861014 
L 457.423702 109.133988 
L 441.803125 122.949743 
L 425.670627 136.913312 
L 400.859474 158.122816 
L 392.756801 165.284169 
L 389.616542 169.988039 
L 396.879451 163.306347 
L 411.654782 149.487595 
L 406.637113 153.679832 
L 398.438511 160.804838 
L 397.641073 161.95055 
L 403.306583 156.614825 
L 395.854539 162.794773 
L 392.843447 165.79293 
L 394.692539 163.601014 
L 387.183375 169.941257 
L 387.204003 169.102358 
L 388.530737 168.658373 
L 386.283439 170.343109 
L 385.451721 170.721038 
L 385.585427 170.656645 
L 386.063241 170.266793 
L 385.91223 170.151137 
L 384.507186 170.58024 
L 383.79155 170.683811 
L 383.804744 170.380528 
L 384.006715 170.110319 
L 386.594601 167.977572 
L 390.09865 165.308723 
L 387.876742 166.892669 
L 386.66397 167.809138 
L 391.079688 164.487031 
L 398.049277 159.01494 
L 408.30592 150.521962 
L 406.009663 152.381087 
L 423.617164 137.608233 
L 454.161124 111.083227 
L 454.066416 111.223011 
L 462.060247 104.254671 
L 464.846102 102.034746 
L 465.595741 101.497461 
L 465.221134 101.885033 
L 459.53729 106.693076 
L 445.327242 119.345121 
L 463.577002 103.194579 
L 468.318222 99.289577 
L 472.833387 95.82301 
L 477.593887 92.433315 
L 480.820236 90.217554 
L 475.790193 93.817586 
L 469.599133 98.410329 
L 462.182022 104.511283 
L 472.661157 96.063102 
L 476.402223 93.41875 
L 480.239165 90.834694 
L 477.725812 92.643391 
L 470.324254 97.958109 
L 473.12827 95.835123 
L 466.643609 100.917624 
L 461.687641 105.123815 
L 450.029135 115.338524 
L 462.626622 104.374095 
L 461.994682 105.003091 
L 466.352287 101.423865 
L 469.484179 99.116545 
L 471.183402 98.036545 
L 472.079795 97.577206 
L 472.003993 97.905945 
L 468.685463 100.537919 
L 462.858888 105.291774 
L 448.578683 117.850323 
L 448.465626 117.985949 
L 468.845109 100.317812 
L 473.945381 96.46296 
L 486.337254 87.734889 
L 485.650839 88.314866 
L 482.793212 90.587265 
L 470.099217 99.741112 
L 465.314698 103.628688 
L 457.885288 110.052381 
L 455.751614 111.869265 
L 466.10296 103.042046 
L 468.991898 100.867588 
L 470.219935 100.163601 
L 466.586579 103.115549 
L 461.861203 107.026703 
L 450.769278 116.756959 
L 446.673522 120.415687 
L 451.614715 116.139821 
L 459.407719 109.256897 
L 465.470483 104.04008 
L 471.344976 99.31748 
L 476.783615 95.317276 
L 482.974419 90.810703 
L 486.094244 88.352942 
L 484.192135 89.99822 
L 479.319909 93.739456 
L 471.13305 99.811846 
L 467.424074 102.745636 
L 460.253961 108.734447 
L 458.788045 109.968167 
L 465.737076 104.119501 
L 470.221814 100.597067 
L 474.157171 97.807029 
L 475.616003 96.75568 
L 476.036952 96.223798 
L 475.333477 95.839774 
L 472.493121 95.621507 
L 466.884878 95.56869 
L 444.562274 95.617441 
L -1 95.817435 
L -1 95.817435 
" clip-path="url(#p4c0937d436)" style="fill: none; stroke: #d62728; stroke-width: 1.5; stroke-linecap: square"/>
   </g>
   <g id="patch_3">
    <path d="M 80.64 371.52 
L 80.64 60.48 
" style="fill: none; stroke: #000000; stroke-width: 1.5; stroke-linejoin: miter; stroke-linecap: square"/>
   </g>
   <g id="patch_4">
    <path d="M 495.36 371.52 
L 495.36 60.48 
" style="fill: none; stroke: #000000; stroke-width: 1.5; stroke-linejoin: miter; stroke-linecap: square"/>
   </g>
   <g id="patch_5">
    <path d="M 80.64 371.52 
L 495.36 371.52 
" style="fill: none; stroke: #000000; stroke-width: 1.5; stroke-linejoin: miter; stroke-linecap: square"/>
   </g>
   <g id="patch_6">
    <path d="M 80.64 60.48 
L 495.36 60.48 
" style="fill: none; stroke: #000000; stroke-width: 1.5; stroke-linejoin: miter; stroke-linecap: square"/>
   </g>
   <g id="legend_1">
    <g id="patch_7">
     <path d="M 93.24 362.52 
L 182.34 362.52 
Q 185.94 362.52 185.94 358.92 
L 185.94 233.476875 
Q 185.94 229.876875 182.34 229.876875 
L 93.24 229.876875 
Q 89.64 229.876875 89.64 233.476875 
L 89.64 358.92 
Q 89.64 362.52 93.24 362.52 
z
" style="fill: #ffffff; opacity: 0.8; stroke: #cccccc; stroke-linejoin: miter"/>
    </g>
    <g id="text_11">
     <!-- age (Gyr) -->
     <g transform="translate(103.77 249.370312) scale(0.18 -0.18)">
      <defs>
       <path id="FreeSerif-67" d="M 384 346 
C 384 211 461 134 723 6 
C 269 -326 96 -538 96 -774 
C 96 -1114 595 -1395 1203 -1395 
C 1958 -1395 2867 -960 2867 -314 
C 2867 83 2566 352 2093 371 
L 1267 410 
C 928 422 768 480 768 582 
C 768 710 979 934 1152 986 
C 1222 979 1446 954 1517 954 
C 2029 954 2515 1331 2515 1946 
C 2515 2131 2483 2278 2394 2483 
L 2925 2483 
L 2925 2733 
L 2432 2733 
C 2042 2733 1907 2944 1427 2944 
C 832 2944 358 2483 358 1901 
C 358 1498 531 1254 954 1043 
C 448 570 384 512 384 346 
z
M 858 -13 
C 1069 -58 1581 -96 1894 -96 
C 2477 -96 2688 -179 2688 -410 
C 2688 -781 2202 -1030 1478 -1030 
C 915 -1030 544 -845 544 -563 
C 544 -416 589 -333 858 -13 
z
M 2022 1696 
C 2022 1338 1837 1114 1542 1114 
C 1280 1114 890 1350 890 2163 
C 890 2541 1069 2765 1363 2765 
C 1926 2765 2022 1907 2022 1696 
z
" transform="scale(0.015625)"/>
       <path id="FreeSerif-47" d="M 2528 4070 
C 3360 4070 3686 3501 3904 2976 
L 4051 2976 
L 4000 4326 
L 3859 4326 
C 3821 4205 3706 4115 3571 4115 
C 3347 4115 3059 4326 2419 4326 
C 1139 4326 224 3386 224 2080 
C 224 346 1632 -90 2502 -90 
C 3053 -90 3853 134 4109 358 
L 4109 1658 
C 4109 2035 4186 2118 4557 2150 
L 4557 2266 
L 2925 2266 
L 2925 2150 
C 3392 2118 3488 2074 3488 1581 
L 3488 544 
C 3488 339 3098 166 2637 166 
C 1594 166 954 896 954 2086 
C 954 2874 1267 4070 2528 4070 
z
" transform="scale(0.015625)"/>
      </defs>
      <use xlink:href="#FreeSerif-61"/>
      <use xlink:href="#FreeSerif-67" x="42.499985"/>
      <use xlink:href="#FreeSerif-65" x="88.199982"/>
      <use xlink:href="#FreeSerif-20" x="132.599976"/>
      <use xlink:href="#FreeSerif-28" x="157.59996"/>
      <use xlink:href="#FreeSerif-47" x="190.899948"/>
      <use xlink:href="#FreeSerif-79" x="263.09993"/>
      <use xlink:href="#FreeSerif-72" x="310.199921"/>
      <use xlink:href="#FreeSerif-29" x="344.699905"/>
     </g>
    </g>
    <g id="line2d_21">
     <path d="M 96.84 268.59375 
L 114.84 268.59375 
L 132.84 268.59375 
" style="fill: none; stroke: #1f77b4; stroke-width: 1.5; stroke-linecap: square"/>
    </g>
    <g id="text_12">
     <!-- 0.5 -->
     <g transform="translate(147.24 274.89375) scale(0.18 -0.18)">
      <defs>
       <path id="FreeSerif-2e" d="M 800 640 
C 608 640 448 474 448 275 
C 448 90 608 -70 794 -70 
C 992 -70 1158 90 1158 275 
C 1158 474 992 640 800 640 
z
" transform="scale(0.015625)"/>
       <path id="FreeSerif-35" d="M 2285 1242 
C 2285 627 1894 147 1395 147 
C 1056 147 838 544 480 544 
C 294 544 205 467 205 307 
C 205 64 506 -90 986 -90 
C 1664 -90 2733 237 2733 1549 
C 2733 2547 2080 2976 890 3187 
L 1158 3731 
L 2413 3731 
C 2515 3731 2541 3744 2560 3789 
L 2803 4358 
L 2746 4403 
C 2650 4269 2586 4237 2451 4237 
L 1114 4237 
L 416 2720 
C 410 2707 410 2701 410 2688 
C 410 2656 435 2637 486 2637 
C 883 2637 2285 2432 2285 1242 
z
" transform="scale(0.015625)"/>
      </defs>
      <use xlink:href="#FreeSerif-30"/>
      <use xlink:href="#FreeSerif-2e" x="49.999985"/>
      <use xlink:href="#FreeSerif-35" x="74.999969"/>
     </g>
    </g>
    <g id="line2d_22">
     <path d="M 96.84 294.100312 
L 114.84 294.100312 
L 132.84 294.100312 
" style="fill: none; stroke: #ff7f0e; stroke-width: 1.5; stroke-linecap: square"/>
    </g>
    <g id="text_13">
     <!-- 1.0 -->
     <g transform="translate(147.24 300.400312) scale(0.18 -0.18)">
      <use xlink:href="#FreeSerif-31"/>
      <use xlink:href="#FreeSerif-2e" x="49.999985"/>
      <use xlink:href="#FreeSerif-30" x="74.999969"/>
     </g>
    </g>
    <g id="line2d_23">
     <path d="M 96.84 319.606875 
L 114.84 319.606875 
L 132.84 319.606875 
" style="fill: none; stroke: #2ca02c; stroke-width: 1.5; stroke-linecap: square"/>
    </g>
    <g id="text_14">
     <!-- 2.5 -->
     <g transform="translate(147.24 325.906875) scale(0.18 -0.18)">
      <use xlink:href="#FreeSerif-32"/>
      <use xlink:href="#FreeSerif-2e" x="49.999985"/>
      <use xlink:href="#FreeSerif-35" x="74.999969"/>
     </g>
    </g>
    <g id="line2d_24">
     <path d="M 96.84 345.113437 
L 114.84 345.113437 
L 132.84 345.113437 
" style="fill: none; stroke: #d62728; stroke-width: 1.5; stroke-linecap: square"/>
    </g>
    <g id="text_15">
     <!-- 10.0 -->
     <g transform="translate(147.24 351.413437) scale(0.18 -0.18)">
      <use xlink:href="#FreeSerif-31"/>
      <use xlink:href="#FreeSerif-30" x="49.999985"/>
      <use xlink:href="#FreeSerif-2e" x="99.999969"/>
      <use xlink:href="#FreeSerif-30" x="124.999954"/>
     </g>
    </g>
   </g>
  </g>
 </g>
 <defs>
  <clipPath id="p4c0937d436">
   <rect x="80.64" y="60.48" width="414.72" height="311.04"/>
  </clipPath>
 </defs>
</svg>
