<?xml version="1.0" encoding="utf-8" standalone="no"?>
<!DOCTYPE svg PUBLIC "-//W3C//DTD SVG 1.1//EN"
  "http://www.w3.org/Graphics/SVG/1.1/DTD/svg11.dtd">
<svg xmlns:xlink="http://www.w3.org/1999/xlink" width="576pt" height="432pt" viewBox="0 0 576 432" xmlns="http://www.w3.org/2000/svg" version="1.1">
 <metadata>
  <rdf:RDF xmlns:dc="http://purl.org/dc/elements/1.1/" xmlns:cc="http://creativecommons.org/ns#" xmlns:rdf="http://www.w3.org/1999/02/22-rdf-syntax-ns#">
   <cc:Work>
    <dc:type rdf:resource="http://purl.org/dc/dcmitype/StillImage"/>
    <dc:date>2023-02-04T22:02:36.814914</dc:date>
    <dc:format>image/svg+xml</dc:format>
    <dc:creator>
     <cc:Agent>
      <dc:title>Matplotlib v3.6.3, https://matplotlib.org/</dc:title>
     </cc:Agent>
    </dc:creator>
   </cc:Work>
  </rdf:RDF>
 </metadata>
 <defs>
  <style type="text/css">*{stroke-linejoin: round; stroke-linecap: butt}</style>
 </defs>
 <g id="figure_1">
  <g id="patch_1">
   <path d="M 0 432 
L 576 432 
L 576 0 
L 0 0 
z
" style="fill: #ffffff"/>
  </g>
  <g id="axes_1">
   <g id="patch_2">
    <path d="M 80.64 371.52 
L 495.36 371.52 
L 495.36 60.48 
L 80.64 60.48 
z
" style="fill: #ffffff"/>
   </g>
   <g id="matplotlib.axis_1">
    <g id="xtick_1">
     <g id="line2d_1">
      <defs>
       <path id="m921013c92a" d="M 0 0 
L 0 3.5 
" style="stroke: #000000; stroke-width: 0.8"/>
      </defs>
      <g>
       <use xlink:href="#m921013c92a" x="80.64" y="371.52" style="stroke: #000000; stroke-width: 0.8"/>
      </g>
     </g>
     <g id="line2d_2">
      <defs>
       <path id="m98c0eab94b" d="M 0 0 
L 0 -3.5 
" style="stroke: #000000; stroke-width: 0.8"/>
      </defs>
      <g>
       <use xlink:href="#m98c0eab94b" x="80.64" y="60.48" style="stroke: #000000; stroke-width: 0.8"/>
      </g>
     </g>
     <g id="text_1">
      <!-- 0.50 -->
      <g transform="translate(64.89 390.813437) scale(0.18 -0.18)">
       <defs>
        <path id="FreeSerif-30" d="M 1600 -90 
C 2483 -90 3046 832 3046 2112 
C 3046 3424 2464 4326 1626 4326 
C 691 4326 154 3341 154 2150 
C 154 858 717 -90 1600 -90 
z
M 1606 4160 
C 2144 4160 2432 3437 2432 2099 
C 2432 762 2150 77 1600 77 
C 1050 77 768 762 768 2093 
C 768 3450 1056 4160 1606 4160 
z
" transform="scale(0.015625)"/>
        <path id="FreeSerif-2e" d="M 800 640 
C 608 640 448 474 448 275 
C 448 90 608 -70 794 -70 
C 992 -70 1158 90 1158 275 
C 1158 474 992 640 800 640 
z
" transform="scale(0.015625)"/>
        <path id="FreeSerif-35" d="M 2285 1242 
C 2285 627 1894 147 1395 147 
C 1056 147 838 544 480 544 
C 294 544 205 467 205 307 
C 205 64 506 -90 986 -90 
C 1664 -90 2733 237 2733 1549 
C 2733 2547 2080 2976 890 3187 
L 1158 3731 
L 2413 3731 
C 2515 3731 2541 3744 2560 3789 
L 2803 4358 
L 2746 4403 
C 2650 4269 2586 4237 2451 4237 
L 1114 4237 
L 416 2720 
C 410 2707 410 2701 410 2688 
C 410 2656 435 2637 486 2637 
C 883 2637 2285 2432 2285 1242 
z
" transform="scale(0.015625)"/>
       </defs>
       <use xlink:href="#FreeSerif-30"/>
       <use xlink:href="#FreeSerif-2e" x="49.999985"/>
       <use xlink:href="#FreeSerif-35" x="74.999969"/>
       <use xlink:href="#FreeSerif-30" x="124.999954"/>
      </g>
     </g>
    </g>
    <g id="xtick_2">
     <g id="line2d_3">
      <g>
       <use xlink:href="#m921013c92a" x="141.628235" y="371.52" style="stroke: #000000; stroke-width: 0.8"/>
      </g>
     </g>
     <g id="line2d_4">
      <g>
       <use xlink:href="#m98c0eab94b" x="141.628235" y="60.48" style="stroke: #000000; stroke-width: 0.8"/>
      </g>
     </g>
     <g id="text_2">
      <!-- 0.75 -->
      <g transform="translate(125.878235 390.813437) scale(0.18 -0.18)">
       <defs>
        <path id="FreeSerif-37" d="M 2874 4237 
L 506 4237 
L 128 3296 
L 237 3245 
C 512 3680 627 3763 979 3763 
L 2368 3763 
L 1101 -51 
L 1517 -51 
L 2874 4134 
L 2874 4237 
z
" transform="scale(0.015625)"/>
       </defs>
       <use xlink:href="#FreeSerif-30"/>
       <use xlink:href="#FreeSerif-2e" x="49.999985"/>
       <use xlink:href="#FreeSerif-37" x="74.999969"/>
       <use xlink:href="#FreeSerif-35" x="124.999954"/>
      </g>
     </g>
    </g>
    <g id="xtick_3">
     <g id="line2d_5">
      <g>
       <use xlink:href="#m921013c92a" x="202.616471" y="371.52" style="stroke: #000000; stroke-width: 0.8"/>
      </g>
     </g>
     <g id="line2d_6">
      <g>
       <use xlink:href="#m98c0eab94b" x="202.616471" y="60.48" style="stroke: #000000; stroke-width: 0.8"/>
      </g>
     </g>
     <g id="text_3">
      <!-- 1.00 -->
      <g transform="translate(186.866471 390.813437) scale(0.18 -0.18)">
       <defs>
        <path id="FreeSerif-31" d="M 1171 3795 
C 1306 3795 1363 3699 1363 3494 
L 1363 595 
C 1363 179 1210 109 755 96 
L 755 0 
L 2522 0 
L 2522 96 
C 2016 102 1914 166 1914 474 
L 1914 4314 
L 1862 4326 
L 710 3744 
L 710 3654 
C 960 3757 1075 3795 1171 3795 
z
" transform="scale(0.015625)"/>
       </defs>
       <use xlink:href="#FreeSerif-31"/>
       <use xlink:href="#FreeSerif-2e" x="49.999985"/>
       <use xlink:href="#FreeSerif-30" x="74.999969"/>
       <use xlink:href="#FreeSerif-30" x="124.999954"/>
      </g>
     </g>
    </g>
    <g id="xtick_4">
     <g id="line2d_7">
      <g>
       <use xlink:href="#m921013c92a" x="263.604706" y="371.52" style="stroke: #000000; stroke-width: 0.8"/>
      </g>
     </g>
     <g id="line2d_8">
      <g>
       <use xlink:href="#m98c0eab94b" x="263.604706" y="60.48" style="stroke: #000000; stroke-width: 0.8"/>
      </g>
     </g>
     <g id="text_4">
      <!-- 1.25 -->
      <g transform="translate(247.854706 390.813437) scale(0.18 -0.18)">
       <defs>
        <path id="FreeSerif-32" d="M 198 3053 
L 333 3021 
C 589 3648 819 3853 1261 3853 
C 1798 3853 2163 3488 2163 2950 
C 2163 2451 1869 1856 1331 1286 
L 192 77 
L 192 0 
L 2688 0 
L 3040 877 
L 2957 909 
C 2720 544 2637 486 2349 486 
L 819 486 
L 1894 1613 
C 2464 2208 2714 2694 2714 3194 
C 2714 3834 2195 4326 1530 4326 
C 499 4326 269 3354 198 3053 
z
" transform="scale(0.015625)"/>
       </defs>
       <use xlink:href="#FreeSerif-31"/>
       <use xlink:href="#FreeSerif-2e" x="49.999985"/>
       <use xlink:href="#FreeSerif-32" x="74.999969"/>
       <use xlink:href="#FreeSerif-35" x="124.999954"/>
      </g>
     </g>
    </g>
    <g id="xtick_5">
     <g id="line2d_9">
      <g>
       <use xlink:href="#m921013c92a" x="324.592941" y="371.52" style="stroke: #000000; stroke-width: 0.8"/>
      </g>
     </g>
     <g id="line2d_10">
      <g>
       <use xlink:href="#m98c0eab94b" x="324.592941" y="60.48" style="stroke: #000000; stroke-width: 0.8"/>
      </g>
     </g>
     <g id="text_5">
      <!-- 1.50 -->
      <g transform="translate(308.842941 390.813437) scale(0.18 -0.18)">
       <use xlink:href="#FreeSerif-31"/>
       <use xlink:href="#FreeSerif-2e" x="49.999985"/>
       <use xlink:href="#FreeSerif-35" x="74.999969"/>
       <use xlink:href="#FreeSerif-30" x="124.999954"/>
      </g>
     </g>
    </g>
    <g id="xtick_6">
     <g id="line2d_11">
      <g>
       <use xlink:href="#m921013c92a" x="385.581176" y="371.52" style="stroke: #000000; stroke-width: 0.8"/>
      </g>
     </g>
     <g id="line2d_12">
      <g>
       <use xlink:href="#m98c0eab94b" x="385.581176" y="60.48" style="stroke: #000000; stroke-width: 0.8"/>
      </g>
     </g>
     <g id="text_6">
      <!-- 1.75 -->
      <g transform="translate(369.831176 390.813437) scale(0.18 -0.18)">
       <use xlink:href="#FreeSerif-31"/>
       <use xlink:href="#FreeSerif-2e" x="49.999985"/>
       <use xlink:href="#FreeSerif-37" x="74.999969"/>
       <use xlink:href="#FreeSerif-35" x="124.999954"/>
      </g>
     </g>
    </g>
    <g id="xtick_7">
     <g id="line2d_13">
      <g>
       <use xlink:href="#m921013c92a" x="446.569412" y="371.52" style="stroke: #000000; stroke-width: 0.8"/>
      </g>
     </g>
     <g id="line2d_14">
      <g>
       <use xlink:href="#m98c0eab94b" x="446.569412" y="60.48" style="stroke: #000000; stroke-width: 0.8"/>
      </g>
     </g>
     <g id="text_7">
      <!-- 2.00 -->
      <g transform="translate(430.819412 390.813437) scale(0.18 -0.18)">
       <use xlink:href="#FreeSerif-32"/>
       <use xlink:href="#FreeSerif-2e" x="49.999985"/>
       <use xlink:href="#FreeSerif-30" x="74.999969"/>
       <use xlink:href="#FreeSerif-30" x="124.999954"/>
      </g>
     </g>
    </g>
    <g id="text_8">
     <!-- $B-V$ -->
     <g transform="translate(265.77 411.013438) scale(0.18 -0.18)">
      <defs>
       <path id="Cmmi10-42" d="M 319 0 
Q 256 0 256 84 
Q 259 100 268 137 
Q 278 175 293 200 
Q 309 225 341 225 
Q 522 225 656 234 
Q 791 244 884 269 
Q 959 297 1006 441 
L 1881 3956 
Q 1894 4019 1894 4044 
Q 1894 4113 1819 4122 
Q 1697 4147 1356 4147 
Q 1294 4147 1294 4231 
Q 1297 4247 1306 4286 
Q 1316 4325 1333 4348 
Q 1350 4372 1375 4372 
L 3669 4372 
Q 3878 4372 4083 4320 
Q 4288 4269 4461 4156 
Q 4634 4044 4736 3876 
Q 4838 3709 4838 3488 
Q 4838 3247 4714 3040 
Q 4591 2834 4395 2681 
Q 4200 2528 3973 2429 
Q 3747 2331 3500 2284 
Q 3675 2284 3854 2215 
Q 4034 2147 4175 2028 
Q 4316 1909 4402 1743 
Q 4488 1578 4488 1388 
Q 4488 1003 4219 684 
Q 3950 366 3542 183 
Q 3134 0 2753 0 
L 319 0 
z
M 1497 275 
Q 1497 225 1716 225 
L 2631 225 
Q 2944 225 3231 398 
Q 3519 572 3692 859 
Q 3866 1147 3866 1459 
Q 3866 1650 3786 1820 
Q 3706 1991 3556 2089 
Q 3406 2188 3213 2188 
L 1966 2188 
L 1522 416 
Q 1497 328 1497 275 
z
M 2009 2356 
L 2981 2356 
Q 3288 2356 3577 2512 
Q 3866 2669 4048 2937 
Q 4231 3206 4231 3506 
Q 4231 3784 4057 3965 
Q 3884 4147 3609 4147 
L 2731 4147 
Q 2559 4147 2500 4115 
Q 2441 4084 2400 3928 
L 2009 2356 
z
" transform="scale(0.015625)"/>
       <path id="Cmsy10-a1" d="M 653 1472 
Q 600 1472 565 1512 
Q 531 1553 531 1600 
Q 531 1647 565 1687 
Q 600 1728 653 1728 
L 4325 1728 
Q 4375 1728 4408 1687 
Q 4441 1647 4441 1600 
Q 4441 1553 4408 1512 
Q 4375 1472 4325 1472 
L 653 1472 
z
" transform="scale(0.015625)"/>
       <path id="Cmmi10-56" d="M 1409 -72 
L 897 4006 
Q 850 4147 416 4147 
Q 353 4147 353 4231 
Q 366 4300 384 4336 
Q 403 4372 459 4372 
L 2022 4372 
Q 2056 4372 2072 4347 
Q 2088 4322 2088 4288 
Q 2063 4147 2003 4147 
Q 1503 4147 1472 3975 
L 1894 628 
L 3866 3775 
Q 3922 3881 3922 3944 
Q 3922 4056 3820 4101 
Q 3719 4147 3584 4147 
Q 3519 4147 3519 4231 
Q 3531 4281 3540 4309 
Q 3550 4338 3569 4355 
Q 3588 4372 3628 4372 
L 4863 4372 
Q 4922 4372 4922 4288 
Q 4897 4147 4838 4147 
Q 4356 4147 4084 3725 
Q 4072 3713 4063 3713 
L 1703 -72 
Q 1656 -141 1581 -141 
L 1491 -141 
Q 1419 -141 1409 -72 
z
" transform="scale(0.015625)"/>
      </defs>
      <use xlink:href="#Cmmi10-42" transform="translate(0 0.6875)"/>
      <use xlink:href="#Cmsy10-a1" transform="translate(93.339844 0.6875)"/>
      <use xlink:href="#Cmmi10-56" transform="translate(188.583984 0.6875)"/>
     </g>
    </g>
   </g>
   <g id="matplotlib.axis_2">
    <g id="ytick_1">
     <g id="line2d_15">
      <defs>
       <path id="mddf42119b5" d="M 0 0 
L -3.5 0 
" style="stroke: #000000; stroke-width: 0.8"/>
      </defs>
      <g>
       <use xlink:href="#mddf42119b5" x="80.64" y="84.406154" style="stroke: #000000; stroke-width: 0.8"/>
      </g>
     </g>
     <g id="line2d_16">
      <defs>
       <path id="mea067ec503" d="M 0 0 
L 3.5 0 
" style="stroke: #000000; stroke-width: 0.8"/>
      </defs>
      <g>
       <use xlink:href="#mea067ec503" x="495.36" y="84.406154" style="stroke: #000000; stroke-width: 0.8"/>
      </g>
     </g>
     <g id="text_9">
      <!-- −4 -->
      <g transform="translate(54.486875 90.552873) scale(0.18 -0.18)">
       <defs>
        <path id="FreeSerif-2212" d="M 192 1408 
L 3418 1408 
L 3418 1830 
L 192 1830 
L 192 1408 
z
" transform="scale(0.015625)"/>
        <path id="FreeSerif-34" d="M 3021 1478 
L 2368 1478 
L 2368 4326 
L 2086 4326 
L 77 1478 
L 77 1069 
L 1875 1069 
L 1875 0 
L 2368 0 
L 2368 1069 
L 3021 1069 
L 3021 1478 
z
M 1869 1478 
L 333 1478 
L 1869 3674 
L 1869 1478 
z
" transform="scale(0.015625)"/>
       </defs>
       <use xlink:href="#FreeSerif-2212"/>
       <use xlink:href="#FreeSerif-34" x="56.399994"/>
      </g>
     </g>
    </g>
    <g id="ytick_2">
     <g id="line2d_17">
      <g>
       <use xlink:href="#mddf42119b5" x="80.64" y="132.258462" style="stroke: #000000; stroke-width: 0.8"/>
      </g>
     </g>
     <g id="line2d_18">
      <g>
       <use xlink:href="#mea067ec503" x="495.36" y="132.258462" style="stroke: #000000; stroke-width: 0.8"/>
      </g>
     </g>
     <g id="text_10">
      <!-- −2 -->
      <g transform="translate(54.486875 138.40518) scale(0.18 -0.18)">
       <use xlink:href="#FreeSerif-2212"/>
       <use xlink:href="#FreeSerif-32" x="56.399994"/>
      </g>
     </g>
    </g>
    <g id="ytick_3">
     <g id="line2d_19">
      <g>
       <use xlink:href="#mddf42119b5" x="80.64" y="180.110769" style="stroke: #000000; stroke-width: 0.8"/>
      </g>
     </g>
     <g id="line2d_20">
      <g>
       <use xlink:href="#mea067ec503" x="495.36" y="180.110769" style="stroke: #000000; stroke-width: 0.8"/>
      </g>
     </g>
     <g id="text_11">
      <!-- 0 -->
      <g transform="translate(64.64 186.257488) scale(0.18 -0.18)">
       <use xlink:href="#FreeSerif-30"/>
      </g>
     </g>
    </g>
    <g id="ytick_4">
     <g id="line2d_21">
      <g>
       <use xlink:href="#mddf42119b5" x="80.64" y="227.963077" style="stroke: #000000; stroke-width: 0.8"/>
      </g>
     </g>
     <g id="line2d_22">
      <g>
       <use xlink:href="#mea067ec503" x="495.36" y="227.963077" style="stroke: #000000; stroke-width: 0.8"/>
      </g>
     </g>
     <g id="text_12">
      <!-- 2 -->
      <g transform="translate(64.64 234.109796) scale(0.18 -0.18)">
       <use xlink:href="#FreeSerif-32"/>
      </g>
     </g>
    </g>
    <g id="ytick_5">
     <g id="line2d_23">
      <g>
       <use xlink:href="#mddf42119b5" x="80.64" y="275.815385" style="stroke: #000000; stroke-width: 0.8"/>
      </g>
     </g>
     <g id="line2d_24">
      <g>
       <use xlink:href="#mea067ec503" x="495.36" y="275.815385" style="stroke: #000000; stroke-width: 0.8"/>
      </g>
     </g>
     <g id="text_13">
      <!-- 4 -->
      <g transform="translate(64.64 281.962103) scale(0.18 -0.18)">
       <use xlink:href="#FreeSerif-34"/>
      </g>
     </g>
    </g>
    <g id="ytick_6">
     <g id="line2d_25">
      <g>
       <use xlink:href="#mddf42119b5" x="80.64" y="323.667692" style="stroke: #000000; stroke-width: 0.8"/>
      </g>
     </g>
     <g id="line2d_26">
      <g>
       <use xlink:href="#mea067ec503" x="495.36" y="323.667692" style="stroke: #000000; stroke-width: 0.8"/>
      </g>
     </g>
     <g id="text_14">
      <!-- 6 -->
      <g transform="translate(64.64 329.814411) scale(0.18 -0.18)">
       <defs>
        <path id="FreeSerif-36" d="M 1651 -90 
C 2445 -90 2995 518 2995 1402 
C 2995 2221 2528 2739 1792 2739 
C 1510 2739 1376 2694 973 2451 
C 1146 3418 1862 4109 2867 4275 
L 2854 4378 
C 582 4179 218 2534 218 1786 
C 218 659 794 -90 1651 -90 
z
M 1549 2445 
C 2099 2445 2419 1984 2419 1184 
C 2419 480 2170 90 1722 90 
C 1158 90 813 691 813 1683 
C 813 2131 922 2445 1549 2445 
z
" transform="scale(0.015625)"/>
       </defs>
       <use xlink:href="#FreeSerif-36"/>
      </g>
     </g>
    </g>
    <g id="ytick_7">
     <g id="line2d_27">
      <g>
       <use xlink:href="#mddf42119b5" x="80.64" y="371.52" style="stroke: #000000; stroke-width: 0.8"/>
      </g>
     </g>
     <g id="line2d_28">
      <g>
       <use xlink:href="#mea067ec503" x="495.36" y="371.52" style="stroke: #000000; stroke-width: 0.8"/>
      </g>
     </g>
     <g id="text_15">
      <!-- 8 -->
      <g transform="translate(64.64 377.666719) scale(0.18 -0.18)">
       <defs>
        <path id="FreeSerif-38" d="M 1856 2374 
C 2490 2714 2714 2982 2714 3418 
C 2714 3942 2253 4326 1613 4326 
C 915 4326 397 3898 397 3315 
C 397 2899 518 2714 1190 2125 
C 499 1600 358 1402 358 966 
C 358 346 864 -90 1587 -90 
C 2355 -90 2848 333 2848 992 
C 2848 1485 2630 1798 1856 2374 
z
M 1357 1997 
C 1978 1542 2362 1331 2362 794 
C 2362 378 2074 90 1658 90 
C 1171 90 845 461 845 1018 
C 845 1427 986 1696 1357 1997 
z
M 1670 2490 
C 1101 2861 870 3155 870 3514 
C 870 3885 1158 4147 1562 4147 
C 1997 4147 2272 3866 2272 3424 
C 2272 2861 1850 2624 1670 2490 
z
" transform="scale(0.015625)"/>
       </defs>
       <use xlink:href="#FreeSerif-38"/>
      </g>
     </g>
    </g>
    <g id="text_16">
     <!-- $V$ -->
     <g transform="translate(46.580313 221.31) rotate(-90) scale(0.18 -0.18)">
      <use xlink:href="#Cmmi10-56" transform="translate(0 0.6875)"/>
     </g>
    </g>
   </g>
   <g id="line2d_29">
    <path d="M 299.362596 208.475009 
L 284.696389 215.706929 
L 277.533199 219.673 
L 271.693941 223.2318 
L 268.433022 225.453534 
L 258.153333 233.482577 
L 251.276056 239.67158 
L 247.422819 243.60011 
L 243.639109 248.003264 
L 240.752902 252.197017 
L 237.623962 257.636125 
L 235.661116 261.846076 
L 234.834604 263.918703 
L 233.512867 268.038021 
L 232.787107 271.115666 
L 232.250898 274.183118 
L 232.108186 276.238375 
L 232.068909 278.287674 
L 232.23187 281.394988 
L 232.755637 285.567541 
L 233.403576 288.733259 
L 234.257655 291.929123 
L 235.353736 295.170901 
L 236.673765 298.454144 
L 238.179198 301.766026 
L 240.468209 306.21921 
L 247.068356 318.780775 
L 247.701902 320.578611 
L 248.040508 322.220208 
L 248.026603 323.677 
L 247.864862 324.325925 
L 247.584072 324.914795 
L 247.167645 325.437295 
L 246.61875 325.894571 
L 245.896406 326.270834 
L 244.987193 326.561465 
L 243.866473 326.758114 
L 242.514486 326.854321 
L 240.908056 326.842119 
L 239.027667 326.714999 
L 234.309129 326.060451 
L 228.305935 324.839069 
L 221.072242 323.018169 
L 212.449482 320.61517 
L 202.531819 317.657514 
L 191.728363 314.234112 
L 173.620712 308.420894 
L 153.117931 302.146165 
L 138.556868 297.935281 
L 131.297316 295.913737 
L 124.212923 294.123989 
L 117.847947 292.954382 
L 113.68367 293.178188 
L 112.634672 294.80519 
L 113.514123 296.914209 
L 115.275463 298.914411 
L 117.115112 300.435708 
L 119.428274 301.817395 
L 120.269911 302.022467 
L 120.315043 301.883695 
L 120.041571 301.668144 
L 117.717676 300.351249 
L 111.531273 295.378891 
L 109.433522 293.354523 
L 107.692186 291.371285 
L 106.365326 289.519496 
L 105.379024 287.809087 
L 104.70669 286.28389 
L 104.409555 285.118687 
L 104.381012 284.266341 
L 104.598862 283.415838 
L 105.063105 281.830563 
L 105.434889 280.647606 
L 106.056969 279.366002 
L 106.628795 278.557418 
L 107.663399 277.448105 
L 109.168101 276.321112 
L 111.251459 275.211632 
L 113.248214 274.417906 
L 115.697013 273.696915 
L 118.570779 273.104767 
L 121.012504 272.749033 
L 126.638059 272.279314 
L 133.152578 272.177796 
L 140.476777 272.444142 
L 148.553083 273.001478 
L 165.978642 274.335313 
L 170.416146 274.50483 
L 174.685323 274.504255 
L 178.629066 274.282579 
L 182.086855 273.819704 
L 184.989895 273.131062 
L 187.377706 272.260867 
L 189.37812 271.264199 
L 191.023095 270.167066 
L 192.415578 269.001264 
L 193.650224 267.790888 
L 195.710895 265.265195 
L 197.487604 262.658847 
L 202.769673 254.667033 
L 205.630265 250.655766 
L 208.781405 246.669357 
L 212.180158 242.710081 
L 215.85848 238.788824 
L 218.527081 236.200636 
L 222.858466 232.358144 
L 227.443561 228.556924 
L 232.334574 224.809993 
L 237.495886 221.121704 
L 242.807474 217.498806 
L 241.805315 217.76197 
L 239.679509 218.910473 
L 239.621204 218.709613 
L 245.294818 215.112435 
L 251.535622 211.595219 
L 260.202294 206.998574 
L 266.921246 203.637572 
L 273.816088 200.361842 
L 283.304882 196.130837 
L 288.513277 194.069383 
L 299.39309 190.072184 
L 310.261926 186.295776 
L 320.683107 182.855051 
L 328.68452 180.417622 
L 340.113715 177.35462 
L 350.568075 174.804211 
L 359.711919 172.715602 
L 363.801546 171.966402 
L 367.098082 171.603323 
L 368.47544 171.653807 
L 368.844297 171.765183 
L 368.936755 171.976666 
L 368.741593 172.261412 
L 368.189527 172.663299 
L 367.050999 173.26253 
L 362.808169 175.064863 
L 352.456026 179.051439 
L 321.511816 190.703859 
L 313.539677 193.987843 
L 310.135558 195.530482 
L 290.604686 205.241892 
L 287.183002 207.152539 
L 284.16262 209.105822 
L 284.592709 208.817464 
L 310.488558 195.262652 
L 346.988553 180.385729 
L 371.749045 169.77247 
L 366.990255 168.235358 
L 351.58487 170.205629 
L 326.900248 175.111375 
L 302.360534 181.150863 
L 277.475382 188.173692 
L 254.754581 195.968713 
L 236.899421 205.018517 
L 256.36711 198.071128 
L 277.557106 189.987462 
L 300.892913 182.581719 
L 296.951609 183.257058 
L 272.753673 190.477637 
L 259.617783 195.695213 
L 281.554031 187.87885 
L 264.396821 193.00687 
L 248.245917 199.256956 
L 259.736832 194.400832 
L 236.611069 202.332089 
L 240.386241 200.112819 
L 241.29277 200.678887 
L 233.396013 203.1969 
L 234.609923 202.49883 
L 234.278391 202.594894 
L 232.839069 203.108397 
L 235.070018 202.369127 
L 235.3108 201.983604 
L 231.549533 202.35123 
L 228.590628 202.387334 
L 229.097074 201.986787 
L 229.650604 201.695486 
L 244.980363 196.528035 
L 259.413838 191.949358 
L 269.460796 188.843696 
L 288.345193 183.357261 
L 303.308535 179.345061 
L 288.986546 183.083929 
L 291.756631 182.315181 
L 307.753358 178.193806 
L 318.246749 175.617964 
L 335.784038 171.856031 
L 352.979061 168.636815 
L 359.668739 167.571718 
L 364.72198 167.009669 
L 370.568069 166.735068 
L 372.340143 166.8452 
L 373.159093 167.043979 
L 373.616748 167.354038 
L 373.69213 167.552266 
L 373.646999 167.791025 
L 373.154702 168.397146 
L 372.002756 169.187332 
L 369.850359 170.281427 
L 365.009113 172.398676 
L 354.571586 176.646214 
L 324.295563 188.664752 
L 315.463002 192.56828 
L 322.428103 189.568682 
L 332.515069 185.475802 
L 346.580908 179.980635 
L 323.791068 188.997302 
L 317.761039 191.569698 
L 312.58265 193.999495 
L 303.11752 198.874473 
L 294.688214 203.090787 
L 289.135113 206.239637 
L 286.53921 207.926981 
L 284.27557 209.614564 
L 282.394205 211.342559 
L 281.051 213.109027 
L 280.511133 214.868628 
L 280.768503 216.13669 
L 280.600663 214.972491 
L 280.772406 214.345267 
L 281.651857 212.928911 
L 283.183393 211.363566 
L 285.16917 209.775324 
L 287.47355 208.202466 
L 290.06311 206.617478 
L 295.478133 203.666953 
L 318.515098 192.275903 
L 324.796886 189.59213 
L 342.163896 182.694172 
L 358.450682 176.325652 
L 368.260762 172.272466 
L 348.166114 180.481218 
L 324.12138 189.953678 
L 318.200398 192.447908 
L 312.975658 194.875694 
L 301.052458 200.909631 
L 295.47789 203.657526 
L 289.973823 206.670642 
L 287.621385 208.088985 
L 285.318713 209.653013 
L 283.321227 211.239485 
L 281.849946 212.720921 
L 280.877794 214.218052 
L 280.654821 215.597012 
L 281.332522 216.768652 
L 282.792581 217.828317 
L 284.849836 218.717269 
L 287.330593 219.426991 
L 290.144346 220.014163 
L 293.121792 220.450145 
L 299.067413 220.925318 
L 304.349238 221.03758 
L 309.612767 220.988125 
L 311.197729 221.256361 
L 315.346149 222.802517 
L 317.34266 223.693814 
L 317.145302 223.717716 
L 310.973536 221.47885 
L 309.59813 221.304309 
L 301.811152 221.343165 
L 296.137782 221.103951 
L 290.109217 220.368844 
L 287.269605 219.778203 
L 284.759329 219.059174 
L 282.677191 218.155459 
L 281.204935 217.116059 
L 280.502106 215.957388 
L 280.712882 214.564742 
L 281.686498 213.052011 
L 283.203885 211.523608 
L 285.158436 209.97226 
L 287.505263 208.374998 
L 292.724881 205.327763 
L 295.768925 203.715882 
L 290.37171 206.63004 
L 287.852408 208.14222 
L 285.518023 209.701942 
L 283.497848 211.26712 
L 281.899713 212.817319 
L 280.881453 214.288275 
L 280.57578 215.639409 
L 281.122235 216.849235 
L 282.485688 217.923711 
L 284.47732 218.847236 
L 286.93295 219.600575 
L 289.703767 220.193058 
L 292.642668 220.629567 
L 295.655731 220.943072 
L 301.383014 221.221381 
L 310.752271 221.332948 
L 313.884627 222.42312 
L 317.18775 223.825886 
L 316.817429 223.758893 
L 312.034732 221.993573 
L 310.183861 221.48598 
L 307.557219 221.463083 
L 303.296581 221.50225 
L 297.876191 221.367378 
L 294.94656 221.175251 
L 288.983374 220.333098 
L 289.281241 220.351689 
L 294.818485 221.149148 
L 286.323799 219.784711 
L 283.976972 219.017447 
L 282.11244 218.066622 
L 280.905605 216.973603 
L 280.550653 215.743799 
L 281.030021 214.354335 
L 282.210265 212.8428 
L 283.874512 211.326074 
L 285.958602 209.773601 
L 288.346901 208.221679 
L 293.685079 205.189709 
L 299.203539 202.420592 
L 309.294164 197.429907 
L 313.907558 195.032937 
L 319.395524 192.527558 
L 332.577033 187.100891 
L 351.846144 179.483473 
L 324.066247 190.502017 
L 317.921072 193.152054 
L 312.751465 195.598288 
L 303.151185 200.576603 
L 294.526961 204.979566 
L 292.307233 206.28244 
L 285.461426 210.920406 
L 283.433689 212.643352 
L 281.873122 214.416567 
L 281.110281 216.169517 
L 281.832382 214.92617 
L 283.193395 213.424086 
L 285.051585 211.857928 
L 287.2718 210.282415 
L 291.806398 207.517341 
L 297.381698 204.540425 
L 310.650543 197.881992 
L 315.181237 195.561011 
L 320.828991 192.995027 
L 330.586865 188.952966 
L 348.359569 181.939637 
L 360.875086 176.995369 
L 370.885207 172.780729 
L 349.306838 181.714898 
L 328.402022 189.932216 
L 318.994953 193.875318 
L 313.760211 196.303153 
L 301.715278 202.415926 
L 296.17218 205.159108 
L 290.712025 208.137339 
L 288.152227 209.697109 
L 285.865656 211.246065 
L 283.866217 212.827727 
L 282.334437 214.360532 
L 281.405952 215.787608 
L 281.160535 217.14812 
L 281.798472 218.3835 
L 283.246577 219.460248 
L 285.221376 220.264765 
L 287.647488 220.972908 
L 290.412695 221.564841 
L 293.371356 222.021352 
L 296.295376 222.292602 
L 301.889217 222.540812 
L 309.53641 222.440275 
L 311.660508 222.798664 
L 315.83991 224.26139 
L 319.235979 225.718469 
L 316.128994 224.642294 
L 312.281124 223.275417 
L 310.037245 222.789692 
L 307.157624 222.831563 
L 302.869176 222.914515 
L 297.469277 222.770001 
L 294.536231 222.538252 
L 291.554882 222.151893 
L 288.718685 221.643438 
L 286.140591 221.00272 
L 283.926962 220.197868 
L 286.267934 221.00272 
L 288.857739 221.6376 
L 291.68125 222.127105 
L 294.655768 222.505354 
L 297.612478 222.748372 
L 293.21669 222.423598 
L 290.325359 222.01202 
L 287.580645 221.441645 
L 285.121599 220.698546 
L 283.119721 219.808446 
L 281.711625 218.779453 
L 281.085642 217.583074 
L 281.373018 216.182293 
L 282.35005 214.729832 
L 283.915008 213.188797 
L 285.882732 211.648694 
L 288.277131 210.03076 
L 293.56725 206.954622 
L 299.213297 204.039986 
L 309.774264 198.781735 
L 314.242262 196.452667 
L 319.738034 193.901517 
L 324.898614 191.659349 
L 316.002138 195.57496 
L 311.267012 197.988822 
L 303.862796 201.776428 
L 295.376649 206.042198 
L 289.801592 209.207126 
L 287.295708 210.82451 
L 285.018407 212.505155 
L 283.223889 214.108733 
L 281.870438 215.786603 
L 281.32496 217.272178 
L 281.652344 218.657334 
L 282.961396 219.914534 
L 285.025482 221.02253 
L 287.682129 221.974672 
L 290.724954 222.807852 
L 291.00794 223.147867 
L 288.452045 222.608308 
L 286.12205 221.917129 
L 284.389009 221.151612 
L 283.165585 220.355948 
L 282.276376 219.199429 
L 282.263691 217.916892 
L 283.050683 216.455626 
L 284.467074 214.909709 
L 286.446264 213.260671 
L 288.713562 211.66927 
L 291.316784 210.036861 
L 296.845978 206.960986 
L 305.371889 202.672008 
L 312.791474 198.866218 
L 317.617839 196.418812 
L 323.43758 193.811627 
L 330.014551 191.06031 
L 344.153332 185.433908 
L 366.575047 176.502681 
L 360.914851 178.909317 
L 351.142096 182.837992 
L 330.166778 191.11479 
L 320.617728 195.136896 
L 315.272719 197.62792 
L 305.853696 202.473421 
L 297.591498 206.579197 
L 292.191112 209.512447 
L 289.558859 211.111193 
L 287.172024 212.720107 
L 285.20869 214.245974 
L 283.630559 215.775836 
L 282.581073 217.278494 
L 282.271253 218.637236 
L 282.827954 219.850508 
L 284.175794 220.885242 
L 286.084238 221.755006 
L 288.410329 222.463435 
L 291.018918 223.0151 
L 293.788515 223.421749 
L 296.57397 223.676802 
L 301.876043 223.859119 
L 306.272807 223.752528 
L 307.948276 223.640626 
L 310.092866 223.750112 
L 312.584114 224.094601 
L 314.487435 224.530607 
L 319.751695 226.133516 
L 321.454243 226.45403 
L 322.204398 226.386008 
L 320.650662 226.320762 
L 319.176698 226.007879 
L 314.736267 224.773649 
L 312.742439 224.409612 
L 310.267049 224.114531 
L 307.920953 223.999135 
L 301.307389 224.279526 
L 296.066548 224.084336 
L 293.333787 223.806865 
L 290.644206 223.373801 
L 288.136614 222.785505 
L 285.96714 222.079396 
L 284.218242 221.204082 
L 283.04312 220.108886 
L 282.740862 218.83032 
L 283.258287 217.443537 
L 284.458291 215.940567 
L 286.213289 214.35936 
L 288.397155 212.739846 
L 290.880596 211.125405 
L 296.453457 207.93746 
L 302.136585 205.014115 
L 312.770738 199.639033 
L 315.042427 198.411382 
L 310.058713 201.047996 
L 296.140222 208.144158 
L 290.689581 211.327892 
L 288.223217 212.989755 
L 286.144006 214.606852 
L 284.505618 216.197199 
L 283.476869 217.679425 
L 283.14558 219.067764 
L 283.687888 220.277159 
L 285.019627 221.282416 
L 286.90026 222.145289 
L 289.159264 222.818188 
L 291.654415 223.312215 
L 294.009049 223.531116 
L 296.10802 223.45783 
L 297.336567 222.848885 
L 296.593242 221.278827 
L 295.002425 218.902649 
L 294.014172 215.794642 
L 300.116899 206.72986 
L 316.9699 194.898065 
L 336.645436 182.747072 
L 353.510635 171.918981 
L 373.136649 160.885937 
L 393.722374 149.890075 
L 411.645353 139.676718 
L 423.174569 131.065504 
L 425.788524 124.67935 
L 422.142404 119.955657 
L 415.081186 116.166209 
L 407.2098 112.638968 
L 397.957397 109.489257 
L 386.630906 106.879272 
L 363.002356 102.296576 
L 350.994992 100.285535 
L 338.640971 98.448485 
L 325.999574 96.728099 
L 312.923452 95.166702 
L 286.123514 92.39 
L 258.574884 90.007721 
L 245.074284 88.981098 
L 218.666379 87.314019 
L 178.558075 84.817684 
L 151.20534 83.085358 
L 125.846676 81.842801 
L 101.527495 80.859963 
L 77.557167 80.110979 
L 52.470266 79.514667 
L 30.180286 79.235999 
L -1 79.159403 
L -1 79.159403 
" clip-path="url(#p574af8b482)" style="fill: none; stroke: #1f77b4; stroke-width: 1.5; stroke-linecap: square"/>
   </g>
   <g id="line2d_30">
    <path d="M 331.844198 220.299434 
L 318.936892 226.786102 
L 314.391805 229.221975 
L 303.875238 235.629447 
L 299.961013 238.480703 
L 293.694594 243.398174 
L 287.144213 249.213497 
L 282.535698 253.78234 
L 277.276073 259.882743 
L 274.462563 264.07829 
L 271.416811 269.518882 
L 269.510563 273.729359 
L 268.709177 275.802058 
L 267.431596 279.921089 
L 266.550194 284.023347 
L 266.224273 286.064775 
L 266.09327 288.119218 
L 266.063264 290.167536 
L 266.237446 293.273031 
L 266.771459 297.442738 
L 267.423301 300.605919 
L 268.279088 303.798912 
L 269.373949 307.037412 
L 270.690075 310.316994 
L 272.190142 313.624928 
L 275.061468 319.179983 
L 278.031351 324.60354 
L 280.20546 328.703526 
L 281.402293 331.531645 
L 281.903128 333.254759 
L 282.07975 334.806394 
L 282.031447 335.510588 
L 281.874342 336.159442 
L 281.599407 336.748456 
L 281.189322 337.271314 
L 280.647502 337.729189 
L 279.934184 338.106313 
L 279.035217 338.398116 
L 277.926695 338.596296 
L 276.589345 338.694418 
L 274.999992 338.684584 
L 273.140582 338.560264 
L 268.474982 337.912989 
L 262.542047 336.701082 
L 255.397153 334.891786 
L 246.895881 332.503142 
L 237.134592 329.561685 
L 226.505562 326.155941 
L 208.766768 320.366505 
L 188.736036 314.113477 
L 174.527485 309.915298 
L 167.441384 307.899783 
L 160.525318 306.115681 
L 154.309885 304.951004 
L 150.241482 305.178039 
L 149.215416 306.805807 
L 150.07291 308.914108 
L 151.791071 310.912899 
L 153.586321 312.432712 
L 155.843373 313.812581 
L 156.665495 314.016959 
L 156.70965 313.878163 
L 156.442766 313.662828 
L 154.143265 312.321527 
L 147.724863 306.989536 
L 145.595886 304.806753 
L 144.022633 302.870433 
L 142.806528 301.029842 
L 141.940007 299.377861 
L 141.392089 297.964591 
L 141.187168 296.955625 
L 141.208148 296.104069 
L 141.457224 295.247585 
L 141.901463 293.608547 
L 142.306912 292.40499 
L 142.817506 291.371955 
L 143.377134 290.562939 
L 144.389295 289.452886 
L 145.860819 288.324791 
L 147.900997 287.21378 
L 149.85628 286.418547 
L 152.247995 285.695738 
L 155.054673 285.101436 
L 157.439313 284.743884 
L 162.932402 284.26993 
L 169.291523 284.163435 
L 176.439588 284.42411 
L 184.320244 284.975106 
L 201.324008 286.294274 
L 205.653685 286.459867 
L 209.820889 286.455417 
L 213.67193 286.230033 
L 217.05019 285.763808 
L 219.886875 285.072342 
L 222.220285 284.199851 
L 224.174104 283.201364 
L 225.780778 282.102795 
L 227.140572 280.935821 
L 228.345943 279.724487 
L 230.357335 277.197287 
L 232.091109 274.589791 
L 237.23876 266.594436 
L 240.02641 262.581255 
L 243.101437 258.592358 
L 246.420173 254.630163 
L 250.006281 250.70625 
L 252.597305 248.117033 
L 255.369099 245.547006 
L 261.285933 240.466191 
L 266.054969 236.715097 
L 271.101868 233.021066 
L 276.28416 229.393574 
L 275.303957 229.65779 
L 273.228162 230.808256 
L 273.170101 230.607563 
L 278.707589 227.005361 
L 284.79397 223.482689 
L 293.25865 218.877264 
L 299.825131 215.509322 
L 306.568722 212.226463 
L 315.862353 207.985576 
L 320.966581 205.918404 
L 331.639766 201.908644 
L 342.321977 198.119435 
L 352.594348 194.666771 
L 360.502814 192.220202 
L 371.822718 189.143778 
L 382.221944 186.581406 
L 391.392379 184.485762 
L 395.503474 183.73728 
L 398.859779 183.37657 
L 400.324472 183.42904 
L 400.756025 183.541397 
L 400.928744 183.753909 
L 400.829943 184.039635 
L 400.396195 184.442504 
L 399.401355 185.043242 
L 395.511037 186.851126 
L 385.818055 190.851339 
L 356.671533 202.542519 
L 349.269513 205.833131 
L 346.16692 207.377062 
L 332.370893 215.235631 
L 329.265128 217.063446 
L 326.394534 218.966484 
L 323.912069 220.911968 
L 324.262873 220.624758 
L 346.542119 207.109257 
L 380.703825 192.19508 
L 403.767868 181.548922 
L 398.558985 180.004417 
L 383.099443 181.984881 
L 358.615106 186.920703 
L 334.441809 192.989787 
L 310.04432 200.040992 
L 287.847773 207.859102 
L 270.42441 216.926157 
L 289.43859 209.958718 
L 310.140681 201.853685 
L 333.012733 194.421767 
L 329.139248 195.102108 
L 305.432145 202.349627 
L 292.60388 207.580195 
L 314.045392 199.741221 
L 297.260698 204.887905 
L 281.495239 211.153638 
L 292.713903 206.286101 
L 270.131667 214.240806 
L 273.808038 212.018473 
L 274.695538 212.583465 
L 266.997603 215.108488 
L 268.179555 214.409437 
L 267.856318 214.505788 
L 266.453588 215.020559 
L 268.628185 214.279303 
L 268.861648 213.893661 
L 265.200402 214.264062 
L 262.324929 214.301937 
L 262.81747 213.901006 
L 263.356362 213.609251 
L 278.278475 208.430196 
L 292.381639 203.836159 
L 302.19123 200.720591 
L 320.673593 195.213699 
L 335.352974 191.183913 
L 321.30104 194.939697 
L 324.016724 194.167815 
L 339.720219 190.027227 
L 350.048699 187.438489 
L 367.376432 183.655692 
L 382.912575 180.68404 
L 391.144279 179.343027 
L 396.226551 178.778106 
L 402.122406 178.504583 
L 403.948637 178.616102 
L 404.824672 178.815958 
L 405.360637 179.127141 
L 405.483833 179.325967 
L 405.493591 179.565325 
L 405.134249 180.172714 
L 404.146727 180.964478 
L 402.191932 182.061421 
L 397.695636 184.185202 
L 387.887995 188.446928 
L 359.324765 200.503796 
L 353.650908 203.169026 
L 351.136729 204.414167 
L 354.796267 202.67598 
L 363.750316 198.711464 
L 377.026235 193.164927 
L 380.342775 191.792499 
L 361.920425 199.494686 
L 355.979195 202.12941 
L 350.726644 204.672186 
L 346.540168 207.022046 
L 340.216663 210.713373 
L 332.951013 214.916217 
L 328.242965 218.053965 
L 326.081542 219.735208 
L 324.242625 221.416451 
L 322.781103 223.137674 
L 321.85091 224.896701 
L 321.705026 226.648119 
L 322.19342 227.910487 
L 321.719663 226.75361 
L 321.730641 226.129807 
L 322.254896 224.720222 
L 323.394156 223.161552 
L 324.97424 221.579627 
L 326.86707 220.012775 
L 329.035812 218.433577 
L 333.636765 215.493627 
L 349.141926 206.551299 
L 353.949506 204.120162 
L 359.798278 201.430982 
L 372.84976 195.880378 
L 394.300786 186.914817 
L 400.741144 184.054948 
L 378.565334 193.64723 
L 365.38846 199.11194 
L 356.351467 203.040423 
L 351.155025 205.521182 
L 346.942446 207.845082 
L 340.771168 211.430368 
L 333.638716 215.484176 
L 328.960187 218.486573 
L 326.997829 219.899485 
L 325.105242 221.457556 
L 323.513937 223.037735 
L 322.420296 224.512758 
L 321.819928 226.002831 
L 321.939465 227.374254 
L 322.916009 228.537951 
L 324.649294 229.589074 
L 326.944404 230.469509 
L 329.629838 231.170952 
L 332.624116 231.750037 
L 335.756716 232.178387 
L 341.951413 232.640138 
L 347.434011 232.741489 
L 353.00614 232.679448 
L 354.710639 232.943282 
L 358.92761 234.485945 
L 360.979254 235.375758 
L 360.777261 235.399828 
L 354.485471 233.166034 
L 352.991503 232.995632 
L 344.802247 233.052194 
L 338.913711 232.824991 
L 332.598745 232.104527 
L 329.579583 231.521997 
L 326.864387 230.81127 
L 324.543663 229.916121 
L 322.802571 228.885143 
L 321.803339 227.734415 
L 321.670629 226.34933 
L 322.270021 224.843705 
L 323.400987 223.321834 
L 324.956675 221.776683 
L 326.886587 220.185474 
L 331.281155 217.149436 
L 333.880474 215.543178 
L 329.291231 218.44688 
L 327.18055 219.953438 
L 325.256737 221.50725 
L 323.639817 223.066231 
L 322.432738 224.609874 
L 321.783091 226.073916 
L 321.816025 227.417776 
L 322.66864 228.619682 
L 324.30776 229.685712 
L 326.543589 230.600672 
L 329.210482 231.345613 
L 332.163045 231.930009 
L 335.257832 232.35891 
L 338.406289 232.665332 
L 344.355081 232.931343 
L 354.243714 233.020851 
L 357.439741 234.107672 
L 360.819221 235.507974 
L 360.437923 235.441244 
L 355.569598 233.679466 
L 353.649688 233.175102 
L 350.794951 233.159981 
L 346.341834 233.20824 
L 340.717499 233.084709 
L 337.669795 232.899066 
L 331.4024 232.071963 
L 331.714903 232.089812 
L 337.533913 232.873298 
L 328.557908 231.531591 
L 325.996402 230.772653 
L 323.881818 229.83037 
L 322.393461 228.745725 
L 321.726494 227.523673 
L 321.857985 226.141459 
L 322.660346 224.636791 
L 323.936708 223.126429 
L 325.617544 221.580082 
L 327.594782 220.034021 
L 332.106692 217.013057 
L 336.839135 214.253582 
L 352.039599 205.701059 
L 357.47731 203.141271 
L 363.702745 200.40065 
L 373.854115 196.108872 
L 385.325514 191.28859 
L 362.216584 200.975739 
L 356.21339 203.655564 
L 350.906681 206.248968 
L 346.735086 208.613542 
L 340.270333 212.415144 
L 335.325163 215.268123 
L 332.84099 216.804158 
L 330.955722 218.102726 
L 325.253566 222.724757 
L 323.648355 224.441075 
L 322.506168 226.207089 
L 322.124625 227.952478 
L 322.512267 226.715759 
L 323.492713 225.220302 
L 324.950576 223.66058 
L 326.761683 222.091072 
L 328.387873 220.850573 
L 332.914908 217.827599 
L 337.779573 214.960744 
L 346.860966 209.727639 
L 350.911804 207.407257 
L 356.108978 204.838066 
L 365.241844 200.786196 
L 378.744883 195.112803 
L 393.850449 188.788522 
L 403.193115 184.560125 
L 382.928676 193.523795 
L 363.185077 201.767743 
L 354.406674 205.719602 
L 349.619829 208.149661 
L 331.970078 218.411828 
L 327.497445 221.507801 
L 325.617787 223.050846 
L 324.023067 224.626264 
L 322.87844 226.152513 
L 322.310274 227.572746 
L 322.406147 228.92577 
L 323.356832 230.15287 
L 325.083287 231.220958 
L 327.286426 232.017268 
L 329.920386 232.717108 
L 332.870508 233.300882 
L 335.990179 233.749641 
L 339.046665 234.014001 
L 344.863967 234.250057 
L 352.915878 234.131957 
L 355.143656 234.485634 
L 358.183066 235.513836 
L 362.236588 237.058939 
L 362.916241 237.399002 
L 362.36881 237.231088 
L 355.79379 234.961118 
L 353.455502 234.479987 
L 350.363154 234.529586 
L 345.884178 234.621702 
L 340.27448 234.488648 
L 337.21531 234.263599 
L 334.084662 233.884704 
L 331.077942 233.384121 
L 328.305417 232.751538 
L 325.866376 231.955156 
L 328.439347 232.751227 
L 331.22285 233.377948 
L 334.214201 233.859678 
L 337.337043 234.230509 
L 340.42134 234.466732 
L 335.831609 234.152199 
L 332.785369 233.748134 
L 329.859153 233.185797 
L 327.187869 232.451145 
L 324.944233 231.56961 
L 323.265105 230.54904 
L 322.332717 229.360747 
L 322.271729 227.967575 
L 322.883075 226.522005 
L 324.057952 224.987573 
L 325.62779 223.453595 
L 327.602345 221.84169 
L 329.746691 220.301037 
L 334.512312 217.263612 
L 350.062116 208.299128 
L 355.098769 205.745418 
L 359.904642 203.498848 
L 351.665619 207.42099 
L 347.413031 209.834733 
L 340.938276 213.615089 
L 333.621396 217.867365 
L 328.890904 221.021286 
L 326.805594 222.632784 
L 324.952528 224.307113 
L 323.5598 225.904207 
L 322.609848 227.574899 
L 322.424931 229.053009 
L 323.086776 230.429935 
L 324.698817 231.678067 
L 327.029543 232.776804 
L 329.917458 233.719757 
L 333.156665 234.544109 
L 333.433308 234.883908 
L 330.690057 234.352341 
L 328.147092 233.669489 
L 326.199615 232.911532 
L 324.759805 232.12283 
L 323.568095 230.974805 
L 323.226317 229.699924 
L 323.646648 228.245932 
L 324.675641 226.706762 
L 326.240843 225.064208 
L 328.096837 223.478837 
L 330.275581 221.852218 
L 334.978262 218.786942 
L 342.341737 214.511099 
L 348.838936 210.712224 
L 350.866673 209.5096 
L 355.855023 206.918111 
L 364.716613 202.895622 
L 378.067182 197.25149 
L 399.232783 188.289016 
L 393.913633 190.703476 
L 384.680502 194.645716 
L 364.857618 202.949719 
L 355.938942 206.980917 
L 351.04549 209.474357 
L 333.257906 219.860437 
L 331.01671 221.329575 
L 328.805033 222.922626 
L 326.834137 224.525606 
L 325.264544 226.045467 
L 324.074541 227.568798 
L 323.401231 229.064398 
L 323.43636 230.415627 
L 324.308004 231.62062 
L 325.934682 232.646741 
L 328.088787 233.507915 
L 330.629801 234.207947 
L 333.425013 234.751597 
L 336.35684 235.150661 
L 339.280616 235.398823 
L 344.811517 235.569201 
L 349.404907 235.453088 
L 351.177225 235.337213 
L 353.407199 235.442512 
L 355.984562 235.782311 
L 357.962288 236.214705 
L 363.333888 237.813738 
L 365.122795 238.13296 
L 365.91735 238.06434 
L 364.239685 238.00029 
L 362.715467 237.688484 
L 358.197215 236.457555 
L 356.119712 236.09761 
L 353.562109 235.807171 
L 351.14234 235.695914 
L 344.205782 235.991115 
L 338.728794 235.808056 
L 335.851125 235.537619 
L 332.991753 235.112236 
L 330.287535 234.532122 
L 327.898747 233.834316 
L 325.898333 232.967543 
L 324.429493 231.881104 
L 323.796923 230.610793 
L 323.961591 229.231378 
L 324.782737 227.7353 
L 326.137895 226.1606 
L 327.90875 224.54726 
L 329.973567 222.938656 
L 334.704059 219.761574 
L 339.592632 216.847632 
L 350.885213 210.257795 
L 348.632064 211.618212 
L 341.74942 215.618426 
L 336.905978 218.448244 
L 332.054974 221.549312 
L 329.837929 223.140258 
L 327.794824 224.796187 
L 326.12399 226.407087 
L 324.881781 227.990855 
L 324.223596 229.466118 
L 324.239941 230.84692 
L 325.09524 232.048133 
L 326.699475 233.044896 
L 328.823329 233.899227 
L 331.290669 234.563944 
L 333.962198 235.050291 
L 336.443443 235.26297 
L 338.622431 235.184947 
L 339.833413 234.574782 
L 338.850771 233.011567 
L 336.80059 230.649314 
L 335.159519 227.560041 
L 339.441869 218.532201 
L 354.143449 206.724476 
L 371.80369 194.58669 
L 387.194193 183.759292 
L 405.739008 172.70663 
L 425.492366 161.679974 
L 442.751548 151.435872 
L 453.73187 142.804632 
L 455.927447 136.414363 
L 452.056645 131.6939 
L 444.894675 127.911869 
L 436.968644 124.393863 
L 427.701603 121.257623 
L 416.416828 118.665702 
L 393.068092 114.114398 
L 381.296875 112.116803 
L 369.233402 110.291118 
L 356.884504 108.583221 
L 344.149673 107.032376 
L 318.063785 104.275461 
L 291.221643 101.913902 
L 278.058186 100.89704 
L 252.282362 99.248983 
L 213.150846 96.780617 
L 186.463127 95.067815 
L 161.700195 93.842653 
L 137.930397 92.876539 
L 114.490666 92.143848 
L 89.927288 91.5634 
L 68.077887 91.301695 
L 35.161561 91.282985 
L 18.098272 91.633934 
L 14.006694 91.929278 
L 11.204894 92.298937 
L 9.66921 92.772938 
L 9.031761 93.411073 
L 5.143151 93.902684 
L -0.632922 94.34058 
L -1 94.566383 
L -1 94.566383 
" clip-path="url(#p574af8b482)" style="fill: none; stroke: #ff7f0e; stroke-width: 1.5; stroke-linecap: square"/>
   </g>
   <g id="line2d_31">
    <path d="M 363.930353 232.092444 
L 351.2448 238.593754 
L 346.784608 241.034629 
L 336.477353 247.452891 
L 332.642412 250.308023 
L 326.508704 255.231643 
L 320.105915 261.053139 
L 315.606935 265.626049 
L 310.47758 271.730712 
L 307.735549 275.928053 
L 304.772009 281.370128 
L 302.921138 285.581155 
L 302.144879 287.653926 
L 300.911941 291.77267 
L 300.068352 295.874115 
L 299.759508 297.914968 
L 299.640946 299.968574 
L 299.621186 302.015911 
L 299.807078 305.119635 
L 300.353045 309.286471 
L 301.010742 312.447116 
L 301.869701 315.637238 
L 302.965293 318.87246 
L 304.279712 322.148429 
L 305.776119 325.45244 
L 308.639883 331.000341 
L 311.604155 336.416743 
L 313.777044 340.511609 
L 314.978024 343.33669 
L 315.48447 345.058272 
L 315.667679 346.608974 
L 315.471785 347.961711 
L 315.202461 348.550868 
L 314.798962 349.074062 
L 314.264706 349.532511 
L 313.559438 349.91052 
L 312.670229 350.203496 
L 311.573417 350.403207 
L 310.249484 350.503266 
L 308.676719 350.495754 
L 306.836094 350.374281 
L 302.220505 349.734232 
L 296.353193 348.531751 
L 289.291243 346.73406 
L 280.903897 344.359724 
L 271.289711 341.434465 
L 260.842915 338.044751 
L 243.443215 332.280677 
L 223.87453 326.049469 
L 210.013612 321.864091 
L 203.099741 319.854629 
L 196.350783 318.076198 
L 190.283918 316.916521 
L 186.310656 317.14681 
L 185.307278 318.775368 
L 186.143304 320.882927 
L 187.818529 322.880307 
L 189.569135 324.398636 
L 191.771299 325.776615 
L 192.57366 325.980323 
L 192.617083 325.841503 
L 192.356786 325.626407 
L 190.146084 324.313244 
L 183.645226 318.748643 
L 181.785817 316.779257 
L 180.254036 314.844205 
L 179.071109 313.004619 
L 178.232398 311.353332 
L 177.702533 309.940492 
L 177.494929 308.760909 
L 177.557137 307.910621 
L 178.205076 305.584138 
L 178.603939 304.380245 
L 179.101847 303.346827 
L 179.855173 302.26302 
L 180.62826 301.426586 
L 182.062459 300.297391 
L 184.056531 299.184801 
L 185.966926 298.388084 
L 188.306923 297.663432 
L 191.048222 297.066977 
L 193.376021 296.707583 
L 198.737375 296.229394 
L 204.942318 296.117875 
L 211.915713 296.372832 
L 219.601938 296.917463 
L 236.190006 298.221845 
L 240.414051 298.383514 
L 244.480259 298.375188 
L 248.24055 298.146071 
L 251.541477 297.676472 
L 254.313026 296.982159 
L 256.592523 296.107395 
L 258.50121 295.107042 
L 260.07056 294.007014 
L 261.397664 292.838915 
L 262.574493 291.626577 
L 264.53685 289.097941 
L 266.2272 286.489344 
L 271.243116 278.490353 
L 273.959532 274.475233 
L 276.955762 270.484159 
L 280.19253 266.519404 
L 283.69545 262.592093 
L 286.221827 260.000723 
L 290.318773 256.152847 
L 294.676016 252.343947 
L 299.326003 248.588714 
L 304.251901 244.889922 
L 309.319048 241.256783 
L 308.360069 241.522052 
L 306.328672 242.67491 
L 306.26988 242.474457 
L 311.680024 238.866728 
L 317.621254 235.338194 
L 325.88638 230.724418 
L 332.306001 227.349539 
L 338.90444 224.059525 
L 348.009984 219.808804 
L 353.014435 217.735914 
L 363.49075 213.713617 
L 373.995607 209.911655 
L 384.125997 206.447124 
L 391.945909 203.991463 
L 403.162133 200.901688 
L 413.509153 198.327425 
L 422.70008 196.224819 
L 426.823861 195.477102 
L 430.227736 195.118784 
L 431.771226 195.173216 
L 432.260596 195.286554 
L 432.508452 195.500024 
L 432.501134 195.786683 
L 432.179848 196.190484 
L 431.322353 196.792634 
L 427.768446 198.605806 
L 422.137037 201.134465 
L 407.218095 207.479035 
L 395.128763 212.624091 
L 387.672585 216.020576 
L 384.412642 217.644421 
L 381.602304 219.189452 
L 377.220177 222.075449 
L 367.291049 228.849589 
L 364.965933 230.744732 
L 363.016261 232.682128 
L 363.288513 232.396163 
L 381.997264 218.921623 
L 413.920214 203.97194 
L 435.371728 193.294176 
L 429.751052 191.742445 
L 414.251014 193.732957 
L 389.955985 198.698639 
L 366.129345 204.797248 
L 342.197805 211.876734 
L 320.506242 219.717933 
L 303.501502 228.802263 
L 322.076811 221.814773 
L 342.308804 213.688375 
L 364.737593 206.230329 
L 360.928024 206.91567 
L 337.691019 214.190082 
L 325.161595 219.433451 
L 346.125204 211.572035 
L 329.703511 216.73683 
L 314.294468 223.019838 
L 325.260396 218.139812 
L 303.204367 226.117964 
L 306.784376 223.892544 
L 307.654069 224.45646 
L 300.158859 226.98756 
L 301.302754 226.288174 
L 300.990006 226.384621 
L 299.632164 226.899751 
L 301.737234 226.15792 
L 301.963134 225.772183 
L 298.410204 226.14433 
L 295.604257 226.185101 
L 296.084357 225.783691 
L 296.608855 225.491505 
L 311.134301 220.300822 
L 329.024834 214.336989 
L 335.88723 212.134993 
L 352.595811 207.038579 
L 367.005136 202.991254 
L 353.210085 206.76393 
L 355.873319 205.988938 
L 369.565422 202.282035 
L 383.199464 198.833224 
L 389.863282 197.300945 
L 400.403269 195.063874 
L 412.438444 192.717364 
L 421.074378 191.26074 
L 425.384538 190.708165 
L 430.974232 190.274791 
L 434.601324 190.295415 
L 436.095536 190.556832 
L 436.703467 190.869164 
L 436.933027 191.308496 
L 436.699808 191.917082 
L 436.396574 192.274658 
L 435.106063 193.217803 
L 432.892434 194.465696 
L 428.152916 196.793208 
L 420.723817 200.215462 
L 393.788729 212.309271 
L 388.522761 214.97943 
L 386.221797 216.225959 
L 389.579809 214.48557 
L 394.940187 211.902287 
L 404.152338 207.722173 
L 413.600148 203.571799 
L 396.219476 211.297458 
L 390.675402 213.938092 
L 385.849525 216.484146 
L 383.869115 217.65837 
L 370.581974 226.706332 
L 368.58839 228.243491 
L 366.711173 229.832571 
L 364.979107 231.507521 
L 363.559788 233.182232 
L 362.512986 234.896493 
L 361.989951 236.647936 
L 362.231709 238.39098 
L 362.945515 239.647582 
L 362.0263 237.877764 
L 362.200483 236.475141 
L 362.952834 234.923315 
L 364.131858 233.347897 
L 365.617775 231.787218 
L 367.369845 230.214026 
L 371.164533 227.285034 
L 379.199124 221.881742 
L 384.428987 218.363617 
L 388.803063 215.930495 
L 394.234919 213.236218 
L 406.517706 207.670014 
L 424.186242 199.885353 
L 432.782899 195.805919 
L 415.018246 204.068218 
L 396.410248 212.320158 
L 391.022547 214.848841 
L 386.242777 217.333022 
L 382.483706 219.656849 
L 375.200735 224.546326 
L 371.169169 227.275511 
L 367.308125 230.266807 
L 365.731701 231.674143 
L 364.24432 233.226065 
L 363.05383 234.79976 
L 362.333193 236.268204 
L 362.098754 237.751075 
L 362.553726 239.114866 
L 363.824233 240.270451 
L 365.823428 241.313009 
L 368.349804 242.184878 
L 371.234304 242.878019 
L 374.403741 243.448993 
L 377.686615 243.869734 
L 384.12185 244.318039 
L 389.800099 244.408408 
L 395.673266 244.333758 
L 397.493886 244.593165 
L 401.770138 246.132144 
L 403.87228 247.020306 
L 403.665896 247.04452 
L 397.267498 244.816229 
L 395.658385 244.649966 
L 387.076364 244.724281 
L 380.979736 244.509113 
L 374.388372 243.803291 
L 371.194052 243.228896 
L 368.28101 242.526472 
L 365.726822 241.63996 
L 363.724213 240.617452 
L 362.434921 239.474739 
L 361.964092 238.097406 
L 362.195848 236.599007 
L 362.945759 235.083883 
L 364.106243 233.545144 
L 365.62485 231.960156 
L 367.276168 230.48597 
L 371.361891 227.335231 
L 365.866607 231.728862 
L 364.348488 233.276549 
L 363.130187 234.829117 
L 362.309286 236.366062 
L 362.021909 237.823069 
L 362.386863 239.159488 
L 363.540028 240.353379 
L 365.448472 241.410891 
L 367.922155 242.317214 
L 370.794457 243.053709 
L 373.923641 243.630018 
L 377.168459 244.051358 
L 380.447675 244.35065 
L 386.610658 244.604363 
L 397.005737 244.671763 
L 398.834896 245.214767 
L 403.707124 247.152642 
L 403.315823 247.086247 
L 398.372117 245.328297 
L 396.387072 244.827235 
L 393.309362 244.81989 
L 388.668645 244.877312 
L 382.84744 244.765051 
L 379.685078 244.58594 
L 373.122988 243.773958 
L 373.149579 243.832721 
L 370.099679 243.241553 
L 367.328617 242.491038 
L 364.970324 241.557343 
L 363.207764 240.481097 
L 362.234636 239.266917 
L 362.02508 237.892072 
L 362.45517 236.394438 
L 363.348037 234.890632 
L 364.630254 233.350601 
L 366.200823 231.810594 
L 367.962163 230.304131 
L 371.829549 227.404688 
L 384.953242 218.691621 
L 389.555414 216.180954 
L 397.893969 212.201627 
L 407.466927 207.897217 
L 418.315026 203.061358 
L 396.500998 212.778535 
L 390.899351 215.464293 
L 386.025415 218.060951 
L 384.035979 219.257091 
L 372.593854 227.06276 
L 370.522449 228.593435 
L 368.968469 229.887505 
L 364.398499 234.493027 
L 363.20996 236.202574 
L 362.480785 237.961147 
L 362.473954 239.698855 
L 362.53299 238.46886 
L 363.137506 236.98027 
L 364.201141 235.427032 
L 365.607529 233.863793 
L 366.910238 232.628055 
L 368.686216 231.119104 
L 372.635326 228.163243 
L 384.0694 220.446078 
L 386.050298 219.219384 
L 390.812747 216.64725 
L 396.472456 213.89268 
L 412.097397 206.895237 
L 426.362302 200.549734 
L 435.070934 196.308105 
L 419.015659 203.994885 
L 397.412894 213.569797 
L 391.747575 216.266083 
L 386.930724 218.767945 
L 383.139939 221.103688 
L 375.781099 226.052885 
L 371.770269 228.777595 
L 367.934109 231.734413 
L 366.200091 233.282627 
L 364.722224 234.819595 
L 363.527099 236.388576 
L 362.764746 237.908078 
L 362.551775 239.321301 
L 362.982596 240.666716 
L 364.239197 241.885467 
L 366.236684 242.944821 
L 368.662796 243.732877 
L 371.498261 244.424414 
L 374.627689 245.00003 
L 377.902758 245.441037 
L 381.088783 245.698434 
L 387.121739 245.922383 
L 395.569098 245.78665 
L 397.896409 246.135637 
L 400.987537 247.160633 
L 405.134981 248.70253 
L 405.847079 249.042042 
L 405.273058 248.874535 
L 398.574842 246.609805 
L 396.146778 246.133292 
L 392.846339 246.190643 
L 388.181959 246.291898 
L 382.36856 246.17033 
L 379.18717 245.952027 
L 375.911614 245.580598 
L 372.739738 245.087887 
L 369.778393 244.46351 
L 367.121013 243.675574 
L 369.91891 244.46284 
L 372.890501 245.081403 
L 376.044324 245.555332 
L 379.311098 245.918698 
L 382.518347 246.148174 
L 377.741749 245.843857 
L 374.544989 245.447329 
L 371.442884 244.893032 
L 368.565215 244.166873 
L 366.086165 243.293951 
L 364.142592 242.281875 
L 362.910142 241.101765 
L 362.507131 239.716321 
L 362.757915 238.277833 
L 363.548323 236.750124 
L 364.725152 235.222487 
L 366.284743 233.616827 
L 368.01998 232.082012 
L 371.963967 229.055593 
L 378.115729 224.912109 
L 385.287213 220.111398 
L 389.879871 217.555439 
L 394.344942 215.30473 
L 386.738977 219.23295 
L 384.700994 220.460529 
L 371.234304 229.657192 
L 369.249991 231.183561 
L 367.340327 232.799701 
L 365.670957 234.405122 
L 364.237246 236.072942 
L 363.240454 237.663386 
L 362.688632 239.326684 
L 362.858424 240.797209 
L 363.847409 242.165785 
L 365.754633 243.404801 
L 368.345901 244.494231 
L 371.458253 245.427949 
L 374.887743 246.243472 
L 375.157067 246.583056 
L 372.232315 246.059456 
L 369.482966 245.38493 
L 367.325934 244.634653 
L 365.675348 243.85289 
L 364.187235 242.713479 
L 363.522464 241.446374 
L 363.583208 239.999751 
L 364.229439 238.46752 
L 365.385776 236.831689 
L 366.83632 235.252467 
L 368.595221 233.631877 
L 372.480416 230.577536 
L 376.527839 227.758532 
L 388.161467 220.076418 
L 393.110296 217.461721 
L 398.86417 214.697484 
L 408.241721 210.464947 
L 428.784023 201.272663 
L 431.441158 200.043648 
L 417.72344 206.421021 
L 402.027264 213.368386 
L 393.260571 217.484761 
L 388.349554 220.040362 
L 384.41996 222.470469 
L 379.037139 226.118275 
L 373.011257 230.198474 
L 369.204616 233.111028 
L 367.408146 234.698217 
L 365.848555 236.295073 
L 364.668311 237.808689 
L 363.860582 239.325392 
L 363.557593 240.813742 
L 363.931085 242.157339 
L 365.111329 243.353982 
L 367.010503 244.371418 
L 369.403925 245.223955 
L 372.154251 245.915564 
L 375.13072 246.451175 
L 378.219165 246.842702 
L 381.276627 247.083926 
L 387.030501 247.242341 
L 391.814662 247.116681 
L 393.68261 246.996835 
L 395.994796 247.097947 
L 398.654859 247.432961 
L 400.7026 247.861717 
L 405.325264 249.224025 
L 407.519133 249.733413 
L 408.803301 249.724368 
L 408.875023 249.705012 
L 408.5996 249.74272 
L 407.696242 249.721019 
L 405.509204 249.331764 
L 400.923865 248.104424 
L 398.766589 247.748595 
L 396.131165 247.462773 
L 393.640162 247.355727 
L 386.387929 247.665786 
L 380.681138 247.494858 
L 377.663928 247.231431 
L 374.639887 246.813728 
L 371.744898 246.241797 
L 369.142651 245.552317 
L 366.896821 244.694134 
L 365.140847 243.616572 
L 364.185528 242.354539 
L 364.002563 240.982685 
L 364.449973 239.493689 
L 365.411147 237.925664 
L 366.773868 236.318688 
L 368.42543 234.716114 
L 370.306063 233.114904 
L 374.369587 230.06743 
L 380.590875 225.863413 
L 386.130802 222.06997 
L 374.180768 230.241254 
L 370.148713 233.331627 
L 368.34395 234.916831 
L 366.719467 236.566563 
L 365.451887 238.171099 
L 364.600248 239.748095 
L 364.306528 241.216276 
L 364.664651 242.589374 
L 365.825867 243.782308 
L 367.696498 244.770506 
L 370.057719 245.616248 
L 372.727296 246.272781 
L 375.569592 246.751424 
L 378.173058 246.957883 
L 380.429378 246.875122 
L 381.620844 246.263737 
L 380.402056 244.707341 
L 377.899586 242.359013 
L 375.617163 239.288546 
L 378.107434 230.29803 
L 390.687599 218.515333 
L 420.319099 195.565868 
L 437.831017 184.494352 
L 456.804701 173.437669 
L 473.451318 163.163444 
L 483.922754 154.512632 
L 485.724347 148.118439 
L 481.644966 143.401135 
L 474.392733 139.626353 
L 466.417179 136.117487 
L 457.133794 132.994693 
L 445.884392 130.420694 
L 422.79693 125.900636 
L 411.249417 123.916488 
L 399.463806 122.102168 
L 387.396186 120.406785 
L 374.990935 118.866515 
L 349.595678 116.129746 
L 323.44685 113.788571 
L 310.61395 112.78152 
L 285.462158 111.152555 
L 247.295232 108.712255 
L 221.263502 107.019097 
L 197.092156 105.811424 
L 173.8693 104.862154 
L 150.958703 104.145925 
L 126.920556 103.581483 
L 105.519053 103.33624 
L 73.312629 103.342771 
L 56.613075 103.712646 
L 52.594194 104.010096 
L 49.821669 104.382171 
L 48.379419 104.857823 
L 47.826866 105.494785 
L 43.957284 105.991851 
L 38.283183 106.433002 
L 37.162707 107.136646 
L 37.163439 107.949992 
L 36.944613 108.79803 
L 30.695514 109.249708 
L 25.367826 109.818241 
L 25.522736 110.692168 
L 22.898046 113.306914 
L 19.58541 117.042217 
L 15.406984 122.123654 
L 13.227996 125.215774 
L 11.090724 127.315246 
L 9.09836 129.539733 
L 7.753204 130.629976 
L 5.957466 131.673611 
L 1.748546 133.706377 
L 0.212619 134.756687 
L -1 136.17576 
L -1 136.17576 
" clip-path="url(#p574af8b482)" style="fill: none; stroke: #2ca02c; stroke-width: 1.5; stroke-linecap: square"/>
   </g>
   <g id="patch_3">
    <path d="M 80.64 371.52 
L 80.64 60.48 
" style="fill: none; stroke: #000000; stroke-width: 1.5; stroke-linejoin: miter; stroke-linecap: square"/>
   </g>
   <g id="patch_4">
    <path d="M 495.36 371.52 
L 495.36 60.48 
" style="fill: none; stroke: #000000; stroke-width: 1.5; stroke-linejoin: miter; stroke-linecap: square"/>
   </g>
   <g id="patch_5">
    <path d="M 80.64 371.52 
L 495.36 371.52 
" style="fill: none; stroke: #000000; stroke-width: 1.5; stroke-linejoin: miter; stroke-linecap: square"/>
   </g>
   <g id="patch_6">
    <path d="M 80.64 60.48 
L 495.36 60.48 
" style="fill: none; stroke: #000000; stroke-width: 1.5; stroke-linejoin: miter; stroke-linecap: square"/>
   </g>
   <g id="legend_1">
    <g id="patch_7">
     <path d="M 402.66 362.52 
L 482.76 362.52 
Q 486.36 362.52 486.36 358.92 
L 486.36 259.000312 
Q 486.36 255.400312 482.76 255.400312 
L 402.66 255.400312 
Q 399.06 255.400312 399.06 259.000312 
L 399.06 358.92 
Q 399.06 362.52 402.66 362.52 
z
" style="fill: #ffffff; opacity: 0.8; stroke: #cccccc; stroke-linejoin: miter"/>
    </g>
    <g id="text_17">
     <!-- $A_v$ -->
     <g transform="translate(432.27 274.89375) scale(0.18 -0.18)">
      <defs>
       <path id="Cmmi10-41" d="M 288 0 
Q 225 0 225 84 
Q 250 225 306 225 
Q 566 225 755 328 
Q 944 431 1081 647 
Q 1094 659 1094 659 
L 3378 4513 
Q 3428 4581 3500 4581 
L 3584 4581 
Q 3603 4581 3622 4573 
Q 3641 4566 3655 4548 
Q 3669 4531 3669 4513 
L 4056 378 
Q 4056 350 4084 294 
Q 4147 225 4563 225 
Q 4628 225 4628 141 
Q 4606 56 4592 28 
Q 4578 0 4519 0 
L 2919 0 
Q 2859 0 2859 84 
Q 2894 225 2944 225 
Q 3450 225 3481 397 
L 3384 1453 
L 1806 1453 
L 1294 594 
Q 1247 525 1247 434 
Q 1247 322 1355 273 
Q 1463 225 1594 225 
Q 1656 225 1656 141 
Q 1634 50 1621 25 
Q 1609 0 1550 0 
L 288 0 
z
M 1931 1678 
L 3359 1678 
L 3169 3750 
L 1931 1678 
z
" transform="scale(0.015625)"/>
       <path id="Cmmi10-76" d="M 684 722 
Q 684 866 718 1037 
Q 753 1209 787 1320 
Q 822 1431 944 1753 
Q 1066 2075 1069 2088 
Q 1153 2322 1153 2472 
Q 1153 2663 1013 2663 
Q 759 2663 595 2402 
Q 431 2141 353 1819 
Q 341 1778 300 1778 
L 225 1778 
Q 172 1778 172 1838 
L 172 1856 
Q 275 2238 487 2533 
Q 700 2828 1025 2828 
Q 1253 2828 1411 2678 
Q 1569 2528 1569 2297 
Q 1569 2178 1516 2047 
Q 1391 1722 1319 1526 
Q 1247 1331 1186 1089 
Q 1125 847 1125 641 
Q 1125 400 1236 248 
Q 1347 97 1581 97 
Q 2025 97 2381 781 
Q 2494 1003 2594 1303 
Q 2694 1603 2694 1791 
Q 2694 1984 2631 2092 
Q 2569 2200 2469 2317 
Q 2369 2434 2369 2503 
Q 2369 2628 2472 2731 
Q 2575 2834 2700 2834 
Q 2853 2834 2920 2693 
Q 2988 2553 2988 2375 
Q 2988 2163 2927 1869 
Q 2866 1575 2758 1259 
Q 2650 944 2559 763 
Q 2138 -72 1575 -72 
Q 1172 -72 928 129 
Q 684 331 684 722 
z
" transform="scale(0.015625)"/>
      </defs>
      <use xlink:href="#Cmmi10-41" transform="translate(0 0.421875)"/>
      <use xlink:href="#Cmmi10-76" transform="translate(75 -16.584375) scale(0.7)"/>
     </g>
    </g>
    <g id="line2d_32">
     <path d="M 406.26 294.100312 
L 424.26 294.100312 
L 442.26 294.100312 
" style="fill: none; stroke: #1f77b4; stroke-width: 1.5; stroke-linecap: square"/>
    </g>
    <g id="text_18">
     <!-- 0.0 -->
     <g transform="translate(456.66 300.400312) scale(0.18 -0.18)">
      <use xlink:href="#FreeSerif-30"/>
      <use xlink:href="#FreeSerif-2e" x="49.999985"/>
      <use xlink:href="#FreeSerif-30" x="74.999969"/>
     </g>
    </g>
    <g id="line2d_33">
     <path d="M 406.26 319.606875 
L 424.26 319.606875 
L 442.26 319.606875 
" style="fill: none; stroke: #ff7f0e; stroke-width: 1.5; stroke-linecap: square"/>
    </g>
    <g id="text_19">
     <!-- 0.5 -->
     <g transform="translate(456.66 325.906875) scale(0.18 -0.18)">
      <use xlink:href="#FreeSerif-30"/>
      <use xlink:href="#FreeSerif-2e" x="49.999985"/>
      <use xlink:href="#FreeSerif-35" x="74.999969"/>
     </g>
    </g>
    <g id="line2d_34">
     <path d="M 406.26 345.113437 
L 424.26 345.113437 
L 442.26 345.113437 
" style="fill: none; stroke: #2ca02c; stroke-width: 1.5; stroke-linecap: square"/>
    </g>
    <g id="text_20">
     <!-- 1.0 -->
     <g transform="translate(456.66 351.413437) scale(0.18 -0.18)">
      <use xlink:href="#FreeSerif-31"/>
      <use xlink:href="#FreeSerif-2e" x="49.999985"/>
      <use xlink:href="#FreeSerif-30" x="74.999969"/>
     </g>
    </g>
   </g>
  </g>
 </g>
 <defs>
  <clipPath id="p574af8b482">
   <rect x="80.64" y="60.48" width="414.72" height="311.04"/>
  </clipPath>
 </defs>
</svg>
